SplineFontDB: 3.2
FontName: Kilroy5-48ptRegular
FullName: Kilroy5 48pt Regular
FamilyName: Kilroy5 48pt
Weight: Regular
Copyright: Copyright 2020 The Roboto Serif Project Authors (https://github.com/googlefonts/RobotoSerif) OFL
Version: 1.008
ItalicAngle: 0
UnderlinePosition: -200
UnderlineWidth: 100
Ascent: 800
Descent: 200
InvalidEm: 0
sfntRevision: 0x0001020c
LayerCount: 2
Layer: 0 1 "Back" 1
Layer: 1 1 "Fore" 0
XUID: [1021 1018 -1064020043 27637]
StyleMap: 0x0040
FSType: 0
OS2Version: 4
OS2_WeightWidthSlopeOnly: 0
OS2_UseTypoMetrics: 1
CreationTime: 1586430965
ModificationTime: 1751911803
PfmFamily: 81
TTFWeight: 400
TTFWidth: 5
LineGap: 0
VLineGap: 0
Panose: 0 0 0 0 0 0 0 0 0 0
OS2TypoAscent: 927
OS2TypoAOffset: 0
OS2TypoDescent: -244
OS2TypoDOffset: 0
OS2TypoLinegap: 0
OS2WinAscent: 1048
OS2WinAOffset: 0
OS2WinDescent: 251
OS2WinDOffset: 0
HheadAscent: 927
HheadAOffset: 0
HheadDescent: -244
HheadDOffset: 0
OS2SubXSize: 650
OS2SubYSize: 600
OS2SubXOff: 0
OS2SubYOff: 75
OS2SupXSize: 650
OS2SupYSize: 600
OS2SupXOff: 0
OS2SupYOff: 350
OS2StrikeYSize: 100
OS2StrikeYPos: 311
OS2CapHeight: 710
OS2XHeight: 518
OS2Vendor: 'COMM'
OS2CodePages: 20000193.00000000
OS2UnicodeRanges: a10000ef.4000267a.00000000.00000000
Lookup: 5 0 0 "'locl' Localized Forms in Latin lookup 0" { "'locl' Localized Forms in Latin lookup 0 subtable"  } ['locl' ('latn' <'AZE ' 'CRT ' 'TRK ' > ) ]
Lookup: 1 0 0 "Single Substitution lookup 1" { "Single Substitution lookup 1 subtable"  } []
Lookup: 5 0 0 "'locl' Localized Forms in Latin lookup 2" { "'locl' Localized Forms in Latin lookup 2 subtable"  } ['locl' ('latn' <'PLK ' > ) ]
Lookup: 1 0 0 "Single Substitution lookup 3" { "Single Substitution lookup 3 subtable"  } []
Lookup: 6 0 0 "'locl' Localized Forms in Latin lookup 4" { "'locl' Localized Forms in Latin lookup 4 subtable"  } ['locl' ('latn' <'CAT ' > ) ]
Lookup: 4 0 0 "Ligature Substitution lookup 5" { "Ligature Substitution lookup 5 subtable"  } []

StartChar: .notdef
Encoding: 65536 -1 0
Width: 400
GlyphClass: 1
Flags: W
LayerCount: 2
Fore
SplineSet
0 0 m 1,0,-1
 0 700 l 1,1,-1
 400 700 l 1,2,-1
 400 0 l 1,3,-1
 0 0 l 1,0,-1
50 650 m 1,4,-1
 50 50 l 1,5,-1
 350 50 l 1,6,-1
 350 650 l 1,7,-1
 50 650 l 1,4,-1
EndSplineSet
EndChar

StartChar: A
Encoding: 65 65 6
Width: 695
GlyphClass: 2
Flags: W
AnchorPoint: "Anchor-2" 550 0 basechar 0
AnchorPoint: "Anchor-1" 347 0 basechar 0
AnchorPoint: "Anchor-0" 347 721 basechar 0
LayerCount: 2
Fore
SplineSet
184 305 m 1,0,-1
 483 305 l 1,1,-1
 484 238 l 1,2,-1
 176 238 l 1,3,-1
 184 305 l 1,0,-1
314 670 m 1,4,-1
 343 646 l 1,5,-1
 142 77 l 2,6,7
 142 72 142 72 153 67.5 c 128,-1,8
 164 63 164 63 180.5 60.5 c 128,-1,9
 197 58 197 58 214 58 c 2,10,-1
 232 58 l 1,11,-1
 232 0 l 1,12,-1
 7 0 l 1,13,-1
 7 58 l 1,14,-1
 13 58 l 2,15,16
 34 58 34 58 50.5 67 c 128,-1,17
 67 76 67 76 76 105 c 2,18,-1
 292 710 l 1,19,-1
 398 710 l 1,20,-1
 621 88 l 2,21,22
 628 68 628 68 644 63 c 128,-1,23
 660 58 660 58 683 58 c 2,24,-1
 687 58 l 1,25,-1
 687 0 l 1,26,-1
 431 0 l 1,27,-1
 431 58 l 1,28,-1
 448 58 l 2,29,30
 465 58 465 58 483 59 c 128,-1,31
 501 60 501 60 514 62.5 c 128,-1,32
 527 65 527 65 527 68 c 2,33,-1
 314 670 l 1,4,-1
EndSplineSet
EndChar

StartChar: Aogonek
Encoding: 260 260 15
Width: 695
GlyphClass: 1
Flags: W
LayerCount: 2
Fore
SplineSet
184 305 m 1,0,-1
 483 305 l 1,1,-1
 484 238 l 1,2,-1
 176 238 l 1,3,-1
 184 305 l 1,0,-1
565 38 m 1,4,-1
 598 10 l 1,5,6
 554 -18 554 -18 528 -44 c 128,-1,7
 502 -70 502 -70 491.5 -92.5 c 128,-1,8
 481 -115 481 -115 481 -136 c 0,9,10
 481 -158 481 -158 491 -169.5 c 128,-1,11
 501 -181 501 -181 517 -181 c 0,12,13
 534 -181 534 -181 546 -173 c 128,-1,14
 558 -165 558 -165 569 -155 c 1,15,-1
 599 -190 l 1,16,17
 580 -210 580 -210 557 -223 c 128,-1,18
 534 -236 534 -236 495 -236 c 0,19,20
 448 -236 448 -236 417.5 -212 c 128,-1,21
 387 -188 387 -188 387 -145 c 0,22,23
 387 -119 387 -119 399.5 -96 c 128,-1,24
 412 -73 412 -73 435.5 -51 c 128,-1,25
 459 -29 459 -29 492.5 -6.5 c 128,-1,26
 526 16 526 16 565 38 c 1,4,-1
687 0 m 1,27,-1
 551 0 l 1,28,-1
 314 670 l 1,29,-1
 343 647 l 1,30,-1
 142 77 l 2,31,32
 142 72 142 72 152.5 67.5 c 128,-1,33
 163 63 163 63 180 60.5 c 128,-1,34
 197 58 197 58 214 58 c 2,35,-1
 232 58 l 1,36,-1
 232 0 l 1,37,-1
 7 0 l 1,38,-1
 7 58 l 1,39,-1
 13 58 l 2,40,41
 34 58 34 58 50 67 c 128,-1,42
 66 76 66 76 76 105 c 2,43,-1
 292 710 l 1,44,-1
 398 710 l 1,45,-1
 621 88 l 2,46,47
 629 68 629 68 644.5 63 c 128,-1,48
 660 58 660 58 682 58 c 2,49,-1
 687 58 l 1,50,-1
 687 0 l 1,27,-1
EndSplineSet
EndChar

StartChar: Acaron
Encoding: 461 461 16
Width: 695
GlyphClass: 1
Flags: W
LayerCount: 2
Fore
SplineSet
303 758 m 1,0,-1
 393 758 l 1,1,-1
 501 893 l 1,2,-1
 501 905 l 1,3,-1
 454 905 l 1,4,-1
 335 811 l 1,5,-1
 372 811 l 1,6,-1
 252 905 l 1,7,-1
 196 905 l 1,8,-1
 196 893 l 1,9,-1
 303 758 l 1,0,-1
184 305 m 1,10,-1
 483 305 l 1,11,-1
 484 238 l 1,12,-1
 176 238 l 1,13,-1
 184 305 l 1,10,-1
314 670 m 1,14,-1
 343 646 l 1,15,-1
 142 77 l 2,16,17
 142 72 142 72 153 67.5 c 128,-1,18
 164 63 164 63 180.5 60.5 c 128,-1,19
 197 58 197 58 214 58 c 2,20,-1
 232 58 l 1,21,-1
 232 0 l 1,22,-1
 7 0 l 1,23,-1
 7 58 l 1,24,-1
 13 58 l 2,25,26
 34 58 34 58 50 67 c 128,-1,27
 66 76 66 76 76 105 c 2,28,-1
 292 710 l 1,29,-1
 398 710 l 1,30,-1
 621 88 l 2,31,32
 629 68 629 68 644.5 63 c 128,-1,33
 660 58 660 58 682 58 c 2,34,-1
 687 58 l 1,35,-1
 687 0 l 1,36,-1
 431 0 l 1,37,-1
 431 58 l 1,38,-1
 448 58 l 2,39,40
 465 58 465 58 483 59 c 128,-1,41
 501 60 501 60 514 62.5 c 128,-1,42
 527 65 527 65 527 68 c 2,43,-1
 314 670 l 1,14,-1
EndSplineSet
EndChar

StartChar: Adblgrave
Encoding: 512 512 18
Width: 695
GlyphClass: 1
Flags: W
LayerCount: 2
Fore
SplineSet
427 859 m 2,0,-1
 446 786 l 1,1,-1
 446 758 l 1,2,-1
 412 758 l 1,3,-1
 367 801 l 2,4,5
 347 820 347 820 336.5 836 c 128,-1,6
 326 852 326 852 326 871 c 256,7,8
 326 890 326 890 339 901 c 128,-1,9
 352 912 352 912 371 912 c 0,10,11
 385 912 385 912 395.5 906.5 c 128,-1,12
 406 901 406 901 414.5 889.5 c 128,-1,13
 423 878 423 878 427 859 c 2,0,-1
263 859 m 2,14,-1
 282 786 l 1,15,-1
 282 758 l 1,16,-1
 248 758 l 1,17,-1
 203 801 l 2,18,19
 183 820 183 820 172.5 836 c 128,-1,20
 162 852 162 852 162 871 c 256,21,22
 162 890 162 890 175 901 c 128,-1,23
 188 912 188 912 207 912 c 0,24,25
 221 912 221 912 231.5 906.5 c 128,-1,26
 242 901 242 901 250.5 889.5 c 128,-1,27
 259 878 259 878 263 859 c 2,14,-1
184 305 m 1,28,-1
 483 305 l 1,29,-1
 484 238 l 1,30,-1
 176 238 l 1,31,-1
 184 305 l 1,28,-1
314 670 m 1,32,-1
 343 646 l 1,33,-1
 142 77 l 2,34,35
 142 72 142 72 153 67.5 c 128,-1,36
 164 63 164 63 180.5 60.5 c 128,-1,37
 197 58 197 58 214 58 c 2,38,-1
 232 58 l 1,39,-1
 232 0 l 1,40,-1
 7 0 l 1,41,-1
 7 58 l 1,42,-1
 13 58 l 2,43,44
 34 58 34 58 50 67 c 128,-1,45
 66 76 66 76 76 105 c 2,46,-1
 292 710 l 1,47,-1
 398 710 l 1,48,-1
 621 88 l 2,49,50
 629 68 629 68 644.5 63 c 128,-1,51
 660 58 660 58 682 58 c 2,52,-1
 687 58 l 1,53,-1
 687 0 l 1,54,-1
 431 0 l 1,55,-1
 431 58 l 1,56,-1
 448 58 l 2,57,58
 465 58 465 58 483 59 c 128,-1,59
 501 60 501 60 514 62.5 c 128,-1,60
 527 65 527 65 527 68 c 2,61,-1
 314 670 l 1,32,-1
EndSplineSet
EndChar

StartChar: Ainvertedbreve
Encoding: 514 514 19
Width: 695
GlyphClass: 1
Flags: W
LayerCount: 2
Fore
SplineSet
355 899 m 0,0,1
 311 899 311 899 279 883 c 128,-1,2
 247 867 247 867 228.5 836 c 128,-1,3
 210 805 210 805 206 759 c 1,4,-1
 267 759 l 1,5,6
 273 785 273 785 283.5 799.5 c 128,-1,7
 294 814 294 814 311 820 c 128,-1,8
 328 826 328 826 352 826 c 0,9,10
 375 826 375 826 392.5 820 c 128,-1,11
 410 814 410 814 421.5 799.5 c 128,-1,12
 433 785 433 785 438 759 c 1,13,-1
 505 759 l 1,14,15
 501 805 501 805 481 836 c 128,-1,16
 461 867 461 867 429 883 c 128,-1,17
 397 899 397 899 355 899 c 0,0,1
184 305 m 1,18,-1
 483 305 l 1,19,-1
 484 238 l 1,20,-1
 176 238 l 1,21,-1
 184 305 l 1,18,-1
314 670 m 1,22,-1
 343 646 l 1,23,-1
 142 77 l 2,24,25
 142 72 142 72 153 67.5 c 128,-1,26
 164 63 164 63 180.5 60.5 c 128,-1,27
 197 58 197 58 214 58 c 2,28,-1
 232 58 l 1,29,-1
 232 0 l 1,30,-1
 7 0 l 1,31,-1
 7 58 l 1,32,-1
 13 58 l 2,33,34
 34 58 34 58 50 67 c 128,-1,35
 66 76 66 76 76 105 c 2,36,-1
 292 710 l 1,37,-1
 398 710 l 1,38,-1
 621 88 l 2,39,40
 629 68 629 68 644.5 63 c 128,-1,41
 660 58 660 58 682 58 c 2,42,-1
 687 58 l 1,43,-1
 687 0 l 1,44,-1
 431 0 l 1,45,-1
 431 58 l 1,46,-1
 448 58 l 2,47,48
 465 58 465 58 483 59 c 128,-1,49
 501 60 501 60 514 62.5 c 128,-1,50
 527 65 527 65 527 68 c 2,51,-1
 314 670 l 1,22,-1
EndSplineSet
EndChar

StartChar: B
Encoding: 66 66 32
Width: 665
GlyphClass: 2
Flags: W
AnchorPoint: "Anchor-0" 319 741 basechar 0
LayerCount: 2
Fore
SplineSet
339 710 m 2,0,1
 396 710 396 710 441 697.5 c 128,-1,2
 486 685 486 685 516.5 661.5 c 128,-1,3
 547 638 547 638 563 604.5 c 128,-1,4
 579 571 579 571 579 530 c 0,5,6
 579 480 579 480 551 442 c 128,-1,7
 523 404 523 404 468 383 c 128,-1,8
 413 362 413 362 331 362 c 1,9,-1
 406 396 l 1,10,-1
 406 354 l 1,11,-1
 342 386 l 1,12,13
 429 386 429 386 489.5 363 c 128,-1,14
 550 340 550 340 581 298 c 128,-1,15
 612 256 612 256 612 199 c 0,16,17
 612 153 612 153 594.5 116 c 128,-1,18
 577 79 577 79 543.5 53 c 128,-1,19
 510 27 510 27 461.5 13.5 c 128,-1,20
 413 0 413 0 351 0 c 2,21,-1
 43 0 l 1,22,-1
 43 58 l 1,23,-1
 53 58 l 2,24,25
 83 58 83 58 106 65 c 128,-1,26
 129 72 129 72 129 94 c 2,27,-1
 129 616 l 2,28,29
 129 638 129 638 106 645 c 128,-1,30
 83 652 83 652 53 652 c 2,31,-1
 43 652 l 1,32,-1
 43 710 l 1,33,-1
 339 710 l 2,0,1
207 405 m 1,34,-1
 339 405 l 2,35,36
 391 405 391 405 421.5 420.5 c 128,-1,37
 452 436 452 436 465 463.5 c 128,-1,38
 478 491 478 491 478 526 c 0,39,40
 478 563 478 563 463.5 589 c 128,-1,41
 449 615 449 615 418.5 629 c 128,-1,42
 388 643 388 643 338 643 c 2,43,-1
 230 643 l 1,44,-1
 230 67 l 1,45,-1
 349 67 l 2,46,47
 405 67 405 67 440 83 c 128,-1,48
 475 99 475 99 492 129.5 c 128,-1,49
 509 160 509 160 509 204 c 0,50,51
 509 241 509 241 493 271.5 c 128,-1,52
 477 302 477 302 442 320.5 c 128,-1,53
 407 339 407 339 349 339 c 2,54,-1
 207 339 l 1,55,-1
 207 405 l 1,34,-1
EndSplineSet
EndChar

StartChar: C
Encoding: 67 67 33
Width: 717
GlyphClass: 2
Flags: W
AnchorPoint: "Anchor-1" 379 0 basechar 0
AnchorPoint: "Anchor-0" 379 741 basechar 0
LayerCount: 2
Fore
SplineSet
380 650 m 0,0,1
 330 650 330 650 288.5 629 c 128,-1,2
 247 608 247 608 216.5 568.5 c 128,-1,3
 186 529 186 529 169.5 475 c 128,-1,4
 153 421 153 421 153 355 c 256,5,6
 153 289 153 289 169.5 235 c 128,-1,7
 186 181 186 181 216.5 142 c 128,-1,8
 247 103 247 103 292 81.5 c 128,-1,9
 337 60 337 60 394 60 c 0,10,11
 455 60 455 60 499.5 87 c 128,-1,12
 544 114 544 114 573 158 c 128,-1,13
 602 202 602 202 614 255 c 1,14,-1
 680 232 l 1,15,16
 663 161 663 161 623 106.5 c 128,-1,17
 583 52 583 52 523.5 21 c 128,-1,18
 464 -10 464 -10 389 -10 c 256,19,20
 314 -10 314 -10 251.5 16.5 c 128,-1,21
 189 43 189 43 142.5 91.5 c 128,-1,22
 96 140 96 140 71 207 c 128,-1,23
 46 274 46 274 46 355 c 0,24,25
 46 435 46 435 71.5 502 c 128,-1,26
 97 569 97 569 142.5 618 c 128,-1,27
 188 667 188 667 249 693.5 c 128,-1,28
 310 720 310 720 379 720 c 0,29,30
 445 720 445 720 493.5 699.5 c 128,-1,31
 542 679 542 679 573 641.5 c 128,-1,32
 604 604 604 604 617 553 c 1,33,-1
 586 556 l 1,34,-1
 603 710 l 1,35,-1
 666 710 l 1,36,-1
 666 496 l 1,37,-1
 594 496 l 1,38,39
 579 540 579 540 552 574.5 c 128,-1,40
 525 609 525 609 483 629.5 c 128,-1,41
 441 650 441 650 380 650 c 0,0,1
EndSplineSet
EndChar

StartChar: Ccaron
Encoding: 268 268 38
Width: 717
GlyphClass: 1
Flags: W
LayerCount: 2
Fore
SplineSet
335 758 m 1,0,-1
 425 758 l 1,1,-1
 533 893 l 1,2,-1
 533 905 l 1,3,-1
 486 905 l 1,4,-1
 367 811 l 1,5,-1
 404 811 l 1,6,-1
 284 905 l 1,7,-1
 227 905 l 1,8,-1
 227 893 l 1,9,-1
 335 758 l 1,0,-1
380 650 m 0,10,11
 330 650 330 650 288.5 629 c 128,-1,12
 247 608 247 608 216.5 568.5 c 128,-1,13
 186 529 186 529 169.5 475 c 128,-1,14
 153 421 153 421 153 355 c 256,15,16
 153 289 153 289 169.5 235 c 128,-1,17
 186 181 186 181 216.5 142 c 128,-1,18
 247 103 247 103 292 81.5 c 128,-1,19
 337 60 337 60 394 60 c 0,20,21
 455 60 455 60 499.5 87 c 128,-1,22
 544 114 544 114 573 158 c 128,-1,23
 602 202 602 202 614 255 c 1,24,-1
 680 232 l 1,25,26
 663 161 663 161 623 106.5 c 128,-1,27
 583 52 583 52 523.5 21 c 128,-1,28
 464 -10 464 -10 389 -10 c 256,29,30
 314 -10 314 -10 251.5 16.5 c 128,-1,31
 189 43 189 43 142.5 91.5 c 128,-1,32
 96 140 96 140 71 207 c 128,-1,33
 46 274 46 274 46 355 c 0,34,35
 46 435 46 435 71.5 502 c 128,-1,36
 97 569 97 569 142.5 618 c 128,-1,37
 188 667 188 667 249 693.5 c 128,-1,38
 310 720 310 720 379 720 c 0,39,40
 445 720 445 720 493.5 699.5 c 128,-1,41
 542 679 542 679 573 641.5 c 128,-1,42
 604 604 604 604 617 553 c 1,43,-1
 586 556 l 1,44,-1
 603 710 l 1,45,-1
 666 710 l 1,46,-1
 666 496 l 1,47,-1
 594 496 l 1,48,49
 579 540 579 540 552 574.5 c 128,-1,50
 525 609 525 609 483 629.5 c 128,-1,51
 441 650 441 650 380 650 c 0,10,11
EndSplineSet
EndChar

StartChar: D
Encoding: 68 68 40
Width: 769
GlyphClass: 2
Flags: W
AnchorPoint: "Anchor-1" 387 0 basechar 0
AnchorPoint: "Anchor-0" 387 741 basechar 0
LayerCount: 2
Fore
SplineSet
43 652 m 1,0,-1
 43 710 l 1,1,-1
 347 710 l 2,2,3
 431 710 431 710 499.5 685.5 c 128,-1,4
 568 661 568 661 618.5 615 c 128,-1,5
 669 569 669 569 696 503.5 c 128,-1,6
 723 438 723 438 723 357 c 256,7,8
 723 276 723 276 696 210.5 c 128,-1,9
 669 145 669 145 618.5 97.5 c 128,-1,10
 568 50 568 50 499.5 25 c 128,-1,11
 431 0 431 0 347 0 c 2,12,-1
 43 0 l 1,13,-1
 43 58 l 1,14,-1
 54 58 l 2,15,16
 84 58 84 58 107 65 c 128,-1,17
 130 72 130 72 130 94 c 2,18,-1
 130 616 l 2,19,20
 130 636 130 636 106.5 644 c 128,-1,21
 83 652 83 652 54 652 c 2,22,-1
 43 652 l 1,0,-1
347 641 m 2,23,-1
 230 641 l 1,24,-1
 230 69 l 1,25,-1
 347 69 l 2,26,27
 409 69 409 69 458.5 89 c 128,-1,28
 508 109 508 109 543.5 147 c 128,-1,29
 579 185 579 185 597.5 238 c 128,-1,30
 616 291 616 291 616 357 c 256,31,32
 616 423 616 423 597.5 475.5 c 128,-1,33
 579 528 579 528 543.5 565 c 128,-1,34
 508 602 508 602 458.5 621.5 c 128,-1,35
 409 641 409 641 347 641 c 2,23,-1
EndSplineSet
EndChar

StartChar: Dcaron
Encoding: 270 270 41
Width: 769
GlyphClass: 1
Flags: W
LayerCount: 2
Fore
SplineSet
335 758 m 1,0,-1
 425 758 l 1,1,-1
 533 893 l 1,2,-1
 533 905 l 1,3,-1
 486 905 l 1,4,-1
 367 811 l 1,5,-1
 404 811 l 1,6,-1
 284 905 l 1,7,-1
 227 905 l 1,8,-1
 227 893 l 1,9,-1
 335 758 l 1,0,-1
43 652 m 1,10,-1
 43 710 l 1,11,-1
 347 710 l 2,12,13
 431 710 431 710 499.5 685.5 c 128,-1,14
 568 661 568 661 618.5 615 c 128,-1,15
 669 569 669 569 696 503.5 c 128,-1,16
 723 438 723 438 723 357 c 256,17,18
 723 276 723 276 696 210.5 c 128,-1,19
 669 145 669 145 618.5 97.5 c 128,-1,20
 568 50 568 50 499.5 25 c 128,-1,21
 431 0 431 0 347 0 c 2,22,-1
 43 0 l 1,23,-1
 43 58 l 1,24,-1
 54 58 l 2,25,26
 84 58 84 58 107 65 c 128,-1,27
 130 72 130 72 130 94 c 2,28,-1
 130 616 l 2,29,30
 130 636 130 636 106.5 644 c 128,-1,31
 83 652 83 652 54 652 c 2,32,-1
 43 652 l 1,10,-1
347 641 m 2,33,-1
 230 641 l 1,34,-1
 230 69 l 1,35,-1
 347 69 l 2,36,37
 409 69 409 69 458.5 89 c 128,-1,38
 508 109 508 109 543.5 147 c 128,-1,39
 579 185 579 185 597.5 238 c 128,-1,40
 616 291 616 291 616 357 c 256,41,42
 616 423 616 423 597.5 475.5 c 128,-1,43
 579 528 579 528 543.5 565 c 128,-1,44
 508 602 508 602 458.5 621.5 c 128,-1,45
 409 641 409 641 347 641 c 2,33,-1
EndSplineSet
EndChar

StartChar: E
Encoding: 69 69 44
Width: 633
GlyphClass: 2
Flags: W
AnchorPoint: "Anchor-2" 437 0 basechar 0
AnchorPoint: "Anchor-1" 374 0 basechar 0
AnchorPoint: "Anchor-0" 365 741 basechar 0
LayerCount: 2
Fore
SplineSet
576 215 m 1,0,-1
 576 0 l 1,1,-1
 43 0 l 1,2,-1
 43 58 l 1,3,-1
 53 58 l 2,4,5
 83 58 83 58 106 65 c 128,-1,6
 129 72 129 72 129 94 c 2,7,-1
 129 616 l 2,8,9
 129 638 129 638 106 645 c 128,-1,10
 83 652 83 652 53 652 c 2,11,-1
 43 652 l 1,12,-1
 43 710 l 1,13,-1
 549 710 l 1,14,-1
 549 520 l 1,15,-1
 487 520 l 1,16,-1
 476 595 l 2,17,18
 473 614 473 614 459.5 624 c 128,-1,19
 446 634 446 634 419.5 637.5 c 128,-1,20
 393 641 393 641 350 641 c 2,21,-1
 229 641 l 1,22,-1
 229 69 l 1,23,-1
 377 69 l 2,24,25
 409 69 409 69 432.5 70.5 c 128,-1,26
 456 72 456 72 471 77.5 c 128,-1,27
 486 83 486 83 493.5 92 c 128,-1,28
 501 101 501 101 502 115 c 2,29,-1
 514 215 l 1,30,-1
 576 215 l 1,0,-1
204 395 m 1,31,32
 249 397 249 397 291 398 c 128,-1,33
 333 399 333 399 373 401 c 128,-1,34
 413 403 413 403 453 406 c 1,35,-1
 453 320 l 1,36,37
 413 324 413 324 373 326 c 128,-1,38
 333 328 333 328 291 329.5 c 128,-1,39
 249 331 249 331 204 332 c 1,40,-1
 204 395 l 1,31,32
EndSplineSet
Substitution2: "'ss01' Style Set 1 lookup 61 subtable" E.alt
EndChar

StartChar: Ecaron
Encoding: 282 282 53
Width: 633
GlyphClass: 1
Flags: W
LayerCount: 2
Fore
SplineSet
264 758 m 1,0,-1
 354 758 l 1,1,-1
 461 893 l 1,2,-1
 461 905 l 1,3,-1
 414 905 l 1,4,-1
 296 811 l 1,5,-1
 332 811 l 1,6,-1
 213 905 l 1,7,-1
 156 905 l 1,8,-1
 156 893 l 1,9,-1
 264 758 l 1,0,-1
576 215 m 1,10,-1
 576 0 l 1,11,-1
 43 0 l 1,12,-1
 43 58 l 1,13,-1
 53 58 l 2,14,15
 83 58 83 58 106 65 c 128,-1,16
 129 72 129 72 129 94 c 2,17,-1
 129 616 l 2,18,19
 129 638 129 638 106 645 c 128,-1,20
 83 652 83 652 53 652 c 2,21,-1
 43 652 l 1,22,-1
 43 710 l 1,23,-1
 549 710 l 1,24,-1
 549 520 l 1,25,-1
 487 520 l 1,26,-1
 476 595 l 2,27,28
 473 614 473 614 459.5 624 c 128,-1,29
 446 634 446 634 419.5 637.5 c 128,-1,30
 393 641 393 641 350 641 c 2,31,-1
 229 641 l 1,32,-1
 229 69 l 1,33,-1
 377 69 l 2,34,35
 409 69 409 69 432.5 70.5 c 128,-1,36
 456 72 456 72 471 77.5 c 128,-1,37
 486 83 486 83 493.5 92 c 128,-1,38
 501 101 501 101 502 115 c 2,39,-1
 514 215 l 1,40,-1
 576 215 l 1,10,-1
204 395 m 1,41,42
 249 397 249 397 291 398 c 128,-1,43
 333 399 333 399 373 401 c 128,-1,44
 413 403 413 403 453 406 c 1,45,-1
 453 320 l 1,46,47
 413 324 413 324 373 326 c 128,-1,48
 333 328 333 328 291 329.5 c 128,-1,49
 249 331 249 331 204 332 c 1,50,-1
 204 395 l 1,41,42
EndSplineSet
Substitution2: "'ss01' Style Set 1 lookup 61 subtable" Ecaron.alt
EndChar

StartChar: Edblgrave
Encoding: 516 516 54
Width: 633
GlyphClass: 1
Flags: W
LayerCount: 2
Fore
SplineSet
432 859 m 2,0,-1
 451 786 l 1,1,-1
 451 758 l 1,2,-1
 417 758 l 1,3,-1
 372 801 l 2,4,5
 351 820 351 820 341 836 c 128,-1,6
 331 852 331 852 331 871 c 256,7,8
 331 890 331 890 344 901 c 128,-1,9
 357 912 357 912 376 912 c 0,10,11
 390 912 390 912 400.5 906.5 c 128,-1,12
 411 901 411 901 419.5 889.5 c 128,-1,13
 428 878 428 878 432 859 c 2,0,-1
268 859 m 2,14,-1
 287 786 l 1,15,-1
 287 758 l 1,16,-1
 253 758 l 1,17,-1
 208 801 l 2,18,19
 187 820 187 820 177 836 c 128,-1,20
 167 852 167 852 167 871 c 256,21,22
 167 890 167 890 180 901 c 128,-1,23
 193 912 193 912 212 912 c 0,24,25
 226 912 226 912 236.5 906.5 c 128,-1,26
 247 901 247 901 255.5 889.5 c 128,-1,27
 264 878 264 878 268 859 c 2,14,-1
576 215 m 1,28,-1
 576 0 l 1,29,-1
 43 0 l 1,30,-1
 43 58 l 1,31,-1
 53 58 l 2,32,33
 83 58 83 58 106 65 c 128,-1,34
 129 72 129 72 129 94 c 2,35,-1
 129 616 l 2,36,37
 129 638 129 638 106 645 c 128,-1,38
 83 652 83 652 53 652 c 2,39,-1
 43 652 l 1,40,-1
 43 710 l 1,41,-1
 549 710 l 1,42,-1
 549 520 l 1,43,-1
 487 520 l 1,44,-1
 476 595 l 2,45,46
 473 614 473 614 459.5 624 c 128,-1,47
 446 634 446 634 419.5 637.5 c 128,-1,48
 393 641 393 641 350 641 c 2,49,-1
 229 641 l 1,50,-1
 229 69 l 1,51,-1
 377 69 l 2,52,53
 409 69 409 69 432.5 70.5 c 128,-1,54
 456 72 456 72 471 77.5 c 128,-1,55
 486 83 486 83 493.5 92 c 128,-1,56
 501 101 501 101 502 115 c 2,57,-1
 514 215 l 1,58,-1
 576 215 l 1,28,-1
204 395 m 1,59,60
 249 397 249 397 291 398 c 128,-1,61
 333 399 333 399 373 401 c 128,-1,62
 413 403 413 403 453 406 c 1,63,-1
 453 320 l 1,64,65
 413 324 413 324 373 326 c 128,-1,66
 333 328 333 328 291 329.5 c 128,-1,67
 249 331 249 331 204 332 c 1,68,-1
 204 395 l 1,59,60
EndSplineSet
Substitution2: "'ss01' Style Set 1 lookup 61 subtable" Edblgrave.alt
EndChar

StartChar: Einvertedbreve
Encoding: 518 518 55
Width: 633
GlyphClass: 1
Flags: W
LayerCount: 2
Fore
SplineSet
321 899 m 0,0,1
 277 899 277 899 245.5 883 c 128,-1,2
 214 867 214 867 195 836 c 128,-1,3
 176 805 176 805 172 759 c 1,4,-1
 234 759 l 1,5,6
 239 785 239 785 249.5 799.5 c 128,-1,7
 260 814 260 814 277 820 c 128,-1,8
 294 826 294 826 318 826 c 0,9,10
 341 826 341 826 358.5 820 c 128,-1,11
 376 814 376 814 387.5 799.5 c 128,-1,12
 399 785 399 785 404 759 c 1,13,-1
 471 759 l 1,14,15
 467 805 467 805 447 836 c 128,-1,16
 427 867 427 867 395 883 c 128,-1,17
 363 899 363 899 321 899 c 0,0,1
576 215 m 1,18,-1
 576 0 l 1,19,-1
 43 0 l 1,20,-1
 43 58 l 1,21,-1
 53 58 l 2,22,23
 83 58 83 58 106 65 c 128,-1,24
 129 72 129 72 129 94 c 2,25,-1
 129 616 l 2,26,27
 129 638 129 638 106 645 c 128,-1,28
 83 652 83 652 53 652 c 2,29,-1
 43 652 l 1,30,-1
 43 710 l 1,31,-1
 549 710 l 1,32,-1
 549 520 l 1,33,-1
 487 520 l 1,34,-1
 476 595 l 2,35,36
 473 614 473 614 459.5 624 c 128,-1,37
 446 634 446 634 419.5 637.5 c 128,-1,38
 393 641 393 641 350 641 c 2,39,-1
 229 641 l 1,40,-1
 229 69 l 1,41,-1
 377 69 l 2,42,43
 409 69 409 69 432.5 70.5 c 128,-1,44
 456 72 456 72 471 77.5 c 128,-1,45
 486 83 486 83 493.5 92 c 128,-1,46
 501 101 501 101 502 115 c 2,47,-1
 514 215 l 1,48,-1
 576 215 l 1,18,-1
204 395 m 1,49,50
 249 397 249 397 291 398 c 128,-1,51
 333 399 333 399 373 401 c 128,-1,52
 413 403 413 403 453 406 c 1,53,-1
 453 320 l 1,54,55
 413 324 413 324 373 326 c 128,-1,56
 333 328 333 328 291 329.5 c 128,-1,57
 249 331 249 331 204 332 c 1,58,-1
 204 395 l 1,49,50
EndSplineSet
Substitution2: "'ss01' Style Set 1 lookup 61 subtable" Einvertedbreve.alt
EndChar

StartChar: F
Encoding: 70 70 67
Width: 594
GlyphClass: 2
Flags: W
AnchorPoint: "Anchor-0" 312 741 basechar 0
LayerCount: 2
Fore
SplineSet
229 641 m 1,0,-1
 229 92 l 2,1,2
 229 80 229 80 237.5 73 c 128,-1,3
 246 66 246 66 259.5 63 c 128,-1,4
 273 60 273 60 289.5 59 c 128,-1,5
 306 58 306 58 322 58 c 2,6,-1
 339 58 l 1,7,-1
 339 0 l 1,8,-1
 43 0 l 1,9,-1
 43 58 l 1,10,-1
 53 58 l 2,11,12
 83 58 83 58 106 65 c 128,-1,13
 129 72 129 72 129 94 c 2,14,-1
 129 616 l 2,15,16
 129 638 129 638 106 645 c 128,-1,17
 83 652 83 652 53 652 c 2,18,-1
 43 652 l 1,19,-1
 43 710 l 1,20,-1
 552 710 l 1,21,-1
 552 520 l 1,22,-1
 490 520 l 1,23,-1
 480 595 l 2,24,25
 477 614 477 614 463.5 624 c 128,-1,26
 450 634 450 634 423.5 637.5 c 128,-1,27
 397 641 397 641 354 641 c 2,28,-1
 229 641 l 1,0,-1
204 389 m 1,29,30
 251 391 251 391 295.5 392 c 128,-1,31
 340 393 340 393 382.5 395.5 c 128,-1,32
 425 398 425 398 467 400 c 1,33,-1
 467 314 l 1,34,35
 425 318 425 318 382.5 320.5 c 128,-1,36
 340 323 340 323 295.5 324.5 c 128,-1,37
 251 326 251 326 204 327 c 1,38,-1
 204 389 l 1,29,30
EndSplineSet
Substitution2: "'ss01' Style Set 1 lookup 61 subtable" F.alt
EndChar

StartChar: G
Encoding: 71 71 68
Width: 771
GlyphClass: 2
Flags: W
AnchorPoint: "Anchor-1" 393 0 basechar 0
AnchorPoint: "Anchor-0" 393 741 basechar 0
LayerCount: 2
Fore
SplineSet
678 266 m 2,0,-1
 678 105 l 1,1,2
 664 87 664 87 637 66.5 c 128,-1,3
 610 46 610 46 573.5 29 c 128,-1,4
 537 12 537 12 494.5 1 c 128,-1,5
 452 -10 452 -10 405 -10 c 0,6,7
 324 -10 324 -10 258 16 c 128,-1,8
 192 42 192 42 144.5 90.5 c 128,-1,9
 97 139 97 139 71.5 206 c 128,-1,10
 46 273 46 273 46 355 c 0,11,12
 46 435 46 435 72.5 502 c 128,-1,13
 99 569 99 569 147 618 c 128,-1,14
 195 667 195 667 258 693.5 c 128,-1,15
 321 720 321 720 394 720 c 0,16,17
 459 720 459 720 505 700 c 128,-1,18
 551 680 551 680 582.5 643 c 128,-1,19
 614 606 614 606 630 556 c 1,20,-1
 597 562 l 1,21,-1
 614 710 l 1,22,-1
 676 710 l 1,23,-1
 676 499 l 1,24,-1
 610 499 l 1,25,26
 594 540 594 540 566.5 574.5 c 128,-1,27
 539 609 539 609 496.5 629.5 c 128,-1,28
 454 650 454 650 394 650 c 0,29,30
 342 650 342 650 298 629 c 128,-1,31
 254 608 254 608 221.5 568.5 c 128,-1,32
 189 529 189 529 171 475 c 128,-1,33
 153 421 153 421 153 355 c 0,34,35
 153 288 153 288 170.5 233.5 c 128,-1,36
 188 179 188 179 220.5 140 c 128,-1,37
 253 101 253 101 300 80.5 c 128,-1,38
 347 60 347 60 406 60 c 0,39,40
 454 60 454 60 489 72 c 128,-1,41
 524 84 524 84 547 99.5 c 128,-1,42
 570 115 570 115 581 125 c 1,43,-1
 581 266 l 2,44,45
 581 288 581 288 556.5 295 c 128,-1,46
 532 302 532 302 495 302 c 2,47,-1
 485 302 l 1,48,-1
 485 359 l 1,49,-1
 754 359 l 1,50,-1
 754 302 l 1,51,-1
 750 302 l 2,52,53
 721 302 721 302 699.5 295 c 128,-1,54
 678 288 678 288 678 266 c 2,0,-1
EndSplineSet
EndChar

StartChar: Gcaron
Encoding: 486 486 73
Width: 771
GlyphClass: 1
Flags: W
LayerCount: 2
Fore
SplineSet
352 758 m 1,0,-1
 442 758 l 1,1,-1
 550 893 l 1,2,-1
 550 905 l 1,3,-1
 503 905 l 1,4,-1
 384 811 l 1,5,-1
 421 811 l 1,6,-1
 301 905 l 1,7,-1
 244 905 l 1,8,-1
 244 893 l 1,9,-1
 352 758 l 1,0,-1
678 266 m 2,10,-1
 678 105 l 1,11,12
 664 87 664 87 637 66.5 c 128,-1,13
 610 46 610 46 573.5 29 c 128,-1,14
 537 12 537 12 494.5 1 c 128,-1,15
 452 -10 452 -10 405 -10 c 0,16,17
 324 -10 324 -10 258 16 c 128,-1,18
 192 42 192 42 144.5 90.5 c 128,-1,19
 97 139 97 139 71.5 206 c 128,-1,20
 46 273 46 273 46 355 c 0,21,22
 46 435 46 435 72.5 502 c 128,-1,23
 99 569 99 569 147 618 c 128,-1,24
 195 667 195 667 258 693.5 c 128,-1,25
 321 720 321 720 394 720 c 0,26,27
 459 720 459 720 505 700 c 128,-1,28
 551 680 551 680 582.5 643 c 128,-1,29
 614 606 614 606 630 556 c 1,30,-1
 597 562 l 1,31,-1
 614 710 l 1,32,-1
 676 710 l 1,33,-1
 676 499 l 1,34,-1
 610 499 l 1,35,36
 594 540 594 540 566.5 574.5 c 128,-1,37
 539 609 539 609 496.5 629.5 c 128,-1,38
 454 650 454 650 394 650 c 0,39,40
 342 650 342 650 298 629 c 128,-1,41
 254 608 254 608 221.5 568.5 c 128,-1,42
 189 529 189 529 171 475 c 128,-1,43
 153 421 153 421 153 355 c 0,44,45
 153 288 153 288 170.5 233.5 c 128,-1,46
 188 179 188 179 220.5 140 c 128,-1,47
 253 101 253 101 300 80.5 c 128,-1,48
 347 60 347 60 406 60 c 0,49,50
 454 60 454 60 489 72 c 128,-1,51
 524 84 524 84 547 99.5 c 128,-1,52
 570 115 570 115 581 125 c 1,53,-1
 581 266 l 2,54,55
 581 288 581 288 556.5 295 c 128,-1,56
 532 302 532 302 495 302 c 2,57,-1
 485 302 l 1,58,-1
 485 359 l 1,59,-1
 754 359 l 1,60,-1
 754 302 l 1,61,-1
 750 302 l 2,62,63
 721 302 721 302 699.5 295 c 128,-1,64
 678 288 678 288 678 266 c 2,10,-1
EndSplineSet
EndChar

StartChar: H
Encoding: 72 72 75
Width: 824
GlyphClass: 2
Flags: W
AnchorPoint: "Anchor-1" 412 0 basechar 0
AnchorPoint: "Anchor-0" 412 741 basechar 0
LayerCount: 2
Fore
SplineSet
198 400 m 1,0,-1
 626 400 l 1,1,-1
 626 332 l 1,2,-1
 198 332 l 1,3,-1
 198 400 l 1,0,-1
43 0 m 1,4,-1
 43 58 l 1,5,-1
 53 58 l 2,6,7
 83 58 83 58 106 65 c 128,-1,8
 129 72 129 72 129 94 c 2,9,-1
 129 616 l 2,10,11
 129 638 129 638 106 645 c 128,-1,12
 83 652 83 652 53 652 c 2,13,-1
 43 652 l 1,14,-1
 43 710 l 1,15,-1
 323 710 l 1,16,-1
 323 652 l 1,17,-1
 314 652 l 2,18,19
 301 652 301 652 286 651.5 c 128,-1,20
 271 651 271 651 258 649.5 c 128,-1,21
 245 648 245 648 237.5 646.5 c 128,-1,22
 230 645 230 645 230 642 c 2,23,-1
 230 68 l 2,24,25
 230 65 230 65 237.5 63.5 c 128,-1,26
 245 62 245 62 258 60.5 c 128,-1,27
 271 59 271 59 286 58.5 c 128,-1,28
 301 58 301 58 315 58 c 2,29,-1
 323 58 l 1,30,-1
 323 0 l 1,31,-1
 43 0 l 1,4,-1
500 0 m 1,32,-1
 500 58 l 1,33,-1
 509 58 l 2,34,35
 523 58 523 58 538 58.5 c 128,-1,36
 553 59 553 59 565.5 60.5 c 128,-1,37
 578 62 578 62 586 63.5 c 128,-1,38
 594 65 594 65 594 68 c 2,39,-1
 594 642 l 2,40,41
 594 645 594 645 586 646.5 c 128,-1,42
 578 648 578 648 565.5 649.5 c 128,-1,43
 553 651 553 651 538 651.5 c 128,-1,44
 523 652 523 652 509 652 c 2,45,-1
 500 652 l 1,46,-1
 500 710 l 1,47,-1
 781 710 l 1,48,-1
 781 652 l 1,49,-1
 771 652 l 2,50,51
 741 652 741 652 717.5 645 c 128,-1,52
 694 638 694 638 694 616 c 2,53,-1
 694 94 l 2,54,55
 694 72 694 72 717.5 65 c 128,-1,56
 741 58 741 58 771 58 c 2,57,-1
 781 58 l 1,58,-1
 781 0 l 1,59,-1
 500 0 l 1,32,-1
EndSplineSet
EndChar

StartChar: I
Encoding: 73 73 79
Width: 366
GlyphClass: 2
Flags: W
AnchorPoint: "Anchor-2" 241 0 basechar 0
AnchorPoint: "Anchor-1" 184 0 basechar 0
AnchorPoint: "Anchor-0" 184 741 basechar 0
LayerCount: 2
Fore
SplineSet
133 94 m 2,0,-1
 133 616 l 2,1,2
 133 638 133 638 109.5 645 c 128,-1,3
 86 652 86 652 53 652 c 2,4,-1
 43 652 l 1,5,-1
 43 710 l 1,6,-1
 323 710 l 1,7,-1
 323 652 l 1,8,-1
 314 652 l 2,9,10
 281 652 281 652 257 645 c 128,-1,11
 233 638 233 638 233 616 c 2,12,-1
 233 94 l 2,13,14
 233 72 233 72 257 65 c 128,-1,15
 281 58 281 58 314 58 c 2,16,-1
 323 58 l 1,17,-1
 323 0 l 1,18,-1
 43 0 l 1,19,-1
 43 58 l 1,20,-1
 53 58 l 2,21,22
 86 58 86 58 109.5 65 c 128,-1,23
 133 72 133 72 133 94 c 2,0,-1
EndSplineSet
EndChar

StartChar: Icaron
Encoding: 463 463 89
Width: 366
GlyphClass: 1
Flags: W
LayerCount: 2
Fore
SplineSet
138 758 m 1,0,-1
 228 758 l 1,1,-1
 335 893 l 1,2,-1
 335 905 l 1,3,-1
 288 905 l 1,4,-1
 170 811 l 1,5,-1
 206 811 l 1,6,-1
 87 905 l 1,7,-1
 30 905 l 1,8,-1
 30 893 l 1,9,-1
 138 758 l 1,0,-1
133 94 m 2,10,-1
 133 616 l 2,11,12
 133 638 133 638 109.5 645 c 128,-1,13
 86 652 86 652 53 652 c 2,14,-1
 43 652 l 1,15,-1
 43 710 l 1,16,-1
 323 710 l 1,17,-1
 323 652 l 1,18,-1
 314 652 l 2,19,20
 281 652 281 652 257 645 c 128,-1,21
 233 638 233 638 233 616 c 2,22,-1
 233 94 l 2,23,24
 233 72 233 72 257 65 c 128,-1,25
 281 58 281 58 314 58 c 2,26,-1
 323 58 l 1,27,-1
 323 0 l 1,28,-1
 43 0 l 1,29,-1
 43 58 l 1,30,-1
 53 58 l 2,31,32
 86 58 86 58 109.5 65 c 128,-1,33
 133 72 133 72 133 94 c 2,10,-1
EndSplineSet
EndChar

StartChar: Idblgrave
Encoding: 520 520 90
Width: 366
GlyphClass: 1
Flags: W
LayerCount: 2
Fore
SplineSet
283 859 m 2,0,-1
 302 786 l 1,1,-1
 302 758 l 1,2,-1
 268 758 l 1,3,-1
 223 801 l 2,4,5
 203 820 203 820 192.5 836 c 128,-1,6
 182 852 182 852 182 871 c 256,7,8
 182 890 182 890 195 901 c 128,-1,9
 208 912 208 912 227 912 c 0,10,11
 241 912 241 912 251.5 906.5 c 128,-1,12
 262 901 262 901 270.5 889.5 c 128,-1,13
 279 878 279 878 283 859 c 2,0,-1
119 859 m 2,14,-1
 138 786 l 1,15,-1
 138 758 l 1,16,-1
 104 758 l 1,17,-1
 59 801 l 2,18,19
 39 820 39 820 28.5 836 c 128,-1,20
 18 852 18 852 18 871 c 256,21,22
 18 890 18 890 31 901 c 128,-1,23
 44 912 44 912 63 912 c 0,24,25
 77 912 77 912 87.5 906.5 c 128,-1,26
 98 901 98 901 106.5 889.5 c 128,-1,27
 115 878 115 878 119 859 c 2,14,-1
133 94 m 2,28,-1
 133 616 l 2,29,30
 133 638 133 638 109.5 645 c 128,-1,31
 86 652 86 652 53 652 c 2,32,-1
 43 652 l 1,33,-1
 43 710 l 1,34,-1
 323 710 l 1,35,-1
 323 652 l 1,36,-1
 314 652 l 2,37,38
 281 652 281 652 257 645 c 128,-1,39
 233 638 233 638 233 616 c 2,40,-1
 233 94 l 2,41,42
 233 72 233 72 257 65 c 128,-1,43
 281 58 281 58 314 58 c 2,44,-1
 323 58 l 1,45,-1
 323 0 l 1,46,-1
 43 0 l 1,47,-1
 43 58 l 1,48,-1
 53 58 l 2,49,50
 86 58 86 58 109.5 65 c 128,-1,51
 133 72 133 72 133 94 c 2,28,-1
EndSplineSet
EndChar

StartChar: Iinvertedbreve
Encoding: 522 522 91
Width: 366
GlyphClass: 1
Flags: W
LayerCount: 2
Fore
SplineSet
183 899 m 0,0,1
 140 899 140 899 107.5 883 c 128,-1,2
 75 867 75 867 56.5 836 c 128,-1,3
 38 805 38 805 34 759 c 1,4,-1
 95 759 l 1,5,6
 101 785 101 785 111.5 799.5 c 128,-1,7
 122 814 122 814 139 820 c 128,-1,8
 156 826 156 826 180 826 c 0,9,10
 203 826 203 826 220.5 820 c 128,-1,11
 238 814 238 814 249.5 799.5 c 128,-1,12
 261 785 261 785 266 759 c 1,13,-1
 333 759 l 1,14,15
 329 805 329 805 309 836 c 128,-1,16
 289 867 289 867 256.5 883 c 128,-1,17
 224 899 224 899 183 899 c 0,0,1
133 94 m 2,18,-1
 133 616 l 2,19,20
 133 638 133 638 109.5 645 c 128,-1,21
 86 652 86 652 53 652 c 2,22,-1
 43 652 l 1,23,-1
 43 710 l 1,24,-1
 323 710 l 1,25,-1
 323 652 l 1,26,-1
 314 652 l 2,27,28
 281 652 281 652 257 645 c 128,-1,29
 233 638 233 638 233 616 c 2,30,-1
 233 94 l 2,31,32
 233 72 233 72 257 65 c 128,-1,33
 281 58 281 58 314 58 c 2,34,-1
 323 58 l 1,35,-1
 323 0 l 1,36,-1
 43 0 l 1,37,-1
 43 58 l 1,38,-1
 53 58 l 2,39,40
 86 58 86 58 109.5 65 c 128,-1,41
 133 72 133 72 133 94 c 2,18,-1
EndSplineSet
EndChar

StartChar: J
Encoding: 74 74 94
Width: 567
GlyphClass: 2
Flags: W
AnchorPoint: "Anchor-0" 382 741 basechar 0
LayerCount: 2
Fore
SplineSet
237 710 m 1,0,-1
 527 710 l 1,1,-1
 527 652 l 1,2,-1
 517 652 l 2,3,4
 486 652 486 652 462.5 645 c 128,-1,5
 439 638 439 638 439 616 c 2,6,-1
 439 242 l 2,7,8
 439 171 439 171 422.5 122.5 c 128,-1,9
 406 74 406 74 376 45 c 128,-1,10
 346 16 346 16 305 3 c 128,-1,11
 264 -10 264 -10 214 -10 c 0,12,13
 173 -10 173 -10 138.5 0 c 128,-1,14
 104 10 104 10 78 26 c 128,-1,15
 52 42 52 42 35 60 c 1,16,-1
 35 163 l 1,17,-1
 139 163 l 1,18,-1
 139 54 l 1,19,20
 121 59 121 59 108.5 69.5 c 128,-1,21
 96 80 96 80 91 91 c 128,-1,22
 86 102 86 102 89.5 109 c 128,-1,23
 93 116 93 116 107 114 c 1,24,25
 115 99 115 99 130 86.5 c 128,-1,26
 145 74 145 74 166 66.5 c 128,-1,27
 187 59 187 59 214 59 c 0,28,29
 254 59 254 59 282.5 75.5 c 128,-1,30
 311 92 311 92 326 131.5 c 128,-1,31
 341 171 341 171 341 242 c 2,32,-1
 341 616 l 2,33,34
 341 631 341 631 329.5 638.5 c 128,-1,35
 318 646 318 646 299.5 649 c 128,-1,36
 281 652 281 652 257 652 c 2,37,-1
 237 652 l 1,38,-1
 237 710 l 1,0,-1
EndSplineSet
EndChar

StartChar: K
Encoding: 75 75 96
Width: 724
GlyphClass: 2
Flags: W
AnchorPoint: "Anchor-1" 373 0 basechar 0
AnchorPoint: "Anchor-0" 373 741 basechar 0
LayerCount: 2
Fore
SplineSet
43 0 m 1,0,-1
 43 58 l 1,1,-1
 53 58 l 2,2,3
 83 58 83 58 106 65 c 128,-1,4
 129 72 129 72 129 94 c 2,5,-1
 129 616 l 2,6,7
 129 638 129 638 106 645 c 128,-1,8
 83 652 83 652 53 652 c 2,9,-1
 43 652 l 1,10,-1
 43 710 l 1,11,-1
 323 710 l 1,12,-1
 323 652 l 1,13,-1
 314 652 l 2,14,15
 301 652 301 652 286 651.5 c 128,-1,16
 271 651 271 651 258 649.5 c 128,-1,17
 245 648 245 648 237.5 646.5 c 128,-1,18
 230 645 230 645 230 642 c 2,19,-1
 230 68 l 2,20,21
 230 65 230 65 237.5 63.5 c 128,-1,22
 245 62 245 62 258 60.5 c 128,-1,23
 271 59 271 59 286 58.5 c 128,-1,24
 301 58 301 58 315 58 c 2,25,-1
 323 58 l 1,26,-1
 323 0 l 1,27,-1
 43 0 l 1,0,-1
422 0 m 1,28,-1
 422 58 l 1,29,-1
 432 58 l 2,30,31
 449 58 449 58 467.5 59 c 128,-1,32
 486 60 486 60 498.5 62.5 c 128,-1,33
 511 65 511 65 511 68 c 2,34,-1
 262 348 l 1,35,-1
 262 364 l 1,36,-1
 524 641 l 2,37,38
 523 645 523 645 511.5 647 c 128,-1,39
 500 649 500 649 484 650.5 c 128,-1,40
 468 652 468 652 452 652 c 2,41,-1
 442 652 l 1,42,-1
 442 710 l 1,43,-1
 678 710 l 1,44,-1
 678 652 l 1,45,-1
 664 652 l 2,46,47
 650 652 650 652 638 649 c 128,-1,48
 626 646 626 646 615.5 639 c 128,-1,49
 605 632 605 632 593 620 c 2,50,-1
 345 361 l 1,51,-1
 338 405 l 1,52,-1
 618 92 l 2,53,54
 631 78 631 78 642 70.5 c 128,-1,55
 653 63 653 63 666.5 60.5 c 128,-1,56
 680 58 680 58 699 58 c 2,57,-1
 709 58 l 1,58,-1
 709 0 l 1,59,-1
 422 0 l 1,28,-1
EndSplineSet
EndChar

StartChar: L
Encoding: 76 76 98
Width: 610
GlyphClass: 2
Flags: W
AnchorPoint: "Anchor-2" 464 710 basechar 0
AnchorPoint: "Anchor-1" 373 0 basechar 0
AnchorPoint: "Anchor-0" 373 741 basechar 0
LayerCount: 2
Fore
SplineSet
327 710 m 1,0,-1
 43 710 l 1,1,-1
 43 652 l 1,2,-1
 53 652 l 2,3,4
 83 652 83 652 106 645 c 128,-1,5
 129 638 129 638 129 616 c 2,6,-1
 129 94 l 2,7,8
 129 72 129 72 106 65 c 128,-1,9
 83 58 83 58 53 58 c 2,10,-1
 43 58 l 1,11,-1
 43 0 l 1,12,-1
 567 0 l 1,13,-1
 567 224 l 1,14,-1
 502 224 l 1,15,-1
 491 115 l 2,16,17
 489 96 489 96 475.5 86 c 128,-1,18
 462 76 462 76 435 72.5 c 128,-1,19
 408 69 408 69 365 69 c 2,20,-1
 230 69 l 1,21,-1
 230 622 l 2,22,23
 230 640 230 640 255 646 c 128,-1,24
 280 652 280 652 316 652 c 2,25,-1
 327 652 l 1,26,-1
 327 710 l 1,0,-1
EndSplineSet
EndChar

StartChar: M
Encoding: 77 77 104
Width: 941
GlyphClass: 2
Flags: W
AnchorPoint: "Anchor-1" 459 0 basechar 0
LayerCount: 2
Fore
SplineSet
43 0 m 1,0,-1
 43 58 l 1,1,-1
 54 58 l 2,2,3
 74 58 74 58 91.5 62 c 128,-1,4
 109 66 109 66 119.5 75 c 128,-1,5
 130 84 130 84 130 100 c 2,6,-1
 130 616 l 2,7,8
 130 631 130 631 119.5 638.5 c 128,-1,9
 109 646 109 646 91.5 649 c 128,-1,10
 74 652 74 652 54 652 c 2,11,-1
 43 652 l 1,12,-1
 43 710 l 1,13,-1
 283 710 l 1,14,-1
 485 96 l 1,15,-1
 443 84 l 1,16,-1
 660 710 l 1,17,-1
 898 710 l 1,18,-1
 898 652 l 1,19,-1
 888 652 l 2,20,21
 859 652 859 652 834 645 c 128,-1,22
 809 638 809 638 809 616 c 2,23,-1
 809 94 l 2,24,25
 809 72 809 72 833.5 65 c 128,-1,26
 858 58 858 58 888 58 c 2,27,-1
 898 58 l 1,28,-1
 898 0 l 1,29,-1
 625 0 l 1,30,-1
 625 58 l 1,31,-1
 634 58 l 2,32,33
 653 58 653 58 670 59 c 128,-1,34
 687 60 687 60 698 62.5 c 128,-1,35
 709 65 709 65 709 68 c 2,36,-1
 709 693 l 1,37,-1
 729 691 l 1,38,-1
 484 -2 l 1,39,-1
 424 -2 l 1,40,-1
 186 691 l 1,41,-1
 205 682 l 1,42,-1
 205 74 l 2,43,44
 205 68 205 68 217 64.5 c 128,-1,45
 229 61 229 61 246 59.5 c 128,-1,46
 263 58 263 58 277 58 c 2,47,-1
 283 58 l 1,48,-1
 283 0 l 1,49,-1
 43 0 l 1,0,-1
EndSplineSet
EndChar

StartChar: N
Encoding: 78 78 106
Width: 788
GlyphClass: 2
Flags: W
AnchorPoint: "Anchor-1" 403 0 basechar 0
AnchorPoint: "Anchor-0" 403 741 basechar 0
LayerCount: 2
Fore
SplineSet
43 0 m 1,0,-1
 43 58 l 1,1,-1
 54 58 l 2,2,3
 74 58 74 58 91 62.5 c 128,-1,4
 108 67 108 67 118.5 77.5 c 128,-1,5
 129 88 129 88 129 104 c 2,6,-1
 129 616 l 2,7,8
 129 631 129 631 118.5 638.5 c 128,-1,9
 108 646 108 646 91 649 c 128,-1,10
 74 652 74 652 54 652 c 2,11,-1
 43 652 l 1,12,-1
 43 710 l 1,13,-1
 261 710 l 1,14,-1
 622 92 l 1,15,-1
 591 89 l 1,16,-1
 591 633 l 2,17,18
 591 639 591 639 578.5 643 c 128,-1,19
 566 647 566 647 548 649.5 c 128,-1,20
 530 652 530 652 512 652 c 2,21,-1
 495 652 l 1,22,-1
 495 710 l 1,23,-1
 753 710 l 1,24,-1
 753 652 l 1,25,-1
 741 652 l 2,26,27
 722 652 722 652 704.5 647.5 c 128,-1,28
 687 643 687 643 676.5 632.5 c 128,-1,29
 666 622 666 622 666 606 c 2,30,-1
 666 0 l 1,31,-1
 571 0 l 1,32,-1
 174 675 l 1,33,-1
 204 679 l 1,34,-1
 204 77 l 2,35,36
 204 72 204 72 216.5 67.5 c 128,-1,37
 229 63 229 63 248 60.5 c 128,-1,38
 267 58 267 58 284 58 c 2,39,-1
 301 58 l 1,40,-1
 301 0 l 1,41,-1
 43 0 l 1,0,-1
EndSplineSet
EndChar

StartChar: Ncaron
Encoding: 327 327 110
Width: 788
GlyphClass: 1
Flags: W
LayerCount: 2
Fore
SplineSet
352 758 m 1,0,-1
 442 758 l 1,1,-1
 549 893 l 1,2,-1
 549 905 l 1,3,-1
 502 905 l 1,4,-1
 384 811 l 1,5,-1
 420 811 l 1,6,-1
 301 905 l 1,7,-1
 244 905 l 1,8,-1
 244 893 l 1,9,-1
 352 758 l 1,0,-1
43 0 m 1,10,-1
 43 58 l 1,11,-1
 54 58 l 2,12,13
 74 58 74 58 91 62.5 c 128,-1,14
 108 67 108 67 118.5 77.5 c 128,-1,15
 129 88 129 88 129 104 c 2,16,-1
 129 616 l 2,17,18
 129 631 129 631 118.5 638.5 c 128,-1,19
 108 646 108 646 91 649 c 128,-1,20
 74 652 74 652 54 652 c 2,21,-1
 43 652 l 1,22,-1
 43 710 l 1,23,-1
 261 710 l 1,24,-1
 622 92 l 1,25,-1
 591 89 l 1,26,-1
 591 633 l 2,27,28
 591 639 591 639 578.5 643 c 128,-1,29
 566 647 566 647 548 649.5 c 128,-1,30
 530 652 530 652 512 652 c 2,31,-1
 495 652 l 1,32,-1
 495 710 l 1,33,-1
 753 710 l 1,34,-1
 753 652 l 1,35,-1
 741 652 l 2,36,37
 722 652 722 652 704.5 647.5 c 128,-1,38
 687 643 687 643 676.5 632.5 c 128,-1,39
 666 622 666 622 666 606 c 2,40,-1
 666 0 l 1,41,-1
 571 0 l 1,42,-1
 174 675 l 1,43,-1
 204 679 l 1,44,-1
 204 77 l 2,45,46
 204 72 204 72 216.5 67.5 c 128,-1,47
 229 63 229 63 248 60.5 c 128,-1,48
 267 58 267 58 284 58 c 2,49,-1
 301 58 l 1,50,-1
 301 0 l 1,51,-1
 43 0 l 1,10,-1
EndSplineSet
EndChar

StartChar: O
Encoding: 79 79 114
Width: 792
GlyphClass: 2
Flags: W
AnchorPoint: "Anchor-2" 436 0 basechar 0
AnchorPoint: "Anchor-1" 396 0 basechar 0
AnchorPoint: "Anchor-0" 396 741 basechar 0
LayerCount: 2
Fore
SplineSet
396 -10 m 0,0,1
 322 -10 322 -10 258.5 16.5 c 128,-1,2
 195 43 195 43 147 91.5 c 128,-1,3
 99 140 99 140 72.5 207 c 128,-1,4
 46 274 46 274 46 355 c 256,5,6
 46 436 46 436 72.5 503 c 128,-1,7
 99 570 99 570 147 618.5 c 128,-1,8
 195 667 195 667 258.5 693.5 c 128,-1,9
 322 720 322 720 396 720 c 0,10,11
 469 720 469 720 532.5 693.5 c 128,-1,12
 596 667 596 667 644 618.5 c 128,-1,13
 692 570 692 570 719 503 c 128,-1,14
 746 436 746 436 746 355 c 256,15,16
 746 274 746 274 719 207 c 128,-1,17
 692 140 692 140 644 91.5 c 128,-1,18
 596 43 596 43 532.5 16.5 c 128,-1,19
 469 -10 469 -10 396 -10 c 0,0,1
396 60 m 256,20,21
 449 60 449 60 493 80.5 c 128,-1,22
 537 101 537 101 570 140 c 128,-1,23
 603 179 603 179 620.5 233.5 c 128,-1,24
 638 288 638 288 638 355 c 256,25,26
 638 422 638 422 620.5 476.5 c 128,-1,27
 603 531 603 531 570 570 c 128,-1,28
 537 609 537 609 493 629.5 c 128,-1,29
 449 650 449 650 396 650 c 256,30,31
 343 650 343 650 298.5 629.5 c 128,-1,32
 254 609 254 609 221.5 570 c 128,-1,33
 189 531 189 531 171 476.5 c 128,-1,34
 153 422 153 422 153 355 c 256,35,36
 153 288 153 288 171 233.5 c 128,-1,37
 189 179 189 179 221.5 140 c 128,-1,38
 254 101 254 101 298.5 80.5 c 128,-1,39
 343 60 343 60 396 60 c 256,20,21
EndSplineSet
EndChar

StartChar: Ohorn
Encoding: 416 416 123
Width: 796
GlyphClass: 2
Flags: W
AnchorPoint: "Anchor-1" 395 -35 basechar 0
AnchorPoint: "Anchor-0" 395 742 basechar 0
LayerCount: 2
Fore
SplineSet
395 60 m 256,0,1
 449 60 449 60 494 80 c 128,-1,2
 539 100 539 100 571.5 138.5 c 128,-1,3
 604 177 604 177 621.5 232 c 128,-1,4
 639 287 639 287 639 355 c 256,5,6
 639 423 639 423 621.5 478 c 128,-1,7
 604 533 604 533 571.5 571.5 c 128,-1,8
 539 610 539 610 494 630 c 128,-1,9
 449 650 449 650 395 650 c 256,10,11
 341 650 341 650 296 630 c 128,-1,12
 251 610 251 610 219 571.5 c 128,-1,13
 187 533 187 533 169.5 478 c 128,-1,14
 152 423 152 423 152 355 c 256,15,16
 152 287 152 287 169.5 232 c 128,-1,17
 187 177 187 177 219 138.5 c 128,-1,18
 251 100 251 100 296 80 c 128,-1,19
 341 60 341 60 395 60 c 256,0,1
566 654 m 1,20,-1
 549 667 l 1,21,22
 593 649 593 649 629 618.5 c 128,-1,23
 665 588 665 588 691 548.5 c 128,-1,24
 717 509 717 509 731 460 c 128,-1,25
 745 411 745 411 745 355 c 0,26,27
 745 274 745 274 718.5 207 c 128,-1,28
 692 140 692 140 644 91.5 c 128,-1,29
 596 43 596 43 532.5 16.5 c 128,-1,30
 469 -10 469 -10 395 -10 c 0,31,32
 322 -10 322 -10 258.5 16.5 c 128,-1,33
 195 43 195 43 147 91.5 c 128,-1,34
 99 140 99 140 72.5 207 c 128,-1,35
 46 274 46 274 46 355 c 256,36,37
 46 436 46 436 72.5 503 c 128,-1,38
 99 570 99 570 147 618.5 c 128,-1,39
 195 667 195 667 258.5 693.5 c 128,-1,40
 322 720 322 720 395 720 c 0,41,42
 421 720 421 720 442.5 718 c 128,-1,43
 464 716 464 716 482.5 713.5 c 128,-1,44
 501 711 501 711 518.5 709 c 128,-1,45
 536 707 536 707 554 707 c 0,46,47
 587 707 587 707 610.5 718.5 c 128,-1,48
 634 730 634 730 650 751.5 c 128,-1,49
 666 773 666 773 675 802.5 c 128,-1,50
 684 832 684 832 688 868 c 1,51,-1
 778 868 l 1,52,53
 773 814 773 814 757 774 c 128,-1,54
 741 734 741 734 716 706.5 c 128,-1,55
 691 679 691 679 660 665.5 c 128,-1,56
 629 652 629 652 594 652 c 0,57,58
 588 652 588 652 581 652.5 c 128,-1,59
 574 653 574 653 568 654 c 128,-1,60
 562 655 562 655 556 656 c 128,-1,61
 550 657 550 657 544 659 c 1,62,-1
 566 668 l 1,63,-1
 566 654 l 1,20,-1
EndSplineSet
EndChar

StartChar: Ocaron
Encoding: 465 465 124
Width: 792
GlyphClass: 1
Flags: W
LayerCount: 2
Fore
SplineSet
351 758 m 1,0,-1
 441 758 l 1,1,-1
 548 893 l 1,2,-1
 548 905 l 1,3,-1
 501 905 l 1,4,-1
 383 811 l 1,5,-1
 419 811 l 1,6,-1
 300 905 l 1,7,-1
 243 905 l 1,8,-1
 243 893 l 1,9,-1
 351 758 l 1,0,-1
396 -10 m 0,10,11
 322 -10 322 -10 258.5 16.5 c 128,-1,12
 195 43 195 43 147 91.5 c 128,-1,13
 99 140 99 140 72.5 207 c 128,-1,14
 46 274 46 274 46 355 c 256,15,16
 46 436 46 436 72.5 503 c 128,-1,17
 99 570 99 570 147 618.5 c 128,-1,18
 195 667 195 667 258.5 693.5 c 128,-1,19
 322 720 322 720 396 720 c 0,20,21
 469 720 469 720 532.5 693.5 c 128,-1,22
 596 667 596 667 644 618.5 c 128,-1,23
 692 570 692 570 719 503 c 128,-1,24
 746 436 746 436 746 355 c 256,25,26
 746 274 746 274 719 207 c 128,-1,27
 692 140 692 140 644 91.5 c 128,-1,28
 596 43 596 43 532.5 16.5 c 128,-1,29
 469 -10 469 -10 396 -10 c 0,10,11
396 60 m 256,30,31
 449 60 449 60 493 80.5 c 128,-1,32
 537 101 537 101 570 140 c 128,-1,33
 603 179 603 179 620.5 233.5 c 128,-1,34
 638 288 638 288 638 355 c 256,35,36
 638 422 638 422 620.5 476.5 c 128,-1,37
 603 531 603 531 570 570 c 128,-1,38
 537 609 537 609 493 629.5 c 128,-1,39
 449 650 449 650 396 650 c 256,40,41
 343 650 343 650 298.5 629.5 c 128,-1,42
 254 609 254 609 221.5 570 c 128,-1,43
 189 531 189 531 171 476.5 c 128,-1,44
 153 422 153 422 153 355 c 256,45,46
 153 288 153 288 171 233.5 c 128,-1,47
 189 179 189 179 221.5 140 c 128,-1,48
 254 101 254 101 298.5 80.5 c 128,-1,49
 343 60 343 60 396 60 c 256,30,31
EndSplineSet
EndChar

StartChar: Oogonek
Encoding: 490 490 125
Width: 792
GlyphClass: 1
Flags: W
LayerCount: 2
Fore
SplineSet
396 60 m 256,0,1
 450 60 450 60 494.5 80 c 128,-1,2
 539 100 539 100 571 138.5 c 128,-1,3
 603 177 603 177 620.5 232 c 128,-1,4
 638 287 638 287 638 355 c 256,5,6
 638 423 638 423 620.5 478 c 128,-1,7
 603 533 603 533 571 571.5 c 128,-1,8
 539 610 539 610 494.5 630 c 128,-1,9
 450 650 450 650 396 650 c 256,10,11
 342 650 342 650 297.5 630 c 128,-1,12
 253 610 253 610 221 571.5 c 128,-1,13
 189 533 189 533 171 478 c 128,-1,14
 153 423 153 423 153 355 c 256,15,16
 153 287 153 287 171 232 c 128,-1,17
 189 177 189 177 221.5 138.5 c 128,-1,18
 254 100 254 100 298 80 c 128,-1,19
 342 60 342 60 396 60 c 256,0,1
618 71 m 0,20,21
 591 49 591 49 563 27.5 c 128,-1,22
 535 6 535 6 509.5 -14.5 c 128,-1,23
 484 -35 484 -35 464.5 -55 c 128,-1,24
 445 -75 445 -75 433.5 -96 c 128,-1,25
 422 -117 422 -117 422 -138 c 0,26,27
 422 -158 422 -158 432 -169.5 c 128,-1,28
 442 -181 442 -181 460 -181 c 0,29,30
 475 -181 475 -181 486.5 -172.5 c 128,-1,31
 498 -164 498 -164 509 -154 c 1,32,-1
 541 -190 l 1,33,34
 529 -203 529 -203 514.5 -213.5 c 128,-1,35
 500 -224 500 -224 481.5 -230 c 128,-1,36
 463 -236 463 -236 437 -236 c 0,37,38
 403 -236 403 -236 377.5 -225 c 128,-1,39
 352 -214 352 -214 337.5 -194 c 128,-1,40
 323 -174 323 -174 323 -146 c 0,41,42
 323 -120 323 -120 338 -95 c 128,-1,43
 353 -70 353 -70 380 -47 c 128,-1,44
 407 -24 407 -24 443.5 -3.5 c 128,-1,45
 480 17 480 17 523 34 c 1,46,-1
 518 13 l 1,47,48
 501 7 501 7 481 1.5 c 128,-1,49
 461 -4 461 -4 440 -7 c 128,-1,50
 419 -10 419 -10 396 -10 c 0,51,52
 322 -10 322 -10 258.5 16.5 c 128,-1,53
 195 43 195 43 147 91.5 c 128,-1,54
 99 140 99 140 72.5 207 c 128,-1,55
 46 274 46 274 46 355 c 256,56,57
 46 436 46 436 72.5 503 c 128,-1,58
 99 570 99 570 147 618.5 c 128,-1,59
 195 667 195 667 258.5 693.5 c 128,-1,60
 322 720 322 720 396 720 c 0,61,62
 469 720 469 720 532.5 693.5 c 128,-1,63
 596 667 596 667 644 618.5 c 128,-1,64
 692 570 692 570 719 503 c 128,-1,65
 746 436 746 436 746 355 c 0,66,67
 746 300 746 300 731.5 248 c 128,-1,68
 717 196 717 196 688.5 151 c 128,-1,69
 660 106 660 106 618 71 c 0,20,21
EndSplineSet
EndChar

StartChar: Odblgrave
Encoding: 524 524 126
Width: 792
GlyphClass: 1
Flags: W
LayerCount: 2
Fore
SplineSet
502 859 m 2,0,-1
 520 786 l 1,1,-1
 520 758 l 1,2,-1
 487 758 l 1,3,-1
 441 801 l 2,4,5
 421 820 421 820 411 836 c 128,-1,6
 401 852 401 852 401 871 c 256,7,8
 401 890 401 890 414 901 c 128,-1,9
 427 912 427 912 445 912 c 0,10,11
 459 912 459 912 470 906.5 c 128,-1,12
 481 901 481 901 489 889.5 c 128,-1,13
 497 878 497 878 502 859 c 2,0,-1
338 859 m 2,14,-1
 356 786 l 1,15,-1
 356 758 l 1,16,-1
 323 758 l 1,17,-1
 277 801 l 2,18,19
 257 820 257 820 247 836 c 128,-1,20
 237 852 237 852 237 871 c 256,21,22
 237 890 237 890 250 901 c 128,-1,23
 263 912 263 912 281 912 c 0,24,25
 295 912 295 912 306 906.5 c 128,-1,26
 317 901 317 901 325 889.5 c 128,-1,27
 333 878 333 878 338 859 c 2,14,-1
396 -10 m 0,28,29
 322 -10 322 -10 258.5 16.5 c 128,-1,30
 195 43 195 43 147 91.5 c 128,-1,31
 99 140 99 140 72.5 207 c 128,-1,32
 46 274 46 274 46 355 c 256,33,34
 46 436 46 436 72.5 503 c 128,-1,35
 99 570 99 570 147 618.5 c 128,-1,36
 195 667 195 667 258.5 693.5 c 128,-1,37
 322 720 322 720 396 720 c 0,38,39
 469 720 469 720 532.5 693.5 c 128,-1,40
 596 667 596 667 644 618.5 c 128,-1,41
 692 570 692 570 719 503 c 128,-1,42
 746 436 746 436 746 355 c 256,43,44
 746 274 746 274 719 207 c 128,-1,45
 692 140 692 140 644 91.5 c 128,-1,46
 596 43 596 43 532.5 16.5 c 128,-1,47
 469 -10 469 -10 396 -10 c 0,28,29
396 60 m 256,48,49
 449 60 449 60 493 80.5 c 128,-1,50
 537 101 537 101 570 140 c 128,-1,51
 603 179 603 179 620.5 233.5 c 128,-1,52
 638 288 638 288 638 355 c 256,53,54
 638 422 638 422 620.5 476.5 c 128,-1,55
 603 531 603 531 570 570 c 128,-1,56
 537 609 537 609 493 629.5 c 128,-1,57
 449 650 449 650 396 650 c 256,58,59
 343 650 343 650 298.5 629.5 c 128,-1,60
 254 609 254 609 221.5 570 c 128,-1,61
 189 531 189 531 171 476.5 c 128,-1,62
 153 422 153 422 153 355 c 256,63,64
 153 288 153 288 171 233.5 c 128,-1,65
 189 179 189 179 221.5 140 c 128,-1,66
 254 101 254 101 298.5 80.5 c 128,-1,67
 343 60 343 60 396 60 c 256,48,49
EndSplineSet
EndChar

StartChar: Oinvertedbreve
Encoding: 526 526 127
Width: 792
GlyphClass: 1
Flags: W
LayerCount: 2
Fore
SplineSet
396 899 m 0,0,1
 352 899 352 899 320 883 c 128,-1,2
 288 867 288 867 269.5 836 c 128,-1,3
 251 805 251 805 247 759 c 1,4,-1
 308 759 l 1,5,6
 313 785 313 785 324 799.5 c 128,-1,7
 335 814 335 814 352 820 c 128,-1,8
 369 826 369 826 393 826 c 0,9,10
 416 826 416 826 433 820 c 128,-1,11
 450 814 450 814 462 799.5 c 128,-1,12
 474 785 474 785 479 759 c 1,13,-1
 546 759 l 1,14,15
 542 805 542 805 522 836 c 128,-1,16
 502 867 502 867 469.5 883 c 128,-1,17
 437 899 437 899 396 899 c 0,0,1
396 -10 m 0,18,19
 322 -10 322 -10 258.5 16.5 c 128,-1,20
 195 43 195 43 147 91.5 c 128,-1,21
 99 140 99 140 72.5 207 c 128,-1,22
 46 274 46 274 46 355 c 256,23,24
 46 436 46 436 72.5 503 c 128,-1,25
 99 570 99 570 147 618.5 c 128,-1,26
 195 667 195 667 258.5 693.5 c 128,-1,27
 322 720 322 720 396 720 c 0,28,29
 469 720 469 720 532.5 693.5 c 128,-1,30
 596 667 596 667 644 618.5 c 128,-1,31
 692 570 692 570 719 503 c 128,-1,32
 746 436 746 436 746 355 c 256,33,34
 746 274 746 274 719 207 c 128,-1,35
 692 140 692 140 644 91.5 c 128,-1,36
 596 43 596 43 532.5 16.5 c 128,-1,37
 469 -10 469 -10 396 -10 c 0,18,19
396 60 m 256,38,39
 449 60 449 60 493 80.5 c 128,-1,40
 537 101 537 101 570 140 c 128,-1,41
 603 179 603 179 620.5 233.5 c 128,-1,42
 638 288 638 288 638 355 c 256,43,44
 638 422 638 422 620.5 476.5 c 128,-1,45
 603 531 603 531 570 570 c 128,-1,46
 537 609 537 609 493 629.5 c 128,-1,47
 449 650 449 650 396 650 c 256,48,49
 343 650 343 650 298.5 629.5 c 128,-1,50
 254 609 254 609 221.5 570 c 128,-1,51
 189 531 189 531 171 476.5 c 128,-1,52
 153 422 153 422 153 355 c 256,53,54
 153 288 153 288 171 233.5 c 128,-1,55
 189 179 189 179 221.5 140 c 128,-1,56
 254 101 254 101 298.5 80.5 c 128,-1,57
 343 60 343 60 396 60 c 256,38,39
EndSplineSet
EndChar

StartChar: P
Encoding: 80 80 147
Width: 638
GlyphClass: 2
Flags: W
AnchorPoint: "Anchor-0" 319 741 basechar 0
LayerCount: 2
Fore
SplineSet
231 72 m 2,0,-1
 231 641 l 1,1,-1
 337 641 l 2,2,3
 390 641 390 641 424.5 623.5 c 128,-1,4
 459 606 459 606 476 574 c 128,-1,5
 493 542 493 542 493 499 c 0,6,7
 493 455 493 455 476 421 c 128,-1,8
 459 387 459 387 423 367 c 128,-1,9
 387 347 387 347 332 347 c 2,10,-1
 209 347 l 1,11,-1
 209 280 l 1,12,-1
 334 280 l 2,13,14
 416 280 416 280 475.5 308 c 128,-1,15
 535 336 535 336 567.5 386 c 128,-1,16
 600 436 600 436 600 503 c 0,17,18
 600 598 600 598 531 654 c 128,-1,19
 462 710 462 710 339 710 c 2,20,-1
 45 710 l 1,21,-1
 45 652 l 1,22,-1
 55 652 l 2,23,24
 85 652 85 652 108.5 645 c 128,-1,25
 132 638 132 638 132 616 c 2,26,-1
 132 94 l 2,27,28
 132 72 132 72 108.5 65 c 128,-1,29
 85 58 85 58 55 58 c 2,30,-1
 45 58 l 1,31,-1
 45 0 l 1,32,-1
 335 0 l 1,33,-1
 335 58 l 1,34,-1
 310 58 l 2,35,36
 297 58 297 58 283 58.5 c 128,-1,37
 269 59 269 59 257.5 61 c 128,-1,38
 246 63 246 63 238.5 65 c 128,-1,39
 231 67 231 67 231 72 c 2,0,-1
EndSplineSet
EndChar

StartChar: Q
Encoding: 81 81 148
Width: 792
GlyphClass: 1
Flags: W
LayerCount: 2
Fore
SplineSet
359 1 m 1,0,-1
 432 10 l 1,1,2
 430 -33 430 -33 446.5 -56.5 c 128,-1,3
 463 -80 463 -80 493 -89 c 128,-1,4
 523 -98 523 -98 561 -98 c 0,5,6
 597 -98 597 -98 624 -93 c 128,-1,7
 651 -88 651 -88 674 -81.5 c 128,-1,8
 697 -75 697 -75 717 -69 c 1,9,-1
 717 -168 l 1,10,11
 688 -175 688 -175 651 -179.5 c 128,-1,12
 614 -184 614 -184 576 -184 c 0,13,14
 510 -184 510 -184 460 -165.5 c 128,-1,15
 410 -147 410 -147 383 -105.5 c 128,-1,16
 356 -64 356 -64 359 1 c 1,0,-1
396 -10 m 0,17,18
 322 -10 322 -10 258.5 16.5 c 128,-1,19
 195 43 195 43 147 91.5 c 128,-1,20
 99 140 99 140 72.5 207 c 128,-1,21
 46 274 46 274 46 355 c 256,22,23
 46 436 46 436 72.5 503 c 128,-1,24
 99 570 99 570 147 618.5 c 128,-1,25
 195 667 195 667 258.5 693.5 c 128,-1,26
 322 720 322 720 396 720 c 0,27,28
 469 720 469 720 532.5 693.5 c 128,-1,29
 596 667 596 667 644 618.5 c 128,-1,30
 692 570 692 570 719 503 c 128,-1,31
 746 436 746 436 746 355 c 256,32,33
 746 274 746 274 719 207 c 128,-1,34
 692 140 692 140 644 91.5 c 128,-1,35
 596 43 596 43 532.5 16.5 c 128,-1,36
 469 -10 469 -10 396 -10 c 0,17,18
396 60 m 256,37,38
 449 60 449 60 494.5 80.5 c 128,-1,39
 540 101 540 101 574 140 c 128,-1,40
 608 179 608 179 627 233.5 c 128,-1,41
 646 288 646 288 646 355 c 256,42,43
 646 422 646 422 627 476.5 c 128,-1,44
 608 531 608 531 574 570 c 128,-1,45
 540 609 540 609 494.5 629.5 c 128,-1,46
 449 650 449 650 396 650 c 256,47,48
 343 650 343 650 298.5 629.5 c 128,-1,49
 254 609 254 609 221.5 570 c 128,-1,50
 189 531 189 531 171 476.5 c 128,-1,51
 153 422 153 422 153 355 c 256,52,53
 153 288 153 288 171 233.5 c 128,-1,54
 189 179 189 179 221.5 140 c 128,-1,55
 254 101 254 101 298.5 80.5 c 128,-1,56
 343 60 343 60 396 60 c 256,37,38
EndSplineSet
EndChar

StartChar: R
Encoding: 82 82 149
Width: 688
GlyphClass: 2
Flags: W
AnchorPoint: "Anchor-1" 385 0 basechar 0
AnchorPoint: "Anchor-0" 372 741 basechar 0
LayerCount: 2
Fore
SplineSet
353 323 m 1,0,-1
 521 0 l 1,1,-1
 668 0 l 1,2,-1
 668 58 l 1,3,-1
 661 58 l 2,4,5
 644 58 644 58 630 60 c 128,-1,6
 616 62 616 62 606.5 68.5 c 128,-1,7
 597 75 597 75 590 87 c 2,8,-1
 442 353 l 1,9,-1
 353 323 l 1,0,-1
229 68 m 2,10,-1
 229 641 l 1,11,-1
 328 641 l 2,12,13
 381 641 381 641 417 624.5 c 128,-1,14
 453 608 453 608 471 578 c 128,-1,15
 489 548 489 548 489 508 c 0,16,17
 489 465 489 465 471.5 432 c 128,-1,18
 454 399 454 399 418 381.5 c 128,-1,19
 382 364 382 364 324 364 c 2,20,-1
 209 364 l 1,21,-1
 209 298 l 1,22,-1
 324 298 l 2,23,24
 339 298 339 298 353 299 c 128,-1,25
 367 300 367 300 380.5 302 c 128,-1,26
 394 304 394 304 406 306 c 0,27,28
 463 318 463 318 503.5 345 c 128,-1,29
 544 372 544 372 566 413 c 128,-1,30
 588 454 588 454 588 508 c 0,31,32
 588 568 588 568 557 613.5 c 128,-1,33
 526 659 526 659 468.5 684.5 c 128,-1,34
 411 710 411 710 330 710 c 2,35,-1
 43 710 l 1,36,-1
 43 652 l 1,37,-1
 53 652 l 2,38,39
 83 652 83 652 106 645 c 128,-1,40
 129 638 129 638 129 616 c 2,41,-1
 129 94 l 2,42,43
 129 72 129 72 106 65 c 128,-1,44
 83 58 83 58 53 58 c 2,45,-1
 43 58 l 1,46,-1
 43 0 l 1,47,-1
 320 0 l 1,48,-1
 320 58 l 1,49,-1
 307 58 l 2,50,51
 294 58 294 58 280 58.5 c 128,-1,52
 266 59 266 59 254.5 60.5 c 128,-1,53
 243 62 243 62 236 63.5 c 128,-1,54
 229 65 229 65 229 68 c 2,10,-1
EndSplineSet
EndChar

StartChar: Rcaron
Encoding: 344 344 152
Width: 688
GlyphClass: 1
Flags: W
LayerCount: 2
Fore
SplineSet
290 758 m 1,0,-1
 380 758 l 1,1,-1
 488 893 l 1,2,-1
 488 905 l 1,3,-1
 441 905 l 1,4,-1
 322 811 l 1,5,-1
 359 811 l 1,6,-1
 239 905 l 1,7,-1
 182 905 l 1,8,-1
 182 893 l 1,9,-1
 290 758 l 1,0,-1
353 323 m 1,10,-1
 521 0 l 1,11,-1
 668 0 l 1,12,-1
 668 58 l 1,13,-1
 661 58 l 2,14,15
 644 58 644 58 630 60 c 128,-1,16
 616 62 616 62 606.5 68.5 c 128,-1,17
 597 75 597 75 590 87 c 2,18,-1
 442 353 l 1,19,-1
 353 323 l 1,10,-1
229 68 m 2,20,-1
 229 641 l 1,21,-1
 328 641 l 2,22,23
 381 641 381 641 417 624.5 c 128,-1,24
 453 608 453 608 471 578 c 128,-1,25
 489 548 489 548 489 508 c 0,26,27
 489 465 489 465 471.5 432 c 128,-1,28
 454 399 454 399 418 381.5 c 128,-1,29
 382 364 382 364 324 364 c 2,30,-1
 209 364 l 1,31,-1
 209 298 l 1,32,-1
 324 298 l 2,33,34
 339 298 339 298 353 299 c 128,-1,35
 367 300 367 300 380.5 302 c 128,-1,36
 394 304 394 304 406 306 c 0,37,38
 463 318 463 318 503.5 345 c 128,-1,39
 544 372 544 372 566 413 c 128,-1,40
 588 454 588 454 588 508 c 0,41,42
 588 568 588 568 557 613.5 c 128,-1,43
 526 659 526 659 468.5 684.5 c 128,-1,44
 411 710 411 710 330 710 c 2,45,-1
 43 710 l 1,46,-1
 43 652 l 1,47,-1
 53 652 l 2,48,49
 83 652 83 652 106 645 c 128,-1,50
 129 638 129 638 129 616 c 2,51,-1
 129 94 l 2,52,53
 129 72 129 72 106 65 c 128,-1,54
 83 58 83 58 53 58 c 2,55,-1
 43 58 l 1,56,-1
 43 0 l 1,57,-1
 320 0 l 1,58,-1
 320 58 l 1,59,-1
 307 58 l 2,60,61
 294 58 294 58 280 58.5 c 128,-1,62
 266 59 266 59 254.5 60.5 c 128,-1,63
 243 62 243 62 236 63.5 c 128,-1,64
 229 65 229 65 229 68 c 2,20,-1
EndSplineSet
EndChar

StartChar: Rdblgrave
Encoding: 528 528 153
Width: 688
GlyphClass: 1
Flags: W
LayerCount: 2
Fore
SplineSet
436 859 m 2,0,-1
 455 786 l 1,1,-1
 455 758 l 1,2,-1
 421 758 l 1,3,-1
 376 801 l 2,4,5
 355 820 355 820 345 836 c 128,-1,6
 335 852 335 852 335 871 c 256,7,8
 335 890 335 890 348 901 c 128,-1,9
 361 912 361 912 380 912 c 0,10,11
 394 912 394 912 404.5 906.5 c 128,-1,12
 415 901 415 901 423.5 889.5 c 128,-1,13
 432 878 432 878 436 859 c 2,0,-1
272 859 m 2,14,-1
 291 786 l 1,15,-1
 291 758 l 1,16,-1
 257 758 l 1,17,-1
 212 801 l 2,18,19
 191 820 191 820 181 836 c 128,-1,20
 171 852 171 852 171 871 c 256,21,22
 171 890 171 890 184 901 c 128,-1,23
 197 912 197 912 216 912 c 0,24,25
 230 912 230 912 240.5 906.5 c 128,-1,26
 251 901 251 901 259.5 889.5 c 128,-1,27
 268 878 268 878 272 859 c 2,14,-1
353 323 m 1,28,-1
 521 0 l 1,29,-1
 668 0 l 1,30,-1
 668 58 l 1,31,-1
 661 58 l 2,32,33
 644 58 644 58 630 60 c 128,-1,34
 616 62 616 62 606.5 68.5 c 128,-1,35
 597 75 597 75 590 87 c 2,36,-1
 442 353 l 1,37,-1
 353 323 l 1,28,-1
229 68 m 2,38,-1
 229 641 l 1,39,-1
 328 641 l 2,40,41
 381 641 381 641 417 624.5 c 128,-1,42
 453 608 453 608 471 578 c 128,-1,43
 489 548 489 548 489 508 c 0,44,45
 489 465 489 465 471.5 432 c 128,-1,46
 454 399 454 399 418 381.5 c 128,-1,47
 382 364 382 364 324 364 c 2,48,-1
 209 364 l 1,49,-1
 209 298 l 1,50,-1
 324 298 l 2,51,52
 339 298 339 298 353 299 c 128,-1,53
 367 300 367 300 380.5 302 c 128,-1,54
 394 304 394 304 406 306 c 0,55,56
 463 318 463 318 503.5 345 c 128,-1,57
 544 372 544 372 566 413 c 128,-1,58
 588 454 588 454 588 508 c 0,59,60
 588 568 588 568 557 613.5 c 128,-1,61
 526 659 526 659 468.5 684.5 c 128,-1,62
 411 710 411 710 330 710 c 2,63,-1
 43 710 l 1,64,-1
 43 652 l 1,65,-1
 53 652 l 2,66,67
 83 652 83 652 106 645 c 128,-1,68
 129 638 129 638 129 616 c 2,69,-1
 129 94 l 2,70,71
 129 72 129 72 106 65 c 128,-1,72
 83 58 83 58 53 58 c 2,73,-1
 43 58 l 1,74,-1
 43 0 l 1,75,-1
 320 0 l 1,76,-1
 320 58 l 1,77,-1
 307 58 l 2,78,79
 294 58 294 58 280 58.5 c 128,-1,80
 266 59 266 59 254.5 60.5 c 128,-1,81
 243 62 243 62 236 63.5 c 128,-1,82
 229 65 229 65 229 68 c 2,38,-1
EndSplineSet
EndChar

StartChar: Rinvertedbreve
Encoding: 530 530 154
Width: 688
GlyphClass: 1
Flags: W
LayerCount: 2
Fore
SplineSet
336 899 m 0,0,1
 293 899 293 899 260.5 883 c 128,-1,2
 228 867 228 867 209.5 836 c 128,-1,3
 191 805 191 805 187 759 c 1,4,-1
 249 759 l 1,5,6
 254 785 254 785 264.5 799.5 c 128,-1,7
 275 814 275 814 292 820 c 128,-1,8
 309 826 309 826 333 826 c 0,9,10
 356 826 356 826 373.5 820 c 128,-1,11
 391 814 391 814 402.5 799.5 c 128,-1,12
 414 785 414 785 419 759 c 1,13,-1
 486 759 l 1,14,15
 482 805 482 805 462 836 c 128,-1,16
 442 867 442 867 410 883 c 128,-1,17
 378 899 378 899 336 899 c 0,0,1
353 323 m 1,18,-1
 521 0 l 1,19,-1
 668 0 l 1,20,-1
 668 58 l 1,21,-1
 661 58 l 2,22,23
 644 58 644 58 630 60 c 128,-1,24
 616 62 616 62 606.5 68.5 c 128,-1,25
 597 75 597 75 590 87 c 2,26,-1
 442 353 l 1,27,-1
 353 323 l 1,18,-1
229 68 m 2,28,-1
 229 641 l 1,29,-1
 328 641 l 2,30,31
 381 641 381 641 417 624.5 c 128,-1,32
 453 608 453 608 471 578 c 128,-1,33
 489 548 489 548 489 508 c 0,34,35
 489 465 489 465 471.5 432 c 128,-1,36
 454 399 454 399 418 381.5 c 128,-1,37
 382 364 382 364 324 364 c 2,38,-1
 209 364 l 1,39,-1
 209 298 l 1,40,-1
 324 298 l 2,41,42
 339 298 339 298 353 299 c 128,-1,43
 367 300 367 300 380.5 302 c 128,-1,44
 394 304 394 304 406 306 c 0,45,46
 463 318 463 318 503.5 345 c 128,-1,47
 544 372 544 372 566 413 c 128,-1,48
 588 454 588 454 588 508 c 0,49,50
 588 568 588 568 557 613.5 c 128,-1,51
 526 659 526 659 468.5 684.5 c 128,-1,52
 411 710 411 710 330 710 c 2,53,-1
 43 710 l 1,54,-1
 43 652 l 1,55,-1
 53 652 l 2,56,57
 83 652 83 652 106 645 c 128,-1,58
 129 638 129 638 129 616 c 2,59,-1
 129 94 l 2,60,61
 129 72 129 72 106 65 c 128,-1,62
 83 58 83 58 53 58 c 2,63,-1
 43 58 l 1,64,-1
 43 0 l 1,65,-1
 320 0 l 1,66,-1
 320 58 l 1,67,-1
 307 58 l 2,68,69
 294 58 294 58 280 58.5 c 128,-1,70
 266 59 266 59 254.5 60.5 c 128,-1,71
 243 62 243 62 236 63.5 c 128,-1,72
 229 65 229 65 229 68 c 2,28,-1
EndSplineSet
EndChar

StartChar: S
Encoding: 83 83 157
Width: 617
GlyphClass: 2
Flags: W
AnchorPoint: "Anchor-1" 339 0 basechar 0
AnchorPoint: "Anchor-0" 339 741 basechar 0
LayerCount: 2
Fore
SplineSet
333 60 m 0,0,1
 376 60 376 60 408 72 c 128,-1,2
 440 84 440 84 458 110 c 128,-1,3
 476 136 476 136 476 177 c 0,4,5
 476 213 476 213 461 236.5 c 128,-1,6
 446 260 446 260 420 276 c 128,-1,7
 394 292 394 292 360 303 c 128,-1,8
 326 314 326 314 289 325 c 0,9,10
 249 336 249 336 210 350.5 c 128,-1,11
 171 365 171 365 139.5 388 c 128,-1,12
 108 411 108 411 89.5 447 c 128,-1,13
 71 483 71 483 71 537 c 0,14,15
 71 593 71 593 99 634 c 128,-1,16
 127 675 127 675 174.5 697.5 c 128,-1,17
 222 720 222 720 280 720 c 0,18,19
 328 720 328 720 367.5 706 c 128,-1,20
 407 692 407 692 438 660 c 128,-1,21
 469 628 469 628 487 572 c 1,22,-1
 447 576 l 1,23,-1
 465 710 l 1,24,-1
 526 710 l 1,25,-1
 526 525 l 1,26,-1
 460 525 l 1,27,28
 446 561 446 561 422 590 c 128,-1,29
 398 619 398 619 365 635 c 128,-1,30
 332 651 332 651 288 651 c 0,31,32
 249 651 249 651 220 638 c 128,-1,33
 191 625 191 625 175.5 601 c 128,-1,34
 160 577 160 577 160 545 c 0,35,36
 160 514 160 514 174.5 492.5 c 128,-1,37
 189 471 189 471 214.5 457 c 128,-1,38
 240 443 240 443 273.5 432 c 128,-1,39
 307 421 307 421 344 411 c 0,40,41
 386 400 386 400 426 385.5 c 128,-1,42
 466 371 466 371 498.5 347.5 c 128,-1,43
 531 324 531 324 550 287.5 c 128,-1,44
 569 251 569 251 569 195 c 0,45,46
 569 130 569 130 537 84 c 128,-1,47
 505 38 505 38 452.5 14 c 128,-1,48
 400 -10 400 -10 337 -10 c 0,49,50
 279 -10 279 -10 228 8.5 c 128,-1,51
 177 27 177 27 138.5 66.5 c 128,-1,52
 100 106 100 106 79 170 c 1,53,-1
 125 159 l 1,54,-1
 108 0 l 1,55,-1
 47 0 l 1,56,-1
 47 220 l 1,57,-1
 112 220 l 1,58,59
 129 174 129 174 159 137.5 c 128,-1,60
 189 101 189 101 233 80.5 c 128,-1,61
 277 60 277 60 333 60 c 0,0,1
EndSplineSet
EndChar

StartChar: Scaron
Encoding: 352 352 161
Width: 617
GlyphClass: 1
Flags: W
LayerCount: 2
Fore
SplineSet
256 758 m 1,0,-1
 346 758 l 1,1,-1
 453 893 l 1,2,-1
 453 905 l 1,3,-1
 406 905 l 1,4,-1
 288 811 l 1,5,-1
 324 811 l 1,6,-1
 205 905 l 1,7,-1
 148 905 l 1,8,-1
 148 893 l 1,9,-1
 256 758 l 1,0,-1
333 60 m 0,10,11
 376 60 376 60 408 72 c 128,-1,12
 440 84 440 84 458 110 c 128,-1,13
 476 136 476 136 476 177 c 0,14,15
 476 213 476 213 461 236.5 c 128,-1,16
 446 260 446 260 420 276 c 128,-1,17
 394 292 394 292 360 303 c 128,-1,18
 326 314 326 314 289 325 c 0,19,20
 249 336 249 336 210 350.5 c 128,-1,21
 171 365 171 365 139.5 388 c 128,-1,22
 108 411 108 411 89.5 447 c 128,-1,23
 71 483 71 483 71 537 c 0,24,25
 71 593 71 593 99 634 c 128,-1,26
 127 675 127 675 174.5 697.5 c 128,-1,27
 222 720 222 720 280 720 c 0,28,29
 328 720 328 720 367.5 706 c 128,-1,30
 407 692 407 692 438 660 c 128,-1,31
 469 628 469 628 487 572 c 1,32,-1
 447 576 l 1,33,-1
 465 710 l 1,34,-1
 526 710 l 1,35,-1
 526 525 l 1,36,-1
 460 525 l 1,37,38
 446 561 446 561 422 590 c 128,-1,39
 398 619 398 619 365 635 c 128,-1,40
 332 651 332 651 288 651 c 0,41,42
 249 651 249 651 220 638 c 128,-1,43
 191 625 191 625 175.5 601 c 128,-1,44
 160 577 160 577 160 545 c 0,45,46
 160 514 160 514 174.5 492.5 c 128,-1,47
 189 471 189 471 214.5 457 c 128,-1,48
 240 443 240 443 273.5 432 c 128,-1,49
 307 421 307 421 344 411 c 0,50,51
 386 400 386 400 426 385.5 c 128,-1,52
 466 371 466 371 498.5 347.5 c 128,-1,53
 531 324 531 324 550 287.5 c 128,-1,54
 569 251 569 251 569 195 c 0,55,56
 569 130 569 130 537 84 c 128,-1,57
 505 38 505 38 452.5 14 c 128,-1,58
 400 -10 400 -10 337 -10 c 0,59,60
 279 -10 279 -10 228 8.5 c 128,-1,61
 177 27 177 27 138.5 66.5 c 128,-1,62
 100 106 100 106 79 170 c 1,63,-1
 125 159 l 1,64,-1
 108 0 l 1,65,-1
 47 0 l 1,66,-1
 47 220 l 1,67,-1
 112 220 l 1,68,69
 129 174 129 174 159 137.5 c 128,-1,70
 189 101 189 101 233 80.5 c 128,-1,71
 277 60 277 60 333 60 c 0,10,11
EndSplineSet
EndChar

StartChar: Scarondotaccent
Encoding: 7782 7782 166
Width: 617
GlyphClass: 1
Flags: W
LayerCount: 2
Fore
SplineSet
261 758 m 1,0,-1
 351 758 l 1,1,-1
 459 893 l 1,2,-1
 459 905 l 1,3,-1
 412 905 l 1,4,-1
 293 811 l 1,5,-1
 330 811 l 1,6,-1
 210 905 l 1,7,-1
 154 905 l 1,8,-1
 154 893 l 1,9,-1
 261 758 l 1,0,-1
333 60 m 0,10,11
 376 60 376 60 408 72 c 128,-1,12
 440 84 440 84 458 110 c 128,-1,13
 476 136 476 136 476 177 c 0,14,15
 476 213 476 213 461 236.5 c 128,-1,16
 446 260 446 260 420 276 c 128,-1,17
 394 292 394 292 360 303 c 128,-1,18
 326 314 326 314 289 325 c 0,19,20
 249 336 249 336 210 350.5 c 128,-1,21
 171 365 171 365 139.5 388 c 128,-1,22
 108 411 108 411 89.5 447 c 128,-1,23
 71 483 71 483 71 537 c 0,24,25
 71 593 71 593 99 634 c 128,-1,26
 127 675 127 675 174.5 697.5 c 128,-1,27
 222 720 222 720 280 720 c 0,28,29
 328 720 328 720 367.5 706 c 128,-1,30
 407 692 407 692 438 660 c 128,-1,31
 469 628 469 628 487 572 c 1,32,-1
 447 576 l 1,33,-1
 465 710 l 1,34,-1
 526 710 l 1,35,-1
 526 525 l 1,36,-1
 460 525 l 1,37,38
 446 561 446 561 422 590 c 128,-1,39
 398 619 398 619 365 635 c 128,-1,40
 332 651 332 651 288 651 c 0,41,42
 249 651 249 651 220 638 c 128,-1,43
 191 625 191 625 175.5 601 c 128,-1,44
 160 577 160 577 160 545 c 0,45,46
 160 514 160 514 174.5 492.5 c 128,-1,47
 189 471 189 471 214.5 457 c 128,-1,48
 240 443 240 443 273.5 432 c 128,-1,49
 307 421 307 421 344 411 c 0,50,51
 386 400 386 400 426 385.5 c 128,-1,52
 466 371 466 371 498.5 347.5 c 128,-1,53
 531 324 531 324 550 287.5 c 128,-1,54
 569 251 569 251 569 195 c 0,55,56
 569 130 569 130 537 84 c 128,-1,57
 505 38 505 38 452.5 14 c 128,-1,58
 400 -10 400 -10 337 -10 c 0,59,60
 279 -10 279 -10 228 8.5 c 128,-1,61
 177 27 177 27 138.5 66.5 c 128,-1,62
 100 106 100 106 79 170 c 1,63,-1
 125 159 l 1,64,-1
 108 0 l 1,65,-1
 47 0 l 1,66,-1
 47 220 l 1,67,-1
 112 220 l 1,68,69
 129 174 129 174 159 137.5 c 128,-1,70
 189 101 189 101 233 80.5 c 128,-1,71
 277 60 277 60 333 60 c 0,10,11
306 916 m 256,72,73
 274 916 274 916 256 935.5 c 128,-1,74
 238 955 238 955 238 985 c 0,75,76
 238 1013 238 1013 256 1032.5 c 128,-1,77
 274 1052 274 1052 306 1052 c 256,78,79
 338 1052 338 1052 356.5 1032.5 c 128,-1,80
 375 1013 375 1013 375 985 c 0,81,82
 375 955 375 955 356.5 935.5 c 128,-1,83
 338 916 338 916 306 916 c 256,72,73
EndSplineSet
EndChar

StartChar: T
Encoding: 84 84 168
Width: 660
GlyphClass: 2
Flags: W
AnchorPoint: "Anchor-1" 334 0 basechar 0
AnchorPoint: "Anchor-0" 334 741 basechar 0
LayerCount: 2
Fore
SplineSet
280 94 m 2,0,-1
 280 644 l 1,1,-1
 213 644 l 2,2,3
 174 644 174 644 152.5 639.5 c 128,-1,4
 131 635 131 635 122.5 624.5 c 128,-1,5
 114 614 114 614 110 594 c 2,6,-1
 99 516 l 1,7,-1
 38 516 l 1,8,-1
 38 710 l 1,9,-1
 622 710 l 1,10,-1
 622 516 l 1,11,-1
 561 516 l 1,12,-1
 549 594 l 2,13,14
 547 614 547 614 537.5 624.5 c 128,-1,15
 528 635 528 635 507 639.5 c 128,-1,16
 486 644 486 644 446 644 c 2,17,-1
 380 644 l 1,18,-1
 380 94 l 2,19,20
 380 72 380 72 403.5 65 c 128,-1,21
 427 58 427 58 460 58 c 2,22,-1
 476 58 l 1,23,-1
 476 0 l 1,24,-1
 183 0 l 1,25,-1
 183 58 l 1,26,-1
 199 58 l 2,27,28
 232 58 232 58 256 65 c 128,-1,29
 280 72 280 72 280 94 c 2,0,-1
EndSplineSet
EndChar

StartChar: Tcaron
Encoding: 356 356 170
Width: 660
GlyphClass: 1
Flags: W
LayerCount: 2
Fore
SplineSet
284 758 m 1,0,-1
 374 758 l 1,1,-1
 482 893 l 1,2,-1
 482 905 l 1,3,-1
 435 905 l 1,4,-1
 317 811 l 1,5,-1
 353 811 l 1,6,-1
 234 905 l 1,7,-1
 177 905 l 1,8,-1
 177 893 l 1,9,-1
 284 758 l 1,0,-1
280 94 m 2,10,-1
 280 644 l 1,11,-1
 213 644 l 2,12,13
 174 644 174 644 152.5 639.5 c 128,-1,14
 131 635 131 635 122.5 624.5 c 128,-1,15
 114 614 114 614 110 594 c 2,16,-1
 99 516 l 1,17,-1
 38 516 l 1,18,-1
 38 710 l 1,19,-1
 622 710 l 1,20,-1
 622 516 l 1,21,-1
 561 516 l 1,22,-1
 549 594 l 2,23,24
 547 614 547 614 537.5 624.5 c 128,-1,25
 528 635 528 635 507 639.5 c 128,-1,26
 486 644 486 644 446 644 c 2,27,-1
 380 644 l 1,28,-1
 380 94 l 2,29,30
 380 72 380 72 403.5 65 c 128,-1,31
 427 58 427 58 460 58 c 2,32,-1
 476 58 l 1,33,-1
 476 0 l 1,34,-1
 183 0 l 1,35,-1
 183 58 l 1,36,-1
 199 58 l 2,37,38
 232 58 232 58 256 65 c 128,-1,39
 280 72 280 72 280 94 c 2,10,-1
EndSplineSet
EndChar

StartChar: U
Encoding: 85 85 174
Width: 795
GlyphClass: 2
Flags: W
AnchorPoint: "Anchor-2" 456 0 basechar 0
AnchorPoint: "Anchor-1" 402 0 basechar 0
AnchorPoint: "Anchor-0" 402 741 basechar 0
LayerCount: 2
Fore
SplineSet
227 275 m 2,0,1
 227 217 227 217 240.5 176.5 c 128,-1,2
 254 136 254 136 279.5 112 c 128,-1,3
 305 88 305 88 339 77 c 128,-1,4
 373 66 373 66 413 66 c 0,5,6
 455 66 455 66 488 77.5 c 128,-1,7
 521 89 521 89 545 113 c 128,-1,8
 569 137 569 137 581.5 177.5 c 128,-1,9
 594 218 594 218 594 277 c 2,10,-1
 594 629 l 2,11,12
 594 635 594 635 586.5 639 c 128,-1,13
 579 643 579 643 567.5 646 c 128,-1,14
 556 649 556 649 542.5 650.5 c 128,-1,15
 529 652 529 652 516 652 c 2,16,-1
 504 652 l 1,17,-1
 504 710 l 1,18,-1
 755 710 l 1,19,-1
 755 652 l 1,20,-1
 744 652 l 2,21,22
 725 652 725 652 707.5 647 c 128,-1,23
 690 642 690 642 679 631.5 c 128,-1,24
 668 621 668 621 668 602 c 2,25,-1
 668 266 l 2,26,27
 668 193 668 193 647.5 140.5 c 128,-1,28
 627 88 627 88 590 54.5 c 128,-1,29
 553 21 553 21 505 5.5 c 128,-1,30
 457 -10 457 -10 403 -10 c 0,31,32
 345 -10 345 -10 294.5 6 c 128,-1,33
 244 22 244 22 206.5 55 c 128,-1,34
 169 88 169 88 148 140 c 128,-1,35
 127 192 127 192 127 264 c 2,36,-1
 127 616 l 2,37,38
 127 638 127 638 103.5 645 c 128,-1,39
 80 652 80 652 50 652 c 2,40,-1
 41 652 l 1,41,-1
 41 710 l 1,42,-1
 321 710 l 1,43,-1
 321 652 l 1,44,-1
 312 652 l 2,45,46
 298 652 298 652 283 651.5 c 128,-1,47
 268 651 268 651 255.5 649.5 c 128,-1,48
 243 648 243 648 235 646.5 c 128,-1,49
 227 645 227 645 227 642 c 2,50,-1
 227 275 l 2,0,1
EndSplineSet
EndChar

StartChar: Uogonek
Encoding: 370 370 184
Width: 795
GlyphClass: 1
Flags: W
LayerCount: 2
Fore
SplineSet
535 55 m 1,0,-1
 541 25 l 1,1,2
 512 8 512 8 477 -1 c 128,-1,3
 442 -10 442 -10 403 -10 c 0,4,5
 343 -10 343 -10 292.5 6 c 128,-1,6
 242 22 242 22 204.5 55 c 128,-1,7
 167 88 167 88 147 140 c 128,-1,8
 127 192 127 192 127 264 c 2,9,-1
 127 616 l 2,10,11
 127 638 127 638 106.5 645 c 128,-1,12
 86 652 86 652 50 652 c 2,13,-1
 41 652 l 1,14,-1
 41 710 l 1,15,-1
 321 710 l 1,16,-1
 321 652 l 1,17,-1
 312 652 l 2,18,19
 298 652 298 652 283 651.5 c 128,-1,20
 268 651 268 651 255.5 649.5 c 128,-1,21
 243 648 243 648 235 646.5 c 128,-1,22
 227 645 227 645 227 642 c 2,23,-1
 227 264 l 2,24,25
 227 209 227 209 241 171 c 128,-1,26
 255 133 255 133 280 110 c 128,-1,27
 305 87 305 87 339.5 77 c 128,-1,28
 374 67 374 67 416 67 c 0,29,30
 457 67 457 67 490 77.5 c 128,-1,31
 523 88 523 88 546 110.5 c 128,-1,32
 569 133 569 133 581.5 171.5 c 128,-1,33
 594 210 594 210 594 266 c 2,34,-1
 594 629 l 2,35,36
 594 635 594 635 587.5 639 c 128,-1,37
 581 643 581 643 570.5 646 c 128,-1,38
 560 649 560 649 546 650.5 c 128,-1,39
 532 652 532 652 516 652 c 2,40,-1
 504 652 l 1,41,-1
 504 710 l 1,42,-1
 755 710 l 1,43,-1
 755 652 l 1,44,-1
 744 652 l 2,45,46
 721 652 721 652 704 647 c 128,-1,47
 687 642 687 642 677.5 631.5 c 128,-1,48
 668 621 668 621 668 602 c 2,49,-1
 668 266 l 2,50,51
 668 218 668 218 658 177.5 c 128,-1,52
 648 137 648 137 630.5 105.5 c 128,-1,53
 613 74 613 74 589 52 c 0,54,55
 571 35 571 35 548 13.5 c 128,-1,56
 525 -8 525 -8 504 -32.5 c 128,-1,57
 483 -57 483 -57 469.5 -83.5 c 128,-1,58
 456 -110 456 -110 456 -136 c 0,59,60
 456 -154 456 -154 464.5 -165.5 c 128,-1,61
 473 -177 473 -177 491 -177 c 256,62,63
 509 -177 509 -177 520 -170 c 128,-1,64
 531 -163 531 -163 541 -153 c 1,65,-1
 572 -190 l 1,66,67
 553 -210 553 -210 530 -223 c 128,-1,68
 507 -236 507 -236 468 -236 c 0,69,70
 437 -236 437 -236 412.5 -225 c 128,-1,71
 388 -214 388 -214 374 -193.5 c 128,-1,72
 360 -173 360 -173 360 -145 c 0,73,74
 360 -119 360 -119 373 -94.5 c 128,-1,75
 386 -70 386 -70 410 -46 c 128,-1,76
 434 -22 434 -22 465.5 3 c 128,-1,77
 497 28 497 28 535 55 c 1,0,-1
EndSplineSet
EndChar

StartChar: Uhorn
Encoding: 431 431 185
Width: 815
GlyphClass: 2
Flags: W
AnchorPoint: "Anchor-1" 411 -35 basechar 0
AnchorPoint: "Anchor-0" 411 663 basechar 0
LayerCount: 2
Fore
SplineSet
127 264 m 2,0,-1
 127 616 l 2,1,2
 127 638 127 638 106.5 645 c 128,-1,3
 86 652 86 652 50 652 c 2,4,-1
 41 652 l 1,5,-1
 41 710 l 1,6,-1
 321 710 l 1,7,-1
 321 652 l 1,8,-1
 312 652 l 2,9,10
 298 652 298 652 283 651.5 c 128,-1,11
 268 651 268 651 255.5 649.5 c 128,-1,12
 243 648 243 648 235 646.5 c 128,-1,13
 227 645 227 645 227 642 c 2,14,-1
 227 264 l 2,15,16
 227 209 227 209 241 170.5 c 128,-1,17
 255 132 255 132 280 109.5 c 128,-1,18
 305 87 305 87 339.5 77 c 128,-1,19
 374 67 374 67 416 67 c 0,20,21
 468 67 468 67 508 85.5 c 128,-1,22
 548 104 548 104 571 147.5 c 128,-1,23
 594 191 594 191 594 266 c 2,24,-1
 594 629 l 2,25,26
 594 635 594 635 587.5 639 c 128,-1,27
 581 643 581 643 570.5 646 c 128,-1,28
 560 649 560 649 546 650.5 c 128,-1,29
 532 652 532 652 516 652 c 2,30,-1
 504 652 l 1,31,-1
 504 710 l 1,32,-1
 627 710 l 2,33,34
 670 710 670 710 697.5 718 c 128,-1,35
 725 726 725 726 739.5 744 c 128,-1,36
 754 762 754 762 759.5 792.5 c 128,-1,37
 765 823 765 823 765 868 c 1,38,-1
 856 868 l 1,39,40
 855 831 855 831 850.5 800.5 c 128,-1,41
 846 770 846 770 836 746 c 128,-1,42
 826 722 826 722 810.5 704.5 c 128,-1,43
 795 687 795 687 771.5 675.5 c 128,-1,44
 748 664 748 664 716 656 c 0,45,46
 699 652 699 652 688.5 646 c 128,-1,47
 678 640 678 640 673 630.5 c 128,-1,48
 668 621 668 621 668 606 c 2,49,-1
 668 266 l 2,50,51
 668 193 668 193 648 140.5 c 128,-1,52
 628 88 628 88 592 54.5 c 128,-1,53
 556 21 556 21 507.5 5.5 c 128,-1,54
 459 -10 459 -10 403 -10 c 0,55,56
 343 -10 343 -10 292.5 6 c 128,-1,57
 242 22 242 22 204.5 55 c 128,-1,58
 167 88 167 88 147 140 c 128,-1,59
 127 192 127 192 127 264 c 2,0,-1
EndSplineSet
EndChar

StartChar: Ucaron
Encoding: 467 467 186
Width: 795
GlyphClass: 1
Flags: W
LayerCount: 2
Fore
SplineSet
371 758 m 1,0,-1
 461 758 l 1,1,-1
 569 893 l 1,2,-1
 569 905 l 1,3,-1
 522 905 l 1,4,-1
 404 811 l 1,5,-1
 440 811 l 1,6,-1
 321 905 l 1,7,-1
 264 905 l 1,8,-1
 264 893 l 1,9,-1
 371 758 l 1,0,-1
227 275 m 2,10,11
 227 217 227 217 240.5 176.5 c 128,-1,12
 254 136 254 136 279.5 112 c 128,-1,13
 305 88 305 88 339 77 c 128,-1,14
 373 66 373 66 413 66 c 0,15,16
 455 66 455 66 488 77.5 c 128,-1,17
 521 89 521 89 545 113 c 128,-1,18
 569 137 569 137 581.5 177.5 c 128,-1,19
 594 218 594 218 594 277 c 2,20,-1
 594 629 l 2,21,22
 594 635 594 635 586.5 639 c 128,-1,23
 579 643 579 643 567.5 646 c 128,-1,24
 556 649 556 649 542.5 650.5 c 128,-1,25
 529 652 529 652 516 652 c 2,26,-1
 504 652 l 1,27,-1
 504 710 l 1,28,-1
 755 710 l 1,29,-1
 755 652 l 1,30,-1
 744 652 l 2,31,32
 725 652 725 652 707.5 647 c 128,-1,33
 690 642 690 642 679 631.5 c 128,-1,34
 668 621 668 621 668 602 c 2,35,-1
 668 266 l 2,36,37
 668 193 668 193 647.5 140.5 c 128,-1,38
 627 88 627 88 590 54.5 c 128,-1,39
 553 21 553 21 505 5.5 c 128,-1,40
 457 -10 457 -10 403 -10 c 0,41,42
 345 -10 345 -10 294.5 6 c 128,-1,43
 244 22 244 22 206.5 55 c 128,-1,44
 169 88 169 88 148 140 c 128,-1,45
 127 192 127 192 127 264 c 2,46,-1
 127 616 l 2,47,48
 127 638 127 638 103.5 645 c 128,-1,49
 80 652 80 652 50 652 c 2,50,-1
 41 652 l 1,51,-1
 41 710 l 1,52,-1
 321 710 l 1,53,-1
 321 652 l 1,54,-1
 312 652 l 2,55,56
 298 652 298 652 283 651.5 c 128,-1,57
 268 651 268 651 255.5 649.5 c 128,-1,58
 243 648 243 648 235 646.5 c 128,-1,59
 227 645 227 645 227 642 c 2,60,-1
 227 275 l 2,10,11
EndSplineSet
EndChar

StartChar: Udieresiscaron
Encoding: 473 473 187
Width: 795
GlyphClass: 1
Flags: W
LayerCount: 2
Fore
SplineSet
358 943 m 1,0,-1
 448 943 l 1,1,-1
 556 1077 l 1,2,-1
 556 1090 l 1,3,-1
 509 1090 l 1,4,-1
 391 995 l 1,5,-1
 427 995 l 1,6,-1
 308 1090 l 1,7,-1
 251 1090 l 1,8,-1
 251 1077 l 1,9,-1
 358 943 l 1,0,-1
227 275 m 2,10,11
 227 217 227 217 240.5 176.5 c 128,-1,12
 254 136 254 136 279.5 112 c 128,-1,13
 305 88 305 88 339 77 c 128,-1,14
 373 66 373 66 413 66 c 0,15,16
 455 66 455 66 488 77.5 c 128,-1,17
 521 89 521 89 545 113 c 128,-1,18
 569 137 569 137 581.5 177.5 c 128,-1,19
 594 218 594 218 594 277 c 2,20,-1
 594 629 l 2,21,22
 594 635 594 635 586.5 639 c 128,-1,23
 579 643 579 643 567.5 646 c 128,-1,24
 556 649 556 649 542.5 650.5 c 128,-1,25
 529 652 529 652 516 652 c 2,26,-1
 504 652 l 1,27,-1
 504 710 l 1,28,-1
 755 710 l 1,29,-1
 755 652 l 1,30,-1
 744 652 l 2,31,32
 725 652 725 652 707.5 647 c 128,-1,33
 690 642 690 642 679 631.5 c 128,-1,34
 668 621 668 621 668 602 c 2,35,-1
 668 266 l 2,36,37
 668 193 668 193 647.5 140.5 c 128,-1,38
 627 88 627 88 590 54.5 c 128,-1,39
 553 21 553 21 505 5.5 c 128,-1,40
 457 -10 457 -10 403 -10 c 0,41,42
 345 -10 345 -10 294.5 6 c 128,-1,43
 244 22 244 22 206.5 55 c 128,-1,44
 169 88 169 88 148 140 c 128,-1,45
 127 192 127 192 127 264 c 2,46,-1
 127 616 l 2,47,48
 127 638 127 638 103.5 645 c 128,-1,49
 80 652 80 652 50 652 c 2,50,-1
 41 652 l 1,51,-1
 41 710 l 1,52,-1
 321 710 l 1,53,-1
 321 652 l 1,54,-1
 312 652 l 2,55,56
 298 652 298 652 283 651.5 c 128,-1,57
 268 651 268 651 255.5 649.5 c 128,-1,58
 243 648 243 648 235 646.5 c 128,-1,59
 227 645 227 645 227 642 c 2,60,-1
 227 275 l 2,10,11
359 844 m 256,61,62
 359 814 359 814 341 796.5 c 128,-1,63
 323 779 323 779 295 779 c 256,64,65
 267 779 267 779 248.5 796.5 c 128,-1,66
 230 814 230 814 230 844 c 256,67,68
 230 874 230 874 248.5 891 c 128,-1,69
 267 908 267 908 295 908 c 256,70,71
 323 908 323 908 341 891 c 128,-1,72
 359 874 359 874 359 844 c 256,61,62
577 844 m 256,73,74
 577 814 577 814 558.5 796.5 c 128,-1,75
 540 779 540 779 512 779 c 0,76,77
 485 779 485 779 466 796.5 c 128,-1,78
 447 814 447 814 447 844 c 256,79,80
 447 874 447 874 466 891 c 128,-1,81
 485 908 485 908 512 908 c 0,82,83
 540 908 540 908 558.5 891 c 128,-1,84
 577 874 577 874 577 844 c 256,73,74
EndSplineSet
EndChar

StartChar: Udblgrave
Encoding: 532 532 188
Width: 795
GlyphClass: 1
Flags: W
LayerCount: 2
Fore
SplineSet
519 859 m 2,0,-1
 538 786 l 1,1,-1
 538 758 l 1,2,-1
 504 758 l 1,3,-1
 459 801 l 2,4,5
 438 820 438 820 428 836 c 128,-1,6
 418 852 418 852 418 871 c 256,7,8
 418 890 418 890 431 901 c 128,-1,9
 444 912 444 912 463 912 c 0,10,11
 476 912 476 912 487 906.5 c 128,-1,12
 498 901 498 901 506.5 889.5 c 128,-1,13
 515 878 515 878 519 859 c 2,0,-1
355 859 m 2,14,-1
 374 786 l 1,15,-1
 374 758 l 1,16,-1
 340 758 l 1,17,-1
 295 801 l 2,18,19
 274 820 274 820 264 836 c 128,-1,20
 254 852 254 852 254 871 c 256,21,22
 254 890 254 890 267 901 c 128,-1,23
 280 912 280 912 299 912 c 0,24,25
 312 912 312 912 323 906.5 c 128,-1,26
 334 901 334 901 342.5 889.5 c 128,-1,27
 351 878 351 878 355 859 c 2,14,-1
227 275 m 2,28,29
 227 217 227 217 240.5 176.5 c 128,-1,30
 254 136 254 136 279.5 112 c 128,-1,31
 305 88 305 88 339 77 c 128,-1,32
 373 66 373 66 413 66 c 0,33,34
 455 66 455 66 488 77.5 c 128,-1,35
 521 89 521 89 545 113 c 128,-1,36
 569 137 569 137 581.5 177.5 c 128,-1,37
 594 218 594 218 594 277 c 2,38,-1
 594 629 l 2,39,40
 594 635 594 635 586.5 639 c 128,-1,41
 579 643 579 643 567.5 646 c 128,-1,42
 556 649 556 649 542.5 650.5 c 128,-1,43
 529 652 529 652 516 652 c 2,44,-1
 504 652 l 1,45,-1
 504 710 l 1,46,-1
 755 710 l 1,47,-1
 755 652 l 1,48,-1
 744 652 l 2,49,50
 725 652 725 652 707.5 647 c 128,-1,51
 690 642 690 642 679 631.5 c 128,-1,52
 668 621 668 621 668 602 c 2,53,-1
 668 266 l 2,54,55
 668 193 668 193 647.5 140.5 c 128,-1,56
 627 88 627 88 590 54.5 c 128,-1,57
 553 21 553 21 505 5.5 c 128,-1,58
 457 -10 457 -10 403 -10 c 0,59,60
 345 -10 345 -10 294.5 6 c 128,-1,61
 244 22 244 22 206.5 55 c 128,-1,62
 169 88 169 88 148 140 c 128,-1,63
 127 192 127 192 127 264 c 2,64,-1
 127 616 l 2,65,66
 127 638 127 638 103.5 645 c 128,-1,67
 80 652 80 652 50 652 c 2,68,-1
 41 652 l 1,69,-1
 41 710 l 1,70,-1
 321 710 l 1,71,-1
 321 652 l 1,72,-1
 312 652 l 2,73,74
 298 652 298 652 283 651.5 c 128,-1,75
 268 651 268 651 255.5 649.5 c 128,-1,76
 243 648 243 648 235 646.5 c 128,-1,77
 227 645 227 645 227 642 c 2,78,-1
 227 275 l 2,28,29
EndSplineSet
EndChar

StartChar: Uinvertedbreve
Encoding: 534 534 189
Width: 795
GlyphClass: 1
Flags: W
LayerCount: 2
Fore
SplineSet
408 899 m 0,0,1
 365 899 365 899 333 883 c 128,-1,2
 301 867 301 867 282 836 c 128,-1,3
 263 805 263 805 259 759 c 1,4,-1
 321 759 l 1,5,6
 326 785 326 785 337 799.5 c 128,-1,7
 348 814 348 814 365 820 c 128,-1,8
 382 826 382 826 405 826 c 256,9,10
 428 826 428 826 445.5 820 c 128,-1,11
 463 814 463 814 474.5 799.5 c 128,-1,12
 486 785 486 785 492 759 c 1,13,-1
 558 759 l 1,14,15
 554 805 554 805 534 836 c 128,-1,16
 514 867 514 867 482 883 c 128,-1,17
 450 899 450 899 408 899 c 0,0,1
227 275 m 2,18,19
 227 217 227 217 240.5 176.5 c 128,-1,20
 254 136 254 136 279.5 112 c 128,-1,21
 305 88 305 88 339 77 c 128,-1,22
 373 66 373 66 413 66 c 0,23,24
 455 66 455 66 488 77.5 c 128,-1,25
 521 89 521 89 545 113 c 128,-1,26
 569 137 569 137 581.5 177.5 c 128,-1,27
 594 218 594 218 594 277 c 2,28,-1
 594 629 l 2,29,30
 594 635 594 635 586.5 639 c 128,-1,31
 579 643 579 643 567.5 646 c 128,-1,32
 556 649 556 649 542.5 650.5 c 128,-1,33
 529 652 529 652 516 652 c 2,34,-1
 504 652 l 1,35,-1
 504 710 l 1,36,-1
 755 710 l 1,37,-1
 755 652 l 1,38,-1
 744 652 l 2,39,40
 725 652 725 652 707.5 647 c 128,-1,41
 690 642 690 642 679 631.5 c 128,-1,42
 668 621 668 621 668 602 c 2,43,-1
 668 266 l 2,44,45
 668 193 668 193 647.5 140.5 c 128,-1,46
 627 88 627 88 590 54.5 c 128,-1,47
 553 21 553 21 505 5.5 c 128,-1,48
 457 -10 457 -10 403 -10 c 0,49,50
 345 -10 345 -10 294.5 6 c 128,-1,51
 244 22 244 22 206.5 55 c 128,-1,52
 169 88 169 88 148 140 c 128,-1,53
 127 192 127 192 127 264 c 2,54,-1
 127 616 l 2,55,56
 127 638 127 638 103.5 645 c 128,-1,57
 80 652 80 652 50 652 c 2,58,-1
 41 652 l 1,59,-1
 41 710 l 1,60,-1
 321 710 l 1,61,-1
 321 652 l 1,62,-1
 312 652 l 2,63,64
 298 652 298 652 283 651.5 c 128,-1,65
 268 651 268 651 255.5 649.5 c 128,-1,66
 243 648 243 648 235 646.5 c 128,-1,67
 227 645 227 645 227 642 c 2,68,-1
 227 275 l 2,18,19
EndSplineSet
EndChar

StartChar: V
Encoding: 86 86 199
Width: 695
GlyphClass: 2
Flags: W
AnchorPoint: "Anchor-0" 360 741 basechar 0
LayerCount: 2
Fore
SplineSet
377 40 m 1,0,-1
 351 64 l 1,1,-1
 553 633 l 2,2,3
 553 639 553 639 542 643 c 128,-1,4
 531 647 531 647 514.5 649.5 c 128,-1,5
 498 652 498 652 481 652 c 2,6,-1
 463 652 l 1,7,-1
 463 710 l 1,8,-1
 687 710 l 1,9,-1
 687 652 l 1,10,-1
 682 652 l 2,11,12
 661 652 661 652 645 643 c 128,-1,13
 629 634 629 634 618 605 c 2,14,-1
 403 0 l 1,15,-1
 293 0 l 1,16,-1
 70 622 l 2,17,18
 62 643 62 643 47 647.5 c 128,-1,19
 32 652 32 652 13 652 c 2,20,-1
 8 652 l 1,21,-1
 8 710 l 1,22,-1
 264 710 l 1,23,-1
 264 652 l 1,24,-1
 247 652 l 2,25,26
 229 652 229 652 209.5 651 c 128,-1,27
 190 650 190 650 177 648 c 128,-1,28
 164 646 164 646 164 642 c 2,29,-1
 377 40 l 1,0,-1
EndSplineSet
EndChar

StartChar: W
Encoding: 87 87 200
Width: 1006
GlyphClass: 2
Flags: W
AnchorPoint: "Anchor-0" 516 741 basechar 0
LayerCount: 2
Fore
SplineSet
9 710 m 1,0,-1
 266 710 l 1,1,-1
 266 652 l 1,2,-1
 248 652 l 2,3,4
 231 652 231 652 212 651 c 128,-1,5
 193 650 193 650 180 648 c 128,-1,6
 167 646 167 646 167 642 c 2,7,-1
 321 47 l 1,8,-1
 289 47 l 1,9,-1
 465 710 l 1,10,-1
 564 710 l 1,11,-1
 745 51 l 1,12,-1
 716 51 l 1,13,-1
 861 632 l 2,14,15
 861 638 861 638 850.5 642.5 c 128,-1,16
 840 647 840 647 823.5 649.5 c 128,-1,17
 807 652 807 652 788 652 c 2,18,-1
 769 652 l 1,19,-1
 769 710 l 1,20,-1
 997 710 l 1,21,-1
 997 652 l 1,22,-1
 992 652 l 2,23,24
 972 652 972 652 953.5 641.5 c 128,-1,25
 935 631 935 631 927 602 c 2,26,-1
 774 0 l 1,27,-1
 668 0 l 1,28,-1
 491 639 l 1,29,-1
 519 639 l 1,30,-1
 348 0 l 1,31,-1
 243 0 l 1,32,-1
 77 616 l 2,33,34
 70 641 70 641 53.5 646.5 c 128,-1,35
 37 652 37 652 14 652 c 2,36,-1
 9 652 l 1,37,-1
 9 710 l 1,0,-1
EndSplineSet
EndChar

StartChar: X
Encoding: 88 88 205
Width: 728
GlyphClass: 2
Flags: W
AnchorPoint: "Anchor-1" 355 0 basechar 0
AnchorPoint: "Anchor-0" 378 741 basechar 0
LayerCount: 2
Fore
SplineSet
43 652 m 1,0,-1
 43 710 l 1,1,-1
 310 710 l 1,2,-1
 310 652 l 1,3,-1
 294 652 l 2,4,5
 276 652 276 652 259.5 651 c 128,-1,6
 243 650 243 650 232.5 647.5 c 128,-1,7
 222 645 222 645 222 641 c 2,8,-1
 400 390 l 1,9,-1
 407 388 l 1,10,-1
 620 91 l 2,11,12
 636 70 636 70 653.5 64 c 128,-1,13
 671 58 671 58 693 58 c 2,14,-1
 703 58 l 1,15,-1
 703 0 l 1,16,-1
 430 0 l 1,17,-1
 430 58 l 1,18,-1
 446 58 l 2,19,20
 464 58 464 58 481 59 c 128,-1,21
 498 60 498 60 508.5 63 c 128,-1,22
 519 66 519 66 519 69 c 2,23,-1
 326 336 l 1,24,-1
 319 340 l 1,25,-1
 121 620 l 2,26,27
 106 642 106 642 88 647 c 128,-1,28
 70 652 70 652 48 652 c 2,29,-1
 43 652 l 1,0,-1
25 0 m 1,30,-1
 25 58 l 1,31,-1
 35 58 l 2,32,33
 59 58 59 58 77 69 c 128,-1,34
 95 80 95 80 117 108 c 2,35,-1
 320 380 l 1,36,-1
 374 339 l 1,37,-1
 179 77 l 2,38,39
 179 72 179 72 190 67.5 c 128,-1,40
 201 63 201 63 217.5 60.5 c 128,-1,41
 234 58 234 58 251 58 c 2,42,-1
 266 58 l 1,43,-1
 266 0 l 1,44,-1
 25 0 l 1,30,-1
405 355 m 1,45,-1
 350 394 l 1,46,-1
 526 632 l 2,47,48
 526 638 526 638 515.5 642.5 c 128,-1,49
 505 647 505 647 489 649.5 c 128,-1,50
 473 652 473 652 455 652 c 2,51,-1
 440 652 l 1,52,-1
 440 710 l 1,53,-1
 678 710 l 1,54,-1
 678 652 l 1,55,-1
 672 652 l 2,56,57
 649 652 649 652 630.5 642.5 c 128,-1,58
 612 633 612 633 591 606 c 2,59,-1
 405 355 l 1,45,-1
EndSplineSet
EndChar

StartChar: Y
Encoding: 89 89 206
Width: 668
GlyphClass: 2
Flags: W
AnchorPoint: "Anchor-1" 337 0 basechar 0
AnchorPoint: "Anchor-0" 337 741 basechar 0
LayerCount: 2
Fore
SplineSet
287 322 m 1,0,-1
 298 280 l 1,1,-1
 83 625 l 2,2,3
 74 638 74 638 64 643.5 c 128,-1,4
 54 649 54 649 42.5 650.5 c 128,-1,5
 31 652 31 652 18 652 c 2,6,-1
 13 652 l 1,7,-1
 13 710 l 1,8,-1
 271 710 l 1,9,-1
 271 652 l 1,10,-1
 254 652 l 2,11,12
 236 652 236 652 219 651 c 128,-1,13
 202 650 202 650 190 647.5 c 128,-1,14
 178 645 178 645 178 641 c 2,15,-1
 373 326 l 1,16,-1
 331 328 l 1,17,-1
 508 632 l 2,18,19
 508 638 508 638 498 642.5 c 128,-1,20
 488 647 488 647 472.5 649.5 c 128,-1,21
 457 652 457 652 440 652 c 2,22,-1
 423 652 l 1,23,-1
 423 710 l 1,24,-1
 655 710 l 1,25,-1
 655 652 l 1,26,-1
 649 652 l 2,27,28
 636 652 636 652 622.5 648.5 c 128,-1,29
 609 645 609 645 595.5 635 c 128,-1,30
 582 625 582 625 570 605 c 2,31,-1
 376 279 l 1,32,-1
 387 322 l 1,33,-1
 387 94 l 2,34,35
 387 72 387 72 411 65 c 128,-1,36
 435 58 435 58 468 58 c 2,37,-1
 484 58 l 1,38,-1
 484 0 l 1,39,-1
 191 0 l 1,40,-1
 191 58 l 1,41,-1
 207 58 l 2,42,43
 240 58 240 58 263.5 65 c 128,-1,44
 287 72 287 72 287 94 c 2,45,-1
 287 322 l 1,0,-1
EndSplineSet
EndChar

StartChar: Z
Encoding: 90 90 216
Width: 622
GlyphClass: 2
Flags: W
AnchorPoint: "Anchor-1" 329 0 basechar 0
AnchorPoint: "Anchor-0" 329 741 basechar 0
LayerCount: 2
Fore
SplineSet
248 641 m 2,0,1
 216 641 216 641 195.5 639.5 c 128,-1,2
 175 638 175 638 163 632.5 c 128,-1,3
 151 627 151 627 145.5 618.5 c 128,-1,4
 140 610 140 610 138 595 c 2,5,-1
 127 516 l 1,6,-1
 65 516 l 1,7,-1
 65 710 l 1,8,-1
 564 710 l 1,9,-1
 564 640 l 1,10,-1
 118 14 l 1,11,-1
 97 69 l 1,12,-1
 384 69 l 2,13,14
 427 69 427 69 450 72.5 c 128,-1,15
 473 76 473 76 482.5 86 c 128,-1,16
 492 96 492 96 495 115 c 2,17,-1
 506 212 l 1,18,-1
 570 212 l 1,19,-1
 570 0 l 1,20,-1
 46 0 l 1,21,-1
 46 73 l 1,22,-1
 481 685 l 1,23,-1
 506 641 l 1,24,-1
 248 641 l 2,0,1
EndSplineSet
EndChar

StartChar: Zcaron
Encoding: 381 381 219
Width: 622
GlyphClass: 1
Flags: W
LayerCount: 2
Fore
SplineSet
269 758 m 1,0,-1
 359 758 l 1,1,-1
 466 893 l 1,2,-1
 466 905 l 1,3,-1
 419 905 l 1,4,-1
 301 811 l 1,5,-1
 337 811 l 1,6,-1
 218 905 l 1,7,-1
 161 905 l 1,8,-1
 161 893 l 1,9,-1
 269 758 l 1,0,-1
248 641 m 2,10,11
 216 641 216 641 195.5 639.5 c 128,-1,12
 175 638 175 638 163 632.5 c 128,-1,13
 151 627 151 627 145.5 618.5 c 128,-1,14
 140 610 140 610 138 595 c 2,15,-1
 127 516 l 1,16,-1
 65 516 l 1,17,-1
 65 710 l 1,18,-1
 564 710 l 1,19,-1
 564 640 l 1,20,-1
 118 14 l 1,21,-1
 97 69 l 1,22,-1
 384 69 l 2,23,24
 427 69 427 69 450 72.5 c 128,-1,25
 473 76 473 76 482.5 86 c 128,-1,26
 492 96 492 96 495 115 c 2,27,-1
 506 212 l 1,28,-1
 570 212 l 1,29,-1
 570 0 l 1,30,-1
 46 0 l 1,31,-1
 46 73 l 1,32,-1
 481 685 l 1,33,-1
 506 641 l 1,34,-1
 248 641 l 2,10,11
EndSplineSet
EndChar

StartChar: AE
Encoding: 198 198 221
Width: 977
GlyphClass: 2
Flags: W
AnchorPoint: "Anchor-0" 603 741 basechar 0
LayerCount: 2
Fore
SplineSet
253 306 m 1,0,-1
 505 306 l 1,1,-1
 505 238 l 1,2,-1
 225 238 l 1,3,-1
 253 306 l 1,0,-1
549 395 m 1,4,5
 594 397 594 397 635.5 398 c 128,-1,6
 677 399 677 399 717 401 c 128,-1,7
 757 403 757 403 797 406 c 1,8,-1
 797 320 l 1,9,10
 757 324 757 324 717 325.5 c 128,-1,11
 677 327 677 327 635.5 329 c 128,-1,12
 594 331 594 331 549 332 c 1,13,-1
 549 395 l 1,4,5
389 0 m 1,14,-1
 389 58 l 1,15,-1
 397 58 l 2,16,17
 417 58 417 58 435.5 59.5 c 128,-1,18
 454 61 454 61 466 64.5 c 128,-1,19
 478 68 478 68 478 74 c 2,20,-1
 478 663 l 1,21,-1
 480 646 l 1,22,-1
 151 77 l 2,23,24
 151 72 151 72 159.5 67.5 c 128,-1,25
 168 63 168 63 183 60.5 c 128,-1,26
 198 58 198 58 219 58 c 2,27,-1
 237 58 l 1,28,-1
 237 0 l 1,29,-1
 9 0 l 1,30,-1
 9 58 l 1,31,-1
 15 58 l 2,32,33
 34 58 34 58 45.5 62 c 128,-1,34
 57 66 57 66 66.5 76.5 c 128,-1,35
 76 87 76 87 86 105 c 2,36,-1
 393 626 l 1,37,38
 393 638 393 638 383 643 c 128,-1,39
 373 648 373 648 355.5 650 c 128,-1,40
 338 652 338 652 313 652 c 2,41,-1
 302 652 l 1,42,-1
 302 710 l 1,43,-1
 893 710 l 1,44,-1
 893 520 l 1,45,-1
 831 520 l 1,46,-1
 820 595 l 2,47,48
 817 614 817 614 803.5 624 c 128,-1,49
 790 634 790 634 763.5 637.5 c 128,-1,50
 737 641 737 641 694 641 c 2,51,-1
 578 641 l 1,52,-1
 578 69 l 1,53,-1
 722 69 l 2,54,55
 754 69 754 69 777 70.5 c 128,-1,56
 800 72 800 72 815 77.5 c 128,-1,57
 830 83 830 83 837.5 92 c 128,-1,58
 845 101 845 101 846 115 c 2,59,-1
 858 215 l 1,60,-1
 920 215 l 1,61,-1
 920 0 l 1,62,-1
 389 0 l 1,14,-1
EndSplineSet
EndChar

StartChar: Eth
Encoding: 208 208 223
Width: 769
GlyphClass: 1
Flags: W
LayerCount: 2
Fore
SplineSet
43 387 m 1,0,-1
 428 387 l 1,1,-1
 428 325 l 1,2,-1
 43 325 l 1,3,-1
 43 387 l 1,0,-1
43 652 m 1,4,-1
 43 710 l 1,5,-1
 347 710 l 2,6,7
 431 710 431 710 499.5 685.5 c 128,-1,8
 568 661 568 661 618.5 615 c 128,-1,9
 669 569 669 569 696 503.5 c 128,-1,10
 723 438 723 438 723 357 c 256,11,12
 723 276 723 276 696 210.5 c 128,-1,13
 669 145 669 145 618.5 97.5 c 128,-1,14
 568 50 568 50 499.5 25 c 128,-1,15
 431 0 431 0 347 0 c 2,16,-1
 43 0 l 1,17,-1
 43 58 l 1,18,-1
 54 58 l 2,19,20
 84 58 84 58 107 65 c 128,-1,21
 130 72 130 72 130 94 c 2,22,-1
 130 616 l 2,23,24
 130 636 130 636 106.5 644 c 128,-1,25
 83 652 83 652 54 652 c 2,26,-1
 43 652 l 1,4,-1
347 641 m 2,27,-1
 230 641 l 1,28,-1
 230 69 l 1,29,-1
 347 69 l 2,30,31
 409 69 409 69 458.5 89 c 128,-1,32
 508 109 508 109 543.5 147 c 128,-1,33
 579 185 579 185 597.5 238 c 128,-1,34
 616 291 616 291 616 357 c 256,35,36
 616 423 616 423 597.5 475.5 c 128,-1,37
 579 528 579 528 543.5 565 c 128,-1,38
 508 602 508 602 458.5 621.5 c 128,-1,39
 409 641 409 641 347 641 c 2,27,-1
EndSplineSet
EndChar

StartChar: Oslash
Encoding: 216 216 224
Width: 791
GlyphClass: 2
Flags: W
AnchorPoint: "Anchor-0" 395 731 basechar 0
LayerCount: 2
Fore
SplineSet
396 650 m 256,0,1
 342 650 342 650 297.5 629 c 128,-1,2
 253 608 253 608 221 569 c 128,-1,3
 189 530 189 530 171 476 c 128,-1,4
 153 422 153 422 153 355 c 0,5,6
 153 280 153 280 170.5 224.5 c 128,-1,7
 188 169 188 169 220 132.5 c 128,-1,8
 252 96 252 96 297 78 c 128,-1,9
 342 60 342 60 396 60 c 0,10,11
 449 60 449 60 493.5 80.5 c 128,-1,12
 538 101 538 101 570.5 140 c 128,-1,13
 603 179 603 179 620.5 233.5 c 128,-1,14
 638 288 638 288 638 355 c 0,15,16
 638 430 638 430 621 485.5 c 128,-1,17
 604 541 604 541 572 577.5 c 128,-1,18
 540 614 540 614 495 632 c 128,-1,19
 450 650 450 650 396 650 c 256,0,1
396 -10 m 0,20,21
 322 -10 322 -10 258.5 16.5 c 128,-1,22
 195 43 195 43 147 91.5 c 128,-1,23
 99 140 99 140 72.5 207 c 128,-1,24
 46 274 46 274 46 355 c 256,25,26
 46 436 46 436 72.5 503 c 128,-1,27
 99 570 99 570 147 618.5 c 128,-1,28
 195 667 195 667 258.5 693.5 c 128,-1,29
 322 720 322 720 396 720 c 0,30,31
 469 720 469 720 532.5 693.5 c 128,-1,32
 596 667 596 667 644 618.5 c 128,-1,33
 692 570 692 570 719 503 c 128,-1,34
 746 436 746 436 746 355 c 256,35,36
 746 274 746 274 719 207 c 128,-1,37
 692 140 692 140 644 91.5 c 128,-1,38
 596 43 596 43 532.5 16.5 c 128,-1,39
 469 -10 469 -10 396 -10 c 0,20,21
14 -14 m 1,40,-1
 686 724 l 1,41,-1
 769 724 l 1,42,-1
 97 -14 l 1,43,-1
 14 -14 l 1,40,-1
EndSplineSet
EndChar

StartChar: Thorn
Encoding: 222 222 226
Width: 648
GlyphClass: 1
Flags: W
LayerCount: 2
Fore
SplineSet
330 710 m 1,0,-1
 43 710 l 1,1,-1
 43 652 l 1,2,-1
 53 652 l 2,3,4
 89 652 89 652 109 645 c 128,-1,5
 129 638 129 638 129 616 c 2,6,-1
 129 94 l 2,7,8
 129 72 129 72 109 65 c 128,-1,9
 89 58 89 58 53 58 c 2,10,-1
 43 58 l 1,11,-1
 43 0 l 1,12,-1
 330 0 l 1,13,-1
 330 58 l 1,14,-1
 307 58 l 2,15,16
 294 58 294 58 280.5 58.5 c 128,-1,17
 267 59 267 59 255.5 60.5 c 128,-1,18
 244 62 244 62 237 63.5 c 128,-1,19
 230 65 230 65 230 68 c 2,20,-1
 230 642 l 2,21,22
 230 645 230 645 237 646.5 c 128,-1,23
 244 648 244 648 255.5 649.5 c 128,-1,24
 267 651 267 651 280.5 651.5 c 128,-1,25
 294 652 294 652 307 652 c 2,26,-1
 330 652 l 1,27,-1
 330 710 l 1,0,-1
596 363 m 256,28,29
 596 425 596 425 565.5 470 c 128,-1,30
 535 515 535 515 478.5 539.5 c 128,-1,31
 422 564 422 564 343 564 c 2,32,-1
 189 564 l 1,33,-1
 176 495 l 1,34,-1
 340 495 l 2,35,36
 392 495 392 495 425 480 c 128,-1,37
 458 465 458 465 473.5 435.5 c 128,-1,38
 489 406 489 406 489 362 c 0,39,40
 489 319 489 319 473 288.5 c 128,-1,41
 457 258 457 258 423.5 241 c 128,-1,42
 390 224 390 224 335 224 c 2,43,-1
 176 224 l 1,44,-1
 176 155 l 1,45,-1
 338 155 l 2,46,47
 418 155 418 155 475.5 181 c 128,-1,48
 533 207 533 207 564.5 254 c 128,-1,49
 596 301 596 301 596 363 c 256,28,29
EndSplineSet
EndChar

StartChar: Hbar
Encoding: 294 294 228
Width: 824
GlyphClass: 1
Flags: W
LayerCount: 2
Fore
SplineSet
198 400 m 1,0,-1
 626 400 l 1,1,-1
 626 332 l 1,2,-1
 198 332 l 1,3,-1
 198 400 l 1,0,-1
43 0 m 1,4,-1
 43 58 l 1,5,-1
 53 58 l 2,6,7
 83 58 83 58 106 65 c 128,-1,8
 129 72 129 72 129 94 c 2,9,-1
 129 616 l 2,10,11
 129 638 129 638 106 645 c 128,-1,12
 83 652 83 652 53 652 c 2,13,-1
 43 652 l 1,14,-1
 43 710 l 1,15,-1
 323 710 l 1,16,-1
 323 652 l 1,17,-1
 314 652 l 2,18,19
 301 652 301 652 286 651.5 c 128,-1,20
 271 651 271 651 258 649.5 c 128,-1,21
 245 648 245 648 237.5 646.5 c 128,-1,22
 230 645 230 645 230 642 c 2,23,-1
 230 68 l 2,24,25
 230 65 230 65 237.5 63.5 c 128,-1,26
 245 62 245 62 258 60.5 c 128,-1,27
 271 59 271 59 286 58.5 c 128,-1,28
 301 58 301 58 315 58 c 2,29,-1
 323 58 l 1,30,-1
 323 0 l 1,31,-1
 43 0 l 1,4,-1
500 0 m 1,32,-1
 500 58 l 1,33,-1
 509 58 l 2,34,35
 523 58 523 58 538 58.5 c 128,-1,36
 553 59 553 59 565.5 60.5 c 128,-1,37
 578 62 578 62 586 63.5 c 128,-1,38
 594 65 594 65 594 68 c 2,39,-1
 594 642 l 2,40,41
 594 645 594 645 586 646.5 c 128,-1,42
 578 648 578 648 565.5 649.5 c 128,-1,43
 553 651 553 651 538 651.5 c 128,-1,44
 523 652 523 652 509 652 c 2,45,-1
 500 652 l 1,46,-1
 500 710 l 1,47,-1
 781 710 l 1,48,-1
 781 652 l 1,49,-1
 771 652 l 2,50,51
 741 652 741 652 717.5 645 c 128,-1,52
 694 638 694 638 694 616 c 2,53,-1
 694 94 l 2,54,55
 694 72 694 72 717.5 65 c 128,-1,56
 741 58 741 58 771 58 c 2,57,-1
 781 58 l 1,58,-1
 781 0 l 1,59,-1
 500 0 l 1,32,-1
43 491 m 1,60,-1
 43 554 l 1,61,-1
 781 554 l 1,62,-1
 781 491 l 1,63,-1
 43 491 l 1,60,-1
EndSplineSet
EndChar

StartChar: Ldot
Encoding: 319 319 230
Width: 610
GlyphClass: 1
Flags: W
LayerCount: 2
Fore
SplineSet
327 710 m 1,0,-1
 43 710 l 1,1,-1
 43 652 l 1,2,-1
 53 652 l 2,3,4
 83 652 83 652 106 645 c 128,-1,5
 129 638 129 638 129 616 c 2,6,-1
 129 94 l 2,7,8
 129 72 129 72 106 65 c 128,-1,9
 83 58 83 58 53 58 c 2,10,-1
 43 58 l 1,11,-1
 43 0 l 1,12,-1
 567 0 l 1,13,-1
 567 224 l 1,14,-1
 502 224 l 1,15,-1
 491 115 l 2,16,17
 489 96 489 96 475.5 86 c 128,-1,18
 462 76 462 76 435 72.5 c 128,-1,19
 408 69 408 69 365 69 c 2,20,-1
 230 69 l 1,21,-1
 230 622 l 2,22,23
 230 640 230 640 255 646 c 128,-1,24
 280 652 280 652 316 652 c 2,25,-1
 327 652 l 1,26,-1
 327 710 l 1,0,-1
500 334 m 256,27,28
 467 334 467 334 447 353.5 c 128,-1,29
 427 373 427 373 427 403 c 0,30,31
 427 435 427 435 447 454.5 c 128,-1,32
 467 474 467 474 500 474 c 256,33,34
 533 474 533 474 553.5 454.5 c 128,-1,35
 574 435 574 435 574 403 c 0,36,37
 574 373 574 373 553.5 353.5 c 128,-1,38
 533 334 533 334 500 334 c 256,27,28
EndSplineSet
Ligature2: "Ligature Substitution lookup 5 subtable" L periodcentered
EndChar

StartChar: Lslash
Encoding: 321 321 231
Width: 610
GlyphClass: 1
Flags: W
LayerCount: 2
Fore
SplineSet
43 187 m 1,0,-1
 445 460 l 1,1,-1
 445 535 l 1,2,-1
 43 262 l 1,3,-1
 43 187 l 1,0,-1
327 710 m 1,4,-1
 43 710 l 1,5,-1
 43 652 l 1,6,-1
 53 652 l 2,7,8
 83 652 83 652 106 645 c 128,-1,9
 129 638 129 638 129 616 c 2,10,-1
 129 94 l 2,11,12
 129 72 129 72 106 65 c 128,-1,13
 83 58 83 58 53 58 c 2,14,-1
 43 58 l 1,15,-1
 43 0 l 1,16,-1
 567 0 l 1,17,-1
 567 224 l 1,18,-1
 502 224 l 1,19,-1
 491 115 l 2,20,21
 489 96 489 96 475.5 86 c 128,-1,22
 462 76 462 76 435 72.5 c 128,-1,23
 408 69 408 69 365 69 c 2,24,-1
 230 69 l 1,25,-1
 230 622 l 2,26,27
 230 640 230 640 255 646 c 128,-1,28
 280 652 280 652 316 652 c 2,29,-1
 327 652 l 1,30,-1
 327 710 l 1,4,-1
EndSplineSet
EndChar

StartChar: Eng
Encoding: 330 330 232
Width: 788
GlyphClass: 1
Flags: W
LayerCount: 2
Fore
SplineSet
666 -14 m 2,0,1
 666 -69 666 -69 650 -107 c 128,-1,2
 634 -145 634 -145 606.5 -168 c 128,-1,3
 579 -191 579 -191 547 -201.5 c 128,-1,4
 515 -212 515 -212 483 -212 c 0,5,6
 454 -212 454 -212 425 -207.5 c 128,-1,7
 396 -203 396 -203 381 -198 c 1,8,-1
 381 -124 l 1,9,10
 392 -126 392 -126 408 -130 c 128,-1,11
 424 -134 424 -134 442.5 -137 c 128,-1,12
 461 -140 461 -140 481 -140 c 0,13,14
 515 -140 515 -140 540 -127 c 128,-1,15
 565 -114 565 -114 578.5 -86 c 128,-1,16
 592 -58 592 -58 592 -15 c 2,17,-1
 592 28 l 1,18,-1
 619 -74 l 1,19,-1
 174 675 l 1,20,-1
 204 679 l 1,21,-1
 204 77 l 2,22,23
 204 72 204 72 215 67.5 c 128,-1,24
 226 63 226 63 244.5 60.5 c 128,-1,25
 263 58 263 58 284 58 c 2,26,-1
 301 58 l 1,27,-1
 301 0 l 1,28,-1
 43 0 l 1,29,-1
 43 58 l 1,30,-1
 54 58 l 2,31,32
 78 58 78 58 94.5 62.5 c 128,-1,33
 111 67 111 67 120 77.5 c 128,-1,34
 129 88 129 88 129 104 c 2,35,-1
 129 616 l 2,36,37
 129 631 129 631 120 638.5 c 128,-1,38
 111 646 111 646 94 649 c 128,-1,39
 77 652 77 652 54 652 c 2,40,-1
 43 652 l 1,41,-1
 43 710 l 1,42,-1
 261 710 l 1,43,-1
 622 99 l 1,44,-1
 591 96 l 1,45,-1
 591 633 l 2,46,47
 591 639 591 639 580 643 c 128,-1,48
 569 647 569 647 551.5 649.5 c 128,-1,49
 534 652 534 652 512 652 c 2,50,-1
 495 652 l 1,51,-1
 495 710 l 1,52,-1
 753 710 l 1,53,-1
 753 652 l 1,54,-1
 741 652 l 2,55,56
 718 652 718 652 701 647.5 c 128,-1,57
 684 643 684 643 675 632.5 c 128,-1,58
 666 622 666 622 666 606 c 2,59,-1
 666 -14 l 2,0,1
EndSplineSet
Substitution2: "'ss07' Style Set 7 lookup 67 subtable" Eng.afr
EndChar

StartChar: OE
Encoding: 338 338 233
Width: 1015
GlyphClass: 1
Flags: W
LayerCount: 2
Fore
SplineSet
593 395 m 1,0,1
 637 397 637 397 677.5 398 c 128,-1,2
 718 399 718 399 757.5 401 c 128,-1,3
 797 403 797 403 835 406 c 1,4,-1
 835 320 l 1,5,6
 797 324 797 324 757.5 325.5 c 128,-1,7
 718 327 718 327 677.5 328.5 c 128,-1,8
 637 330 637 330 593 331 c 1,9,-1
 593 395 l 1,0,1
428 67 m 2,10,-1
 522 67 l 1,11,-1
 522 643 l 1,12,-1
 428 643 l 2,13,14
 364 643 364 643 312.5 624 c 128,-1,15
 261 605 261 605 225.5 567.5 c 128,-1,16
 190 530 190 530 171 476 c 128,-1,17
 152 422 152 422 152 353 c 256,18,19
 152 284 152 284 171 230.5 c 128,-1,20
 190 177 190 177 225.5 140.5 c 128,-1,21
 261 104 261 104 312.5 85.5 c 128,-1,22
 364 67 364 67 428 67 c 2,10,-1
428 0 m 2,23,24
 342 0 342 0 272 24.5 c 128,-1,25
 202 49 202 49 151 95 c 128,-1,26
 100 141 100 141 73 206.5 c 128,-1,27
 46 272 46 272 46 353 c 256,28,29
 46 434 46 434 73 499.5 c 128,-1,30
 100 565 100 565 151 612.5 c 128,-1,31
 202 660 202 660 272 685 c 128,-1,32
 342 710 342 710 428 710 c 2,33,-1
 931 710 l 1,34,-1
 931 520 l 1,35,-1
 870 520 l 1,36,-1
 859 595 l 2,37,38
 857 614 857 614 846.5 624 c 128,-1,39
 836 634 836 634 811.5 637.5 c 128,-1,40
 787 641 787 641 744 641 c 2,41,-1
 622 641 l 1,42,-1
 622 69 l 1,43,-1
 771 69 l 2,44,45
 803 69 803 69 824.5 70.5 c 128,-1,46
 846 72 846 72 859 77.5 c 128,-1,47
 872 83 872 83 878 92 c 128,-1,48
 884 101 884 101 886 115 c 2,49,-1
 896 215 l 1,50,-1
 959 215 l 1,51,-1
 959 0 l 1,52,-1
 428 0 l 2,23,24
EndSplineSet
EndChar

StartChar: Tbar
Encoding: 358 358 234
Width: 660
GlyphClass: 1
Flags: W
LayerCount: 2
Fore
SplineSet
135 385 m 1,0,-1
 524 385 l 1,1,-1
 524 323 l 1,2,-1
 135 323 l 1,3,-1
 135 385 l 1,0,-1
280 94 m 2,4,-1
 280 644 l 1,5,-1
 213 644 l 2,6,7
 174 644 174 644 152.5 639.5 c 128,-1,8
 131 635 131 635 122.5 624.5 c 128,-1,9
 114 614 114 614 110 594 c 2,10,-1
 99 516 l 1,11,-1
 38 516 l 1,12,-1
 38 710 l 1,13,-1
 622 710 l 1,14,-1
 622 516 l 1,15,-1
 561 516 l 1,16,-1
 549 594 l 2,17,18
 547 614 547 614 537.5 624.5 c 128,-1,19
 528 635 528 635 507 639.5 c 128,-1,20
 486 644 486 644 446 644 c 2,21,-1
 380 644 l 1,22,-1
 380 94 l 2,23,24
 380 72 380 72 403.5 65 c 128,-1,25
 427 58 427 58 460 58 c 2,26,-1
 476 58 l 1,27,-1
 476 0 l 1,28,-1
 183 0 l 1,29,-1
 183 58 l 1,30,-1
 199 58 l 2,31,32
 232 58 232 58 256 65 c 128,-1,33
 280 72 280 72 280 94 c 2,4,-1
EndSplineSet
EndChar

StartChar: Bhook
Encoding: 385 385 235
Width: 729
GlyphClass: 2
Flags: W
AnchorPoint: "Anchor-1" 395 0 basechar 0
AnchorPoint: "Anchor-0" 366 740 basechar 0
LayerCount: 2
Fore
SplineSet
272 405 m 1,0,-1
 403 405 l 2,1,2
 455 405 455 405 485.5 420.5 c 128,-1,3
 516 436 516 436 529 463.5 c 128,-1,4
 542 491 542 491 542 526 c 0,5,6
 542 563 542 563 528 589 c 128,-1,7
 514 615 514 615 483 629 c 128,-1,8
 452 643 452 643 402 643 c 2,9,-1
 294 643 l 1,10,-1
 294 67 l 1,11,-1
 413 67 l 2,12,13
 469 67 469 67 504 83 c 128,-1,14
 539 99 539 99 556 129.5 c 128,-1,15
 573 160 573 160 573 204 c 0,16,17
 573 241 573 241 557 271.5 c 128,-1,18
 541 302 541 302 506 320.5 c 128,-1,19
 471 339 471 339 413 339 c 2,20,-1
 272 339 l 1,21,-1
 272 405 l 1,0,-1
191 710 m 2,22,-1
 403 710 l 2,23,24
 461 710 461 710 505.5 697.5 c 128,-1,25
 550 685 550 685 581 661.5 c 128,-1,26
 612 638 612 638 628 604.5 c 128,-1,27
 644 571 644 571 644 530 c 0,28,29
 644 480 644 480 615.5 442 c 128,-1,30
 587 404 587 404 532 383 c 128,-1,31
 477 362 477 362 395 362 c 1,32,-1
 470 396 l 1,33,-1
 470 354 l 1,34,-1
 406 386 l 1,35,36
 494 386 494 386 554 363 c 128,-1,37
 614 340 614 340 645 298 c 128,-1,38
 676 256 676 256 676 199 c 0,39,40
 676 153 676 153 658.5 116 c 128,-1,41
 641 79 641 79 607.5 53 c 128,-1,42
 574 27 574 27 526 13.5 c 128,-1,43
 478 0 478 0 415 0 c 2,44,-1
 107 0 l 1,45,-1
 107 58 l 1,46,-1
 117 58 l 2,47,48
 147 58 147 58 170.5 65 c 128,-1,49
 194 72 194 72 194 94 c 2,50,-1
 194 643 l 1,51,-1
 189 643 l 2,52,53
 153 643 153 643 129.5 633 c 128,-1,54
 106 623 106 623 95 602 c 128,-1,55
 84 581 84 581 84 545 c 0,56,57
 84 527 84 527 89.5 506.5 c 128,-1,58
 95 486 95 486 103 468 c 1,59,-1
 1 468 l 1,60,61
 -6 485 -6 485 -8.5 509.5 c 128,-1,62
 -11 534 -11 534 -11 548 c 0,63,64
 -11 595 -11 595 9.5 631.5 c 128,-1,65
 30 668 30 668 74.5 689 c 128,-1,66
 119 710 119 710 191 710 c 2,22,-1
EndSplineSet
EndChar

StartChar: Dhook
Encoding: 394 394 236
Width: 833
GlyphClass: 2
Flags: W
AnchorPoint: "Anchor-1" 417 0 basechar 0
AnchorPoint: "Anchor-0" 393 741 basechar 0
LayerCount: 2
Fore
SplineSet
193 710 m 2,0,-1
 411 710 l 2,1,2
 495 710 495 710 564 685.5 c 128,-1,3
 633 661 633 661 683 615 c 128,-1,4
 733 569 733 569 760 503.5 c 128,-1,5
 787 438 787 438 787 357 c 256,6,7
 787 276 787 276 760 210.5 c 128,-1,8
 733 145 733 145 683 97.5 c 128,-1,9
 633 50 633 50 564 25 c 128,-1,10
 495 0 495 0 411 0 c 2,11,-1
 107 0 l 1,12,-1
 107 58 l 1,13,-1
 118 58 l 2,14,15
 148 58 148 58 171 65 c 128,-1,16
 194 72 194 72 194 94 c 2,17,-1
 194 643 l 1,18,-1
 190 643 l 2,19,20
 155 643 155 643 131.5 634 c 128,-1,21
 108 625 108 625 96 605.5 c 128,-1,22
 84 586 84 586 84 553 c 0,23,24
 84 529 84 529 89.5 508 c 128,-1,25
 95 487 95 487 103 468 c 1,26,-1
 1 468 l 1,27,28
 -6 485 -6 485 -8.5 510 c 128,-1,29
 -11 535 -11 535 -11 548 c 0,30,31
 -11 595 -11 595 9.5 631.5 c 128,-1,32
 30 668 30 668 75 689 c 128,-1,33
 120 710 120 710 193 710 c 2,0,-1
411 641 m 2,34,-1
 294 641 l 1,35,-1
 294 69 l 1,36,-1
 411 69 l 2,37,38
 474 69 474 69 523.5 89 c 128,-1,39
 573 109 573 109 608 147 c 128,-1,40
 643 185 643 185 661.5 238 c 128,-1,41
 680 291 680 291 680 357 c 256,42,43
 680 423 680 423 661.5 475.5 c 128,-1,44
 643 528 643 528 608 565 c 128,-1,45
 573 602 573 602 523.5 621.5 c 128,-1,46
 474 641 474 641 411 641 c 2,34,-1
EndSplineSet
EndChar

StartChar: Schwa
Encoding: 399 399 237
Width: 722
GlyphClass: 1
Flags: W
LayerCount: 2
Fore
SplineSet
356 720 m 0,0,1
 449 720 449 720 521 675.5 c 128,-1,2
 593 631 593 631 634.5 550 c 128,-1,3
 676 469 676 469 676 358 c 0,4,5
 676 276 676 276 651.5 209 c 128,-1,6
 627 142 627 142 584 92.5 c 128,-1,7
 541 43 541 43 484 16.5 c 128,-1,8
 427 -10 427 -10 362 -10 c 0,9,10
 268 -10 268 -10 201 32.5 c 128,-1,11
 134 75 134 75 99 162 c 128,-1,12
 64 249 64 249 63 382 c 1,13,-1
 630 382 l 1,14,-1
 632 312 l 1,15,-1
 134 312 l 1,16,-1
 168 339 l 1,17,18
 169 267 169 267 183 214.5 c 128,-1,19
 197 162 197 162 221.5 127.5 c 128,-1,20
 246 93 246 93 281.5 76.5 c 128,-1,21
 317 60 317 60 362 60 c 0,22,23
 404 60 404 60 442 80 c 128,-1,24
 480 100 480 100 508.5 138.5 c 128,-1,25
 537 177 537 177 553.5 232 c 128,-1,26
 570 287 570 287 570 356 c 0,27,28
 570 427 570 427 555 482 c 128,-1,29
 540 537 540 537 511 574.5 c 128,-1,30
 482 612 482 612 442 631 c 128,-1,31
 402 650 402 650 353 650 c 0,32,33
 299 650 299 650 257.5 632 c 128,-1,34
 216 614 216 614 185.5 583.5 c 128,-1,35
 155 553 155 553 131 514 c 1,36,-1
 71 557 l 1,37,38
 99 602 99 602 139 639 c 128,-1,39
 179 676 179 676 233.5 698 c 128,-1,40
 288 720 288 720 356 720 c 0,0,1
EndSplineSet
EndChar

StartChar: Khook
Encoding: 408 408 238
Width: 731
GlyphClass: 2
Flags: W
AnchorPoint: "Anchor-1" 373 0 basechar 0
AnchorPoint: "Anchor-0" 417 741 basechar 0
LayerCount: 2
Fore
SplineSet
43 0 m 1,0,-1
 43 58 l 1,1,-1
 53 58 l 2,2,3
 83 58 83 58 106 65 c 128,-1,4
 129 72 129 72 129 94 c 2,5,-1
 129 616 l 2,6,7
 129 638 129 638 106 645 c 128,-1,8
 83 652 83 652 53 652 c 2,9,-1
 43 652 l 1,10,-1
 43 710 l 1,11,-1
 323 710 l 1,12,-1
 323 652 l 1,13,-1
 314 652 l 2,14,15
 301 652 301 652 286 651.5 c 128,-1,16
 271 651 271 651 258 649.5 c 128,-1,17
 245 648 245 648 237.5 646.5 c 128,-1,18
 230 645 230 645 230 642 c 2,19,-1
 230 68 l 2,20,21
 230 65 230 65 237.5 63.5 c 128,-1,22
 245 62 245 62 258 60.5 c 128,-1,23
 271 59 271 59 286 58.5 c 128,-1,24
 301 58 301 58 315 58 c 2,25,-1
 323 58 l 1,26,-1
 323 0 l 1,27,-1
 43 0 l 1,0,-1
631 719 m 0,28,29
 668 719 668 719 690.5 699.5 c 128,-1,30
 713 680 713 680 724 650 c 128,-1,31
 735 620 735 620 735 587 c 0,32,33
 735 550 735 550 729.5 518 c 128,-1,34
 724 486 724 486 716 468 c 1,35,-1
 619 468 l 1,36,37
 626 482 626 482 631.5 501 c 128,-1,38
 637 520 637 520 641 542.5 c 128,-1,39
 645 565 645 565 645 588 c 0,40,41
 645 615 645 615 638 629 c 128,-1,42
 631 643 631 643 615 643 c 0,43,44
 602 643 602 643 588.5 635.5 c 128,-1,45
 575 628 575 628 554.5 606.5 c 128,-1,46
 534 585 534 585 499 543 c 2,47,-1
 345 361 l 1,48,-1
 338 405 l 1,49,-1
 618 92 l 2,50,51
 631 78 631 78 642 70.5 c 128,-1,52
 653 63 653 63 666.5 60.5 c 128,-1,53
 680 58 680 58 699 58 c 2,54,-1
 709 58 l 1,55,-1
 709 0 l 1,56,-1
 422 0 l 1,57,-1
 422 58 l 1,58,-1
 432 58 l 2,59,60
 450 58 450 58 468 59 c 128,-1,61
 486 60 486 60 498.5 62.5 c 128,-1,62
 511 65 511 65 511 68 c 2,63,-1
 262 348 l 1,64,-1
 262 366 l 1,65,-1
 467 610 l 2,66,67
 493 640 493 640 514.5 661 c 128,-1,68
 536 682 536 682 554.5 695 c 128,-1,69
 573 708 573 708 592 713.5 c 128,-1,70
 611 719 611 719 631 719 c 0,28,29
EndSplineSet
EndChar

StartChar: Yhook
Encoding: 435 435 239
Width: 724
GlyphClass: 2
Flags: W
AnchorPoint: "Anchor-1" 341 0 basechar 0
AnchorPoint: "Anchor-0" 370 741 basechar 0
LayerCount: 2
Fore
SplineSet
469 576 m 2,0,1
 500 630 500 630 524.5 661 c 128,-1,2
 549 692 549 692 574 705.5 c 128,-1,3
 599 719 599 719 629 719 c 0,4,5
 671 719 671 719 694.5 700.5 c 128,-1,6
 718 682 718 682 728 651.5 c 128,-1,7
 738 621 738 621 738 585 c 0,8,9
 738 552 738 552 732.5 519 c 128,-1,10
 727 486 727 486 719 468 c 1,11,-1
 622 468 l 1,12,13
 629 481 629 481 634.5 500 c 128,-1,14
 640 519 640 519 644 540 c 128,-1,15
 648 561 648 561 648 580 c 0,16,17
 648 613 648 613 640.5 628 c 128,-1,18
 633 643 633 643 615 643 c 0,19,20
 602 643 602 643 590 633.5 c 128,-1,21
 578 624 578 624 563 602 c 128,-1,22
 548 580 548 580 526 541 c 2,23,-1
 376 279 l 1,24,-1
 387 322 l 1,25,-1
 387 94 l 2,26,27
 387 72 387 72 410.5 65 c 128,-1,28
 434 58 434 58 467 58 c 2,29,-1
 483 58 l 1,30,-1
 483 0 l 1,31,-1
 190 0 l 1,32,-1
 190 58 l 1,33,-1
 206 58 l 2,34,35
 239 58 239 58 262.5 65 c 128,-1,36
 286 72 286 72 286 94 c 2,37,-1
 286 322 l 1,38,-1
 297 280 l 1,39,-1
 83 625 l 2,40,41
 75 638 75 638 64.5 643.5 c 128,-1,42
 54 649 54 649 42.5 650.5 c 128,-1,43
 31 652 31 652 18 652 c 2,44,-1
 13 652 l 1,45,-1
 13 710 l 1,46,-1
 271 710 l 1,47,-1
 271 652 l 1,48,-1
 254 652 l 2,49,50
 236 652 236 652 219 651 c 128,-1,51
 202 650 202 650 190 647.5 c 128,-1,52
 178 645 178 645 178 641 c 2,53,-1
 372 326 l 1,54,-1
 330 328 l 1,55,-1
 469 576 l 2,0,1
EndSplineSet
EndChar

StartChar: Germandbls
Encoding: 7838 7838 240
Width: 831
GlyphClass: 1
Flags: W
LayerCount: 2
Fore
SplineSet
576 56 m 0,0,1
 613 56 613 56 637.5 70.5 c 128,-1,2
 662 85 662 85 674.5 112.5 c 128,-1,3
 687 140 687 140 687 178 c 0,4,5
 687 225 687 225 668.5 258.5 c 128,-1,6
 650 292 650 292 619 314 c 128,-1,7
 588 336 588 336 548.5 348.5 c 128,-1,8
 509 361 509 361 466 366 c 1,9,-1
 466 433 l 1,10,-1
 624 691 l 1,11,-1
 662 645 l 1,12,-1
 403 645 l 2,13,14
 354 645 354 645 321 633.5 c 128,-1,15
 288 622 288 622 269 600.5 c 128,-1,16
 250 579 250 579 241.5 546 c 128,-1,17
 233 513 233 513 233 469 c 2,18,-1
 233 0 l 1,19,-1
 45 0 l 1,20,-1
 45 58 l 1,21,-1
 54 58 l 2,22,23
 89 58 89 58 111 65 c 128,-1,24
 133 72 133 72 133 94 c 2,25,-1
 133 451 l 2,26,27
 133 514 133 514 147.5 562.5 c 128,-1,28
 162 611 162 611 193.5 643.5 c 128,-1,29
 225 676 225 676 276.5 693 c 128,-1,30
 328 710 328 710 403 710 c 2,31,-1
 708 710 l 1,32,-1
 708 656 l 1,33,-1
 552 396 l 1,34,-1
 514 421 l 1,35,36
 557 416 557 416 604.5 401 c 128,-1,37
 652 386 652 386 693.5 359 c 128,-1,38
 735 332 735 332 761 291 c 128,-1,39
 787 250 787 250 787 192 c 0,40,41
 787 129 787 129 759.5 83 c 128,-1,42
 732 37 732 37 685.5 13.5 c 128,-1,43
 639 -10 639 -10 581 -10 c 0,44,45
 531 -10 531 -10 490 8 c 128,-1,46
 449 26 449 26 420.5 65 c 128,-1,47
 392 104 392 104 377 165 c 1,48,-1
 416 155 l 1,49,-1
 400 0 l 1,50,-1
 339 0 l 1,51,-1
 339 218 l 1,52,-1
 405 218 l 1,53,54
 414 183 414 183 429 153.5 c 128,-1,55
 444 124 444 124 465 102 c 128,-1,56
 486 80 486 80 513.5 68 c 128,-1,57
 541 56 541 56 576 56 c 0,0,1
EndSplineSet
EndChar

StartChar: Delta
Encoding: 916 916 241
Width: 722
GlyphClass: 1
Flags: W
LayerCount: 2
Fore
SplineSet
43 0 m 1,0,-1
 43 77 l 1,1,-1
 310 710 l 1,2,-1
 412 710 l 1,3,-1
 680 77 l 1,4,-1
 680 0 l 1,5,-1
 43 0 l 1,0,-1
591 47 m 1,6,-1
 319 700 l 1,7,-1
 378 699 l 1,8,-1
 106 46 l 1,9,-1
 74 90 l 1,10,-1
 619 90 l 1,11,-1
 591 47 l 1,6,-1
EndSplineSet
EndChar

StartChar: Omega
Encoding: 937 937 242
Width: 818
GlyphClass: 1
Flags: W
LayerCount: 2
Fore
SplineSet
409 720 m 256,0,1
 338 720 338 720 279.5 697.5 c 128,-1,2
 221 675 221 675 179 635.5 c 128,-1,3
 137 596 137 596 114 543 c 128,-1,4
 91 490 91 490 91 430 c 0,5,6
 91 386 91 386 104 344 c 128,-1,7
 117 302 117 302 140 262.5 c 128,-1,8
 163 223 163 223 192 186 c 128,-1,9
 221 149 221 149 252 114.5 c 128,-1,10
 283 80 283 80 312 47 c 1,11,-1
 311 72 l 1,12,-1
 220 72 l 2,13,14
 184 72 184 72 163.5 75.5 c 128,-1,15
 143 79 143 79 133.5 88 c 128,-1,16
 124 97 124 97 122 115 c 2,17,-1
 111 192 l 1,18,-1
 49 192 l 1,19,-1
 49 0 l 1,20,-1
 356 0 l 1,21,-1
 356 95 l 1,22,23
 325 134 325 134 295 172 c 128,-1,24
 265 210 265 210 242 250 c 128,-1,25
 219 290 219 290 205 334.5 c 128,-1,26
 191 379 191 379 191 430 c 0,27,28
 191 495 191 495 216.5 545.5 c 128,-1,29
 242 596 242 596 290.5 625 c 128,-1,30
 339 654 339 654 409 654 c 256,31,32
 479 654 479 654 527.5 625 c 128,-1,33
 576 596 576 596 601 545.5 c 128,-1,34
 626 495 626 495 626 430 c 0,35,36
 626 379 626 379 612.5 334.5 c 128,-1,37
 599 290 599 290 575.5 250 c 128,-1,38
 552 210 552 210 522.5 172 c 128,-1,39
 493 134 493 134 461 95 c 1,40,-1
 461 0 l 1,41,-1
 769 0 l 1,42,-1
 769 192 l 1,43,-1
 706 192 l 1,44,-1
 696 115 l 2,45,46
 694 97 694 97 685 88 c 128,-1,47
 676 79 676 79 655.5 75.5 c 128,-1,48
 635 72 635 72 598 72 c 2,49,-1
 507 72 l 1,50,-1
 506 47 l 1,51,52
 536 80 536 80 566.5 114.5 c 128,-1,53
 597 149 597 149 625.5 186 c 128,-1,54
 654 223 654 223 677 262.5 c 128,-1,55
 700 302 700 302 713.5 344 c 128,-1,56
 727 386 727 386 727 430 c 0,57,58
 727 490 727 490 704 543 c 128,-1,59
 681 596 681 596 639 635.5 c 128,-1,60
 597 675 597 675 538.5 697.5 c 128,-1,61
 480 720 480 720 409 720 c 256,0,1
EndSplineSet
EndChar

StartChar: Djecyr
Encoding: 1026 1026 244
Width: 814
GlyphClass: 2
Flags: W
AnchorPoint: "Anchor-0" 318 741 basechar 0
LayerCount: 2
Fore
SplineSet
776 199 m 0,0,1
 776 145 776 145 759.5 104.5 c 128,-1,2
 743 64 743 64 711 35.5 c 128,-1,3
 679 7 679 7 633.5 -6.5 c 128,-1,4
 588 -20 588 -20 531 -20 c 1,5,-1
 531 48 l 1,6,7
 576 48 576 48 606.5 63 c 128,-1,8
 637 78 637 78 653.5 111 c 128,-1,9
 670 144 670 144 670 199 c 0,10,11
 670 264 670 264 631.5 307 c 128,-1,12
 593 350 593 350 518 350 c 0,13,14
 461 350 461 350 411 338.5 c 128,-1,15
 361 327 361 327 311 297 c 1,16,-1
 311 364 l 1,17,18
 358 391 358 391 410 404.5 c 128,-1,19
 462 418 462 418 519 418 c 0,20,21
 607 418 607 418 664 390 c 128,-1,22
 721 362 721 362 748.5 312.5 c 128,-1,23
 776 263 776 263 776 199 c 0,0,1
163 0 m 1,24,-1
 163 58 l 1,25,-1
 179 58 l 2,26,27
 213 58 213 58 236.5 65 c 128,-1,28
 260 72 260 72 260 94 c 2,29,-1
 260 644 l 1,30,-1
 213 644 l 2,31,32
 174 644 174 644 152.5 639.5 c 128,-1,33
 131 635 131 635 122.5 624.5 c 128,-1,34
 114 614 114 614 110 594 c 2,35,-1
 99 516 l 1,36,-1
 38 516 l 1,37,-1
 38 710 l 1,38,-1
 622 710 l 1,39,-1
 622 524 l 1,40,-1
 561 524 l 1,41,-1
 549 594 l 2,42,43
 546 614 546 614 537 624.5 c 128,-1,44
 528 635 528 635 507 639.5 c 128,-1,45
 486 644 486 644 446 644 c 2,46,-1
 360 644 l 1,47,-1
 360 68 l 2,48,49
 360 65 360 65 370.5 62.5 c 128,-1,50
 381 60 381 60 395.5 59 c 128,-1,51
 410 58 410 58 424 58 c 2,52,-1
 432 58 l 1,53,-1
 432 0 l 1,54,-1
 163 0 l 1,24,-1
EndSplineSet
EndChar

StartChar: Eukrcyr
Encoding: 1028 1028 245
Width: 717
GlyphClass: 2
Flags: W
AnchorPoint: "Anchor-1" 374 0 basechar 0
AnchorPoint: "Anchor-0" 374 741 basechar 0
LayerCount: 2
Fore
SplineSet
104 395 m 1,0,1
 136 396 136 396 167.5 396.5 c 128,-1,2
 199 397 199 397 229 397.5 c 128,-1,3
 259 398 259 398 288 398.5 c 128,-1,4
 317 399 317 399 346.5 400 c 128,-1,5
 376 401 376 401 404.5 402.5 c 128,-1,6
 433 404 433 404 462 406 c 1,7,-1
 462 320 l 1,8,9
 433 322 433 322 404.5 324 c 128,-1,10
 376 326 376 326 346.5 326.5 c 128,-1,11
 317 327 317 327 288 328 c 128,-1,12
 259 329 259 329 229 329 c 128,-1,13
 199 329 199 329 167.5 330 c 128,-1,14
 136 331 136 331 104 332 c 1,15,-1
 104 395 l 1,0,1
380 650 m 0,16,17
 330 650 330 650 288.5 629 c 128,-1,18
 247 608 247 608 216.5 568.5 c 128,-1,19
 186 529 186 529 169.5 475 c 128,-1,20
 153 421 153 421 153 355 c 256,21,22
 153 289 153 289 169.5 235 c 128,-1,23
 186 181 186 181 216.5 142 c 128,-1,24
 247 103 247 103 292 81.5 c 128,-1,25
 337 60 337 60 394 60 c 0,26,27
 455 60 455 60 499.5 87 c 128,-1,28
 544 114 544 114 573 158 c 128,-1,29
 602 202 602 202 614 255 c 1,30,-1
 680 232 l 1,31,32
 663 161 663 161 623 106.5 c 128,-1,33
 583 52 583 52 523.5 21 c 128,-1,34
 464 -10 464 -10 389 -10 c 256,35,36
 314 -10 314 -10 251.5 16.5 c 128,-1,37
 189 43 189 43 142.5 91.5 c 128,-1,38
 96 140 96 140 71 207 c 128,-1,39
 46 274 46 274 46 355 c 0,40,41
 46 435 46 435 71.5 502 c 128,-1,42
 97 569 97 569 142.5 618 c 128,-1,43
 188 667 188 667 249 693.5 c 128,-1,44
 310 720 310 720 379 720 c 0,45,46
 445 720 445 720 493.5 699.5 c 128,-1,47
 542 679 542 679 573 641.5 c 128,-1,48
 604 604 604 604 617 553 c 1,49,-1
 586 556 l 1,50,-1
 603 710 l 1,51,-1
 666 710 l 1,52,-1
 666 496 l 1,53,-1
 594 496 l 1,54,55
 579 540 579 540 552 574.5 c 128,-1,56
 525 609 525 609 483 629.5 c 128,-1,57
 441 650 441 650 380 650 c 0,16,17
EndSplineSet
Substitution2: "'ss01' Style Set 1 lookup 61 subtable" Ieukran.alt1
EndChar

StartChar: Yukrcyr
Encoding: 1031 1031 248
Width: 366
GlyphClass: 2
Flags: W
AnchorPoint: "Anchor-1" 183 0 basechar 0
AnchorPoint: "Anchor-0" 183 892 basechar 0
LayerCount: 2
Fore
SplineSet
156 844 m 256,0,1
 156 816 156 816 138.5 799 c 128,-1,2
 121 782 121 782 95 782 c 256,3,4
 69 782 69 782 51 799 c 128,-1,5
 33 816 33 816 33 844 c 256,6,7
 33 872 33 872 51 888.5 c 128,-1,8
 69 905 69 905 95 905 c 256,9,10
 121 905 121 905 138.5 888.5 c 128,-1,11
 156 872 156 872 156 844 c 256,0,1
332 844 m 256,12,13
 332 816 332 816 314.5 799 c 128,-1,14
 297 782 297 782 271 782 c 256,15,16
 245 782 245 782 227 799 c 128,-1,17
 209 816 209 816 209 844 c 256,18,19
 209 872 209 872 227 888.5 c 128,-1,20
 245 905 245 905 271 905 c 256,21,22
 297 905 297 905 314.5 888.5 c 128,-1,23
 332 872 332 872 332 844 c 256,12,13
133 94 m 2,24,-1
 133 616 l 2,25,26
 133 638 133 638 109.5 645 c 128,-1,27
 86 652 86 652 53 652 c 2,28,-1
 43 652 l 1,29,-1
 43 710 l 1,30,-1
 323 710 l 1,31,-1
 323 652 l 1,32,-1
 314 652 l 2,33,34
 281 652 281 652 257 645 c 128,-1,35
 233 638 233 638 233 616 c 2,36,-1
 233 94 l 2,37,38
 233 72 233 72 257 65 c 128,-1,39
 281 58 281 58 314 58 c 2,40,-1
 323 58 l 1,41,-1
 323 0 l 1,42,-1
 43 0 l 1,43,-1
 43 58 l 1,44,-1
 53 58 l 2,45,46
 86 58 86 58 109.5 65 c 128,-1,47
 133 72 133 72 133 94 c 2,24,-1
EndSplineSet
EndChar

StartChar: Ljecyr
Encoding: 1033 1033 250
Width: 1009
GlyphClass: 2
Flags: W
AnchorPoint: "Anchor-0" 404 741 basechar 0
LayerCount: 2
Fore
SplineSet
243 710 m 1,0,-1
 563 710 l 1,1,-1
 563 642 l 1,2,-1
 243 642 l 1,3,-1
 243 710 l 1,0,-1
179 270 m 2,4,-1
 206 612 l 2,5,6
 208 636 208 636 185.5 644 c 128,-1,7
 163 652 163 652 132 652 c 2,8,-1
 121 652 l 1,9,-1
 121 710 l 1,10,-1
 290 710 l 1,11,-1
 256 268 l 2,12,13
 248 169 248 169 226.5 106 c 128,-1,14
 205 43 205 43 168 14 c 128,-1,15
 131 -15 131 -15 76 -15 c 0,16,17
 52 -15 52 -15 35 -10 c 128,-1,18
 18 -5 18 -5 8 0 c 1,19,-1
 8 94 l 1,20,21
 15 90 15 90 32 84.5 c 128,-1,22
 49 79 49 79 74 79 c 0,23,24
 105 79 105 79 126.5 98 c 128,-1,25
 148 117 148 117 161 159 c 128,-1,26
 174 201 174 201 179 270 c 2,4,-1
704 0 m 2,27,-1
 416 0 l 1,28,-1
 416 58 l 1,29,-1
 426 58 l 2,30,31
 447 58 447 58 465.5 60.5 c 128,-1,32
 484 63 484 63 495 68.5 c 128,-1,33
 506 74 506 74 506 83 c 2,34,-1
 506 710 l 1,35,-1
 704 710 l 1,36,-1
 704 652 l 1,37,-1
 679 652 l 2,38,39
 654 652 654 652 630 647.5 c 128,-1,40
 606 643 606 643 606 631 c 2,41,-1
 606 68 l 1,42,-1
 702 68 l 2,43,44
 760 68 760 68 795.5 86.5 c 128,-1,45
 831 105 831 105 847.5 138.5 c 128,-1,46
 864 172 864 172 864 217 c 0,47,48
 864 264 864 264 848 297 c 128,-1,49
 832 330 832 330 797.5 347.5 c 128,-1,50
 763 365 763 365 707 365 c 2,51,-1
 572 365 l 1,52,-1
 572 433 l 1,53,-1
 709 433 l 2,54,55
 791 433 791 433 850 407.5 c 128,-1,56
 909 382 909 382 940 334 c 128,-1,57
 971 286 971 286 971 218 c 0,58,59
 971 154 971 154 938.5 105 c 128,-1,60
 906 56 906 56 846 28 c 128,-1,61
 786 0 786 0 704 0 c 2,27,-1
EndSplineSet
EndChar

StartChar: Njecyr
Encoding: 1034 1034 251
Width: 1043
GlyphClass: 2
Flags: W
AnchorPoint: "Anchor-0" 387 741 basechar 0
LayerCount: 2
Fore
SplineSet
198 426 m 1,0,-1
 591 426 l 1,1,-1
 591 358 l 1,2,-1
 198 358 l 1,3,-1
 198 426 l 1,0,-1
43 0 m 1,4,-1
 43 58 l 1,5,-1
 53 58 l 2,6,7
 83 58 83 58 106 65 c 128,-1,8
 129 72 129 72 129 94 c 2,9,-1
 129 616 l 2,10,11
 129 638 129 638 106 645 c 128,-1,12
 83 652 83 652 53 652 c 2,13,-1
 43 652 l 1,14,-1
 43 710 l 1,15,-1
 323 710 l 1,16,-1
 323 652 l 1,17,-1
 314 652 l 2,18,19
 296 652 296 652 276.5 651 c 128,-1,20
 257 650 257 650 243.5 648 c 128,-1,21
 230 646 230 646 230 642 c 2,22,-1
 230 68 l 2,23,24
 230 65 230 65 243.5 62.5 c 128,-1,25
 257 60 257 60 276.5 59 c 128,-1,26
 296 58 296 58 314 58 c 2,27,-1
 323 58 l 1,28,-1
 323 0 l 1,29,-1
 43 0 l 1,4,-1
451 0 m 1,30,-1
 451 58 l 1,31,-1
 459 58 l 2,32,33
 478 58 478 58 496.5 59 c 128,-1,34
 515 60 515 60 528 62.5 c 128,-1,35
 541 65 541 65 541 68 c 2,36,-1
 541 642 l 2,37,38
 541 646 541 646 528 648 c 128,-1,39
 515 650 515 650 496 651 c 128,-1,40
 477 652 477 652 460 652 c 2,41,-1
 451 652 l 1,42,-1
 451 710 l 1,43,-1
 733 710 l 1,44,-1
 733 652 l 1,45,-1
 721 652 l 2,46,47
 701 652 701 652 682.5 649 c 128,-1,48
 664 646 664 646 652.5 638.5 c 128,-1,49
 641 631 641 631 641 616 c 2,50,-1
 641 68 l 1,51,-1
 737 68 l 2,52,53
 792 68 792 68 827.5 86 c 128,-1,54
 863 104 863 104 881 136.5 c 128,-1,55
 899 169 899 169 899 213 c 0,56,57
 899 259 899 259 881.5 291 c 128,-1,58
 864 323 864 323 829 340.5 c 128,-1,59
 794 358 794 358 742 358 c 2,60,-1
 612 358 l 1,61,-1
 612 426 l 1,62,-1
 744 426 l 2,63,64
 826 426 826 426 885 400 c 128,-1,65
 944 374 944 374 975 326.5 c 128,-1,66
 1006 279 1006 279 1006 214 c 0,67,68
 1006 152 1006 152 973.5 103.5 c 128,-1,69
 941 55 941 55 881 27.5 c 128,-1,70
 821 0 821 0 739 0 c 2,71,-1
 451 0 l 1,30,-1
EndSplineSet
EndChar

StartChar: Tshecyr
Encoding: 1035 1035 252
Width: 873
GlyphClass: 2
Flags: W
AnchorPoint: "Anchor-0" 315 741 basechar 0
LayerCount: 2
Fore
SplineSet
521 418 m 0,0,1
 609 418 609 418 660 394 c 128,-1,2
 711 370 711 370 733 320 c 128,-1,3
 755 270 755 270 755 192 c 2,4,-1
 755 94 l 2,5,6
 755 72 755 72 777.5 65 c 128,-1,7
 800 58 800 58 832 58 c 2,8,-1
 842 58 l 1,9,-1
 842 0 l 1,10,-1
 655 0 l 1,11,-1
 655 187 l 2,12,13
 655 248 655 248 639.5 284 c 128,-1,14
 624 320 624 320 594 335 c 128,-1,15
 564 350 564 350 521 350 c 0,16,17
 474 350 474 350 417.5 339 c 128,-1,18
 361 328 361 328 311 296 c 1,19,-1
 311 363 l 1,20,21
 360 393 360 393 417 405.5 c 128,-1,22
 474 418 474 418 521 418 c 0,0,1
163 0 m 1,23,-1
 163 58 l 1,24,-1
 179 58 l 2,25,26
 214 58 214 58 237 65 c 128,-1,27
 260 72 260 72 260 94 c 2,28,-1
 260 644 l 1,29,-1
 213 644 l 2,30,31
 174 644 174 644 152.5 639.5 c 128,-1,32
 131 635 131 635 122.5 624.5 c 128,-1,33
 114 614 114 614 110 594 c 2,34,-1
 99 516 l 1,35,-1
 38 516 l 1,36,-1
 38 710 l 1,37,-1
 622 710 l 1,38,-1
 622 524 l 1,39,-1
 561 524 l 1,40,-1
 549 594 l 2,41,42
 546 614 546 614 537 624.5 c 128,-1,43
 528 635 528 635 507 639.5 c 128,-1,44
 486 644 486 644 446 644 c 2,45,-1
 360 644 l 1,46,-1
 360 68 l 2,47,48
 360 65 360 65 373 62.5 c 128,-1,49
 386 60 386 60 404.5 59 c 128,-1,50
 423 58 423 58 441 58 c 2,51,-1
 456 58 l 1,52,-1
 456 0 l 1,53,-1
 163 0 l 1,23,-1
EndSplineSet
EndChar

StartChar: Dzhecyr
Encoding: 1039 1039 253
Width: 814
GlyphClass: 2
Flags: W
AnchorPoint: "Anchor-0" 408 741 basechar 0
LayerCount: 2
Fore
SplineSet
43 710 m 1,0,-1
 323 710 l 1,1,-1
 323 652 l 1,2,-1
 314 652 l 2,3,4
 296 652 296 652 276.5 651 c 128,-1,5
 257 650 257 650 243.5 648 c 128,-1,6
 230 646 230 646 230 642 c 2,7,-1
 230 0 l 1,8,-1
 43 0 l 1,9,-1
 43 58 l 1,10,-1
 53 58 l 2,11,12
 83 58 83 58 106 65 c 128,-1,13
 129 72 129 72 129 94 c 2,14,-1
 129 616 l 2,15,16
 129 638 129 638 106 645 c 128,-1,17
 83 652 83 652 53 652 c 2,18,-1
 43 652 l 1,19,-1
 43 710 l 1,0,-1
490 710 m 1,20,-1
 771 710 l 1,21,-1
 771 652 l 1,22,-1
 761 652 l 2,23,24
 731 652 731 652 707.5 645 c 128,-1,25
 684 638 684 638 684 616 c 2,26,-1
 684 94 l 2,27,28
 684 72 684 72 707.5 65 c 128,-1,29
 731 58 731 58 761 58 c 2,30,-1
 771 58 l 1,31,-1
 771 0 l 1,32,-1
 584 0 l 1,33,-1
 584 642 l 2,34,35
 584 646 584 646 570.5 648 c 128,-1,36
 557 650 557 650 537.5 651 c 128,-1,37
 518 652 518 652 499 652 c 2,38,-1
 490 652 l 1,39,-1
 490 710 l 1,20,-1
170 0 m 1,40,-1
 170 68 l 1,41,-1
 622 68 l 1,42,-1
 622 0 l 1,43,-1
 544 0 l 2,44,45
 510 0 510 0 489 -3 c 128,-1,46
 468 -6 468 -6 458.5 -15.5 c 128,-1,47
 449 -25 449 -25 447 -44 c 2,48,-1
 439 -154 l 1,49,-1
 375 -154 l 1,50,-1
 367 -44 l 2,51,52
 365 -25 365 -25 355 -15.5 c 128,-1,53
 345 -6 345 -6 324 -3 c 128,-1,54
 303 0 303 0 269 0 c 2,55,-1
 170 0 l 1,40,-1
EndSplineSet
EndChar

StartChar: Becyr
Encoding: 1041 1041 257
Width: 639
GlyphClass: 2
Flags: W
AnchorPoint: "Anchor-0" 327 741 basechar 0
LayerCount: 2
Fore
SplineSet
43 710 m 1,0,-1
 551 710 l 1,1,-1
 551 520 l 1,2,-1
 489 520 l 1,3,-1
 478 595 l 2,4,5
 476 614 476 614 462.5 624 c 128,-1,6
 449 634 449 634 422.5 637.5 c 128,-1,7
 396 641 396 641 353 641 c 2,8,-1
 230 641 l 1,9,-1
 230 68 l 1,10,-1
 329 68 l 2,11,12
 387 68 387 68 422.5 86 c 128,-1,13
 458 104 458 104 474.5 136 c 128,-1,14
 491 168 491 168 491 212 c 0,15,16
 491 257 491 257 474.5 288.5 c 128,-1,17
 458 320 458 320 424 337.5 c 128,-1,18
 390 355 390 355 334 355 c 2,19,-1
 182 355 l 1,20,-1
 182 423 l 1,21,-1
 336 423 l 2,22,23
 418 423 418 423 477 398 c 128,-1,24
 536 373 536 373 567 326 c 128,-1,25
 598 279 598 279 598 213 c 0,26,27
 598 151 598 151 565.5 102.5 c 128,-1,28
 533 54 533 54 473 27 c 128,-1,29
 413 0 413 0 331 0 c 2,30,-1
 43 0 l 1,31,-1
 43 58 l 1,32,-1
 53 58 l 2,33,34
 83 58 83 58 106 65 c 128,-1,35
 129 72 129 72 129 94 c 2,36,-1
 129 616 l 2,37,38
 129 638 129 638 106 645 c 128,-1,39
 83 652 83 652 53 652 c 2,40,-1
 43 652 l 1,41,-1
 43 710 l 1,0,-1
EndSplineSet
EndChar

StartChar: Gecyr
Encoding: 1043 1043 259
Width: 586
GlyphClass: 2
Flags: W
AnchorPoint: "Anchor-0" 299 741 basechar 0
LayerCount: 2
Fore
SplineSet
229 641 m 1,0,-1
 229 94 l 2,1,2
 229 78 229 78 243.5 70 c 128,-1,3
 258 62 258 62 279.5 60 c 128,-1,4
 301 58 301 58 322 58 c 2,5,-1
 339 58 l 1,6,-1
 339 0 l 1,7,-1
 43 0 l 1,8,-1
 43 58 l 1,9,-1
 53 58 l 2,10,11
 83 58 83 58 106 65 c 128,-1,12
 129 72 129 72 129 94 c 2,13,-1
 129 616 l 2,14,15
 129 638 129 638 106 645 c 128,-1,16
 83 652 83 652 53 652 c 2,17,-1
 43 652 l 1,18,-1
 43 710 l 1,19,-1
 545 710 l 1,20,-1
 545 519 l 1,21,-1
 483 519 l 1,22,-1
 472 595 l 2,23,24
 469 614 469 614 456 624 c 128,-1,25
 443 634 443 634 416 637.5 c 128,-1,26
 389 641 389 641 346 641 c 2,27,-1
 229 641 l 1,0,-1
EndSplineSet
EndChar

StartChar: Decyr
Encoding: 1044 1044 261
Width: 788
GlyphClass: 2
Flags: W
AnchorPoint: "Anchor-0" 427 741 basechar 0
LayerCount: 2
Fore
SplineSet
235 710 m 1,0,-1
 609 710 l 1,1,-1
 609 642 l 1,2,-1
 235 642 l 1,3,-1
 235 710 l 1,0,-1
659 2 m 1,4,-1
 559 2 l 1,5,-1
 559 710 l 1,6,-1
 745 710 l 1,7,-1
 745 652 l 1,8,-1
 735 652 l 2,9,10
 703 652 703 652 681 645 c 128,-1,11
 659 638 659 638 659 616 c 2,12,-1
 659 2 l 1,4,-1
677 -51 m 2,13,14
 674 -30 674 -30 663.5 -18.5 c 128,-1,15
 653 -7 653 -7 632 -3.5 c 128,-1,16
 611 0 611 0 576 0 c 2,17,-1
 195 0 l 2,18,19
 161 0 161 0 139.5 -3.5 c 128,-1,20
 118 -7 118 -7 107.5 -18.5 c 128,-1,21
 97 -30 97 -30 94 -52 c 2,22,-1
 81 -154 l 1,23,-1
 17 -154 l 1,24,-1
 17 68 l 1,25,-1
 754 68 l 1,26,-1
 754 -154 l 1,27,-1
 690 -154 l 1,28,-1
 677 -51 l 2,13,14
157 23 m 1,29,-1
 69 23 l 1,30,31
 88 48 88 48 103.5 77.5 c 128,-1,32
 119 107 119 107 130.5 145 c 128,-1,33
 142 183 142 183 150 235 c 128,-1,34
 158 287 158 287 163 359 c 2,35,-1
 183 612 l 2,36,37
 185 636 185 636 163.5 644 c 128,-1,38
 142 652 142 652 110 652 c 2,39,-1
 99 652 l 1,40,-1
 99 710 l 1,41,-1
 267 710 l 1,42,-1
 239 356 l 2,43,44
 233 264 233 264 221.5 201.5 c 128,-1,45
 210 139 210 139 194 97 c 128,-1,46
 178 55 178 55 157 23 c 1,29,-1
EndSplineSet
Substitution2: "'locl' Localized Forms in Cyrillic lookup 12 subtable" De.bgr
EndChar

StartChar: Zhecyr
Encoding: 1046 1046 266
Width: 1037
GlyphClass: 2
Flags: W
AnchorPoint: "Anchor-1" 510 0 basechar 0
AnchorPoint: "Anchor-0" 510 741 basechar 0
LayerCount: 2
Fore
SplineSet
737 0 m 1,0,-1
 737 58 l 1,1,-1
 747 58 l 2,2,3
 765 58 765 58 783 59 c 128,-1,4
 801 60 801 60 813.5 62.5 c 128,-1,5
 826 65 826 65 826 68 c 2,6,-1
 598 348 l 1,7,-1
 598 364 l 1,8,-1
 839 641 l 2,9,10
 838 645 838 645 826.5 647 c 128,-1,11
 815 649 815 649 799 650.5 c 128,-1,12
 783 652 783 652 767 652 c 2,13,-1
 757 652 l 1,14,-1
 757 710 l 1,15,-1
 993 710 l 1,16,-1
 993 652 l 1,17,-1
 979 652 l 2,18,19
 965 652 965 652 952.5 649.5 c 128,-1,20
 940 647 940 647 929 640 c 128,-1,21
 918 633 918 633 906 620 c 2,22,-1
 679 361 l 1,23,-1
 674 405 l 1,24,-1
 931 90 l 2,25,26
 944 76 944 76 955 69 c 128,-1,27
 966 62 966 62 980 60 c 128,-1,28
 994 58 994 58 1012 58 c 2,29,-1
 1022 58 l 1,30,-1
 1022 0 l 1,31,-1
 737 0 l 1,0,-1
296 0 m 1,32,-1
 15 0 l 1,33,-1
 15 58 l 1,34,-1
 25 58 l 2,35,36
 45 58 45 58 58.5 60 c 128,-1,37
 72 62 72 62 83.5 69 c 128,-1,38
 95 76 95 76 107 90 c 2,39,-1
 364 405 l 1,40,-1
 351 361 l 1,41,-1
 123 620 l 2,42,43
 112 633 112 633 100.5 639.5 c 128,-1,44
 89 646 89 646 77 649 c 128,-1,45
 65 652 65 652 51 652 c 2,46,-1
 37 652 l 1,47,-1
 37 710 l 1,48,-1
 277 710 l 1,49,-1
 277 652 l 1,50,-1
 266 652 l 2,51,52
 251 652 251 652 234.5 650.5 c 128,-1,53
 218 649 218 649 206.5 647 c 128,-1,54
 195 645 195 645 194 641 c 2,55,-1
 435 364 l 1,56,-1
 435 348 l 1,57,-1
 207 68 l 2,58,59
 207 65 207 65 220 62.5 c 128,-1,60
 233 60 233 60 251.5 59 c 128,-1,61
 270 58 270 58 286 58 c 2,62,-1
 296 58 l 1,63,-1
 296 0 l 1,32,-1
376 0 m 1,64,-1
 376 58 l 1,65,-1
 385 58 l 2,66,67
 399 58 399 58 413 58.5 c 128,-1,68
 427 59 427 59 439 60.5 c 128,-1,69
 451 62 451 62 458.5 63.5 c 128,-1,70
 466 65 466 65 466 68 c 2,71,-1
 466 642 l 2,72,73
 466 645 466 645 459 646.5 c 128,-1,74
 452 648 452 648 439.5 649.5 c 128,-1,75
 427 651 427 651 413 651.5 c 128,-1,76
 399 652 399 652 385 652 c 2,77,-1
 376 652 l 1,78,-1
 376 710 l 1,79,-1
 657 710 l 1,80,-1
 657 652 l 1,81,-1
 648 652 l 2,82,83
 635 652 635 652 620.5 651.5 c 128,-1,84
 606 651 606 651 594 649.5 c 128,-1,85
 582 648 582 648 574.5 646.5 c 128,-1,86
 567 645 567 645 567 642 c 2,87,-1
 567 68 l 2,88,89
 567 65 567 65 574.5 63.5 c 128,-1,90
 582 62 582 62 594 60.5 c 128,-1,91
 606 59 606 59 620.5 58.5 c 128,-1,92
 635 58 635 58 648 58 c 2,93,-1
 657 58 l 1,94,-1
 657 0 l 1,95,-1
 376 0 l 1,64,-1
EndSplineSet
EndChar

StartChar: Zecyr
Encoding: 1047 1047 269
Width: 660
GlyphClass: 2
Flags: W
AnchorPoint: "Anchor-1" 357 0 basechar 0
AnchorPoint: "Anchor-0" 357 741 basechar 0
LayerCount: 2
Fore
SplineSet
354 -10 m 0,0,1
 292 -10 292 -10 246 10.5 c 128,-1,2
 200 31 200 31 170.5 67.5 c 128,-1,3
 141 104 141 104 127 155 c 1,4,-1
 158 152 l 1,5,-1
 141 0 l 1,6,-1
 78 0 l 1,7,-1
 78 212 l 1,8,-1
 150 212 l 1,9,10
 165 170 165 170 191 135 c 128,-1,11
 217 100 217 100 256.5 80 c 128,-1,12
 296 60 296 60 354 60 c 0,13,14
 407 60 407 60 440 76.5 c 128,-1,15
 473 93 473 93 488.5 124 c 128,-1,16
 504 155 504 155 504 199 c 0,17,18
 504 241 504 241 488.5 270.5 c 128,-1,19
 473 300 473 300 438 314.5 c 128,-1,20
 403 329 403 329 343 326 c 0,21,22
 331 325 331 325 317.5 324 c 128,-1,23
 304 323 304 323 291 322 c 128,-1,24
 278 321 278 321 266 321 c 1,25,-1
 266 405 l 1,26,27
 278 405 278 405 291 404 c 128,-1,28
 304 403 304 403 318 402 c 128,-1,29
 332 401 332 401 345 401 c 0,30,31
 396 398 396 398 427 414.5 c 128,-1,32
 458 431 458 431 471.5 461 c 128,-1,33
 485 491 485 491 485 529 c 256,34,35
 485 567 485 567 472.5 594 c 128,-1,36
 460 621 460 621 432.5 635.5 c 128,-1,37
 405 650 405 650 359 650 c 0,38,39
 302 650 302 650 263 630.5 c 128,-1,40
 224 611 224 611 199.5 576.5 c 128,-1,41
 175 542 175 542 160 498 c 1,42,-1
 88 498 l 1,43,-1
 88 710 l 1,44,-1
 151 710 l 1,45,-1
 168 558 l 1,46,-1
 137 555 l 1,47,48
 147 592 147 592 166 622.5 c 128,-1,49
 185 653 185 653 212.5 675 c 128,-1,50
 240 697 240 697 276.5 708.5 c 128,-1,51
 313 720 313 720 360 720 c 0,52,53
 437 720 437 720 487.5 695.5 c 128,-1,54
 538 671 538 671 562.5 628 c 128,-1,55
 587 585 587 585 587 531 c 0,56,57
 587 480 587 480 558 440.5 c 128,-1,58
 529 401 529 401 472 379 c 128,-1,59
 415 357 415 357 330 357 c 1,60,-1
 410 391 l 1,61,-1
 410 347 l 1,62,-1
 339 380 l 1,63,64
 431 380 431 380 490.5 358.5 c 128,-1,65
 550 337 550 337 579 296.5 c 128,-1,66
 608 256 608 256 608 198 c 0,67,68
 608 152 608 152 591 114 c 128,-1,69
 574 76 574 76 541.5 48 c 128,-1,70
 509 20 509 20 461.5 5 c 128,-1,71
 414 -10 414 -10 354 -10 c 0,0,1
EndSplineSet
EndChar

StartChar: Icyr
Encoding: 1048 1048 270
Width: 844
GlyphClass: 2
Flags: W
AnchorPoint: "Anchor-0" 423 741 basechar 0
LayerCount: 2
Fore
SplineSet
185 150 m 1,0,-1
 626 620 l 1,1,-1
 660 569 l 1,2,-1
 219 99 l 1,3,-1
 185 150 l 1,0,-1
43 0 m 1,4,-1
 43 58 l 1,5,-1
 53 58 l 2,6,7
 83 58 83 58 106 65 c 128,-1,8
 129 72 129 72 129 94 c 2,9,-1
 129 616 l 2,10,11
 129 638 129 638 106 645 c 128,-1,12
 83 652 83 652 53 652 c 2,13,-1
 43 652 l 1,14,-1
 43 710 l 1,15,-1
 323 710 l 1,16,-1
 323 652 l 1,17,-1
 314 652 l 2,18,19
 296 652 296 652 276.5 651 c 128,-1,20
 257 650 257 650 243.5 648 c 128,-1,21
 230 646 230 646 230 642 c 2,22,-1
 230 68 l 2,23,24
 230 65 230 65 243.5 62.5 c 128,-1,25
 257 60 257 60 276.5 59 c 128,-1,26
 296 58 296 58 314 58 c 2,27,-1
 323 58 l 1,28,-1
 323 0 l 1,29,-1
 43 0 l 1,4,-1
520 0 m 1,30,-1
 520 58 l 1,31,-1
 529 58 l 2,32,33
 548 58 548 58 567.5 59 c 128,-1,34
 587 60 587 60 600.5 62.5 c 128,-1,35
 614 65 614 65 614 68 c 2,36,-1
 614 642 l 2,37,38
 614 646 614 646 600.5 648 c 128,-1,39
 587 650 587 650 567.5 651 c 128,-1,40
 548 652 548 652 529 652 c 2,41,-1
 520 652 l 1,42,-1
 520 710 l 1,43,-1
 801 710 l 1,44,-1
 801 652 l 1,45,-1
 791 652 l 2,46,47
 761 652 761 652 737.5 645 c 128,-1,48
 714 638 714 638 714 616 c 2,49,-1
 714 94 l 2,50,51
 714 72 714 72 737.5 65 c 128,-1,52
 761 58 761 58 791 58 c 2,53,-1
 801 58 l 1,54,-1
 801 0 l 1,55,-1
 520 0 l 1,30,-1
EndSplineSet
EndChar

StartChar: Elcyr
Encoding: 1051 1051 276
Width: 784
GlyphClass: 2
Flags: W
AnchorPoint: "Anchor-0" 432 741 basechar 0
LayerCount: 2
Fore
SplineSet
243 710 m 1,0,-1
 602 710 l 1,1,-1
 602 642 l 1,2,-1
 243 642 l 1,3,-1
 243 710 l 1,0,-1
461 0 m 1,4,-1
 461 58 l 1,5,-1
 470 58 l 2,6,7
 489 58 489 58 508.5 59 c 128,-1,8
 528 60 528 60 541.5 62.5 c 128,-1,9
 555 65 555 65 555 68 c 2,10,-1
 555 710 l 1,11,-1
 741 710 l 1,12,-1
 741 652 l 1,13,-1
 732 652 l 2,14,15
 702 652 702 652 678.5 645 c 128,-1,16
 655 638 655 638 655 616 c 2,17,-1
 655 94 l 2,18,19
 655 72 655 72 678.5 65 c 128,-1,20
 702 58 702 58 732 58 c 2,21,-1
 741 58 l 1,22,-1
 741 0 l 1,23,-1
 461 0 l 1,4,-1
179 270 m 2,24,-1
 206 612 l 2,25,26
 208 636 208 636 185.5 644 c 128,-1,27
 163 652 163 652 132 652 c 2,28,-1
 121 652 l 1,29,-1
 121 710 l 1,30,-1
 290 710 l 1,31,-1
 256 268 l 2,32,33
 248 169 248 169 226.5 106 c 128,-1,34
 205 43 205 43 168 14 c 128,-1,35
 131 -15 131 -15 76 -15 c 0,36,37
 52 -15 52 -15 35 -10 c 128,-1,38
 18 -5 18 -5 8 0 c 1,39,-1
 8 94 l 1,40,41
 15 90 15 90 32 84.5 c 128,-1,42
 49 79 49 79 74 79 c 0,43,44
 105 79 105 79 126.5 98 c 128,-1,45
 148 117 148 117 161 159 c 128,-1,46
 174 201 174 201 179 270 c 2,24,-1
EndSplineSet
Substitution2: "'locl' Localized Forms in Cyrillic lookup 12 subtable" El.bgr
EndChar

StartChar: Pecyr
Encoding: 1055 1055 281
Width: 814
GlyphClass: 2
Flags: W
AnchorPoint: "Anchor-0" 408 741 basechar 0
LayerCount: 2
Fore
SplineSet
187 710 m 1,0,-1
 631 710 l 1,1,-1
 631 642 l 1,2,-1
 187 642 l 1,3,-1
 187 710 l 1,0,-1
43 0 m 1,4,-1
 43 58 l 1,5,-1
 53 58 l 2,6,7
 83 58 83 58 106 65 c 128,-1,8
 129 72 129 72 129 94 c 2,9,-1
 129 616 l 2,10,11
 129 638 129 638 106 645 c 128,-1,12
 83 652 83 652 53 652 c 2,13,-1
 43 652 l 1,14,-1
 43 710 l 1,15,-1
 230 710 l 1,16,-1
 230 68 l 2,17,18
 230 65 230 65 243.5 62.5 c 128,-1,19
 257 60 257 60 276.5 59 c 128,-1,20
 296 58 296 58 314 58 c 2,21,-1
 323 58 l 1,22,-1
 323 0 l 1,23,-1
 43 0 l 1,4,-1
490 0 m 1,24,-1
 490 58 l 1,25,-1
 499 58 l 2,26,27
 518 58 518 58 537.5 59 c 128,-1,28
 557 60 557 60 570.5 62.5 c 128,-1,29
 584 65 584 65 584 68 c 2,30,-1
 584 710 l 1,31,-1
 771 710 l 1,32,-1
 771 652 l 1,33,-1
 761 652 l 2,34,35
 731 652 731 652 707.5 645 c 128,-1,36
 684 638 684 638 684 616 c 2,37,-1
 684 94 l 2,38,39
 684 72 684 72 707.5 65 c 128,-1,40
 731 58 731 58 761 58 c 2,41,-1
 771 58 l 1,42,-1
 771 0 l 1,43,-1
 490 0 l 1,24,-1
EndSplineSet
EndChar

StartChar: Ucyr
Encoding: 1059 1059 285
Width: 677
GlyphClass: 2
Flags: W
AnchorPoint: "Anchor-1" 224 0 basechar 0
AnchorPoint: "Anchor-0" 345 741 basechar 0
LayerCount: 2
Fore
SplineSet
399 208 m 2,0,1
 375 155 375 155 353 113 c 128,-1,2
 331 71 331 71 308.5 41.5 c 128,-1,3
 286 12 286 12 259 -3 c 128,-1,4
 232 -18 232 -18 197 -18 c 0,5,6
 172 -18 172 -18 155.5 -12.5 c 128,-1,7
 139 -7 139 -7 128 0 c 1,8,-1
 128 92 l 1,9,10
 134 88 134 88 151 81 c 128,-1,11
 168 74 168 74 192 74 c 0,12,13
 226 74 226 74 250 89.5 c 128,-1,14
 274 105 274 105 296 138.5 c 128,-1,15
 318 172 318 172 341 226 c 2,16,-1
 520 632 l 2,17,18
 520 638 520 638 509.5 642.5 c 128,-1,19
 499 647 499 647 482.5 649.5 c 128,-1,20
 466 652 466 652 448 652 c 2,21,-1
 432 652 l 1,22,-1
 432 710 l 1,23,-1
 664 710 l 1,24,-1
 664 652 l 1,25,-1
 658 652 l 2,26,27
 643 652 643 652 628 648.5 c 128,-1,28
 613 645 613 645 600.5 635 c 128,-1,29
 588 625 588 625 579 605 c 2,30,-1
 399 208 l 2,0,1
374 221 m 1,31,-1
 319 136 l 1,32,-1
 83 625 l 2,33,34
 77 638 77 638 67.5 644 c 128,-1,35
 58 650 58 650 45.5 651 c 128,-1,36
 33 652 33 652 18 652 c 2,37,-1
 13 652 l 1,38,-1
 13 710 l 1,39,-1
 271 710 l 1,40,-1
 271 652 l 1,41,-1
 254 652 l 2,42,43
 236 652 236 652 218 651 c 128,-1,44
 200 650 200 650 187 647.5 c 128,-1,45
 174 645 174 645 174 641 c 2,46,-1
 374 221 l 1,31,-1
EndSplineSet
EndChar

StartChar: Efcyr
Encoding: 1060 1060 290
Width: 872
GlyphClass: 2
Flags: W
AnchorPoint: "Anchor-1" 437 0 basechar 0
AnchorPoint: "Anchor-0" 437 741 basechar 0
LayerCount: 2
Fore
SplineSet
389 74 m 2,0,-1
 389 636 l 2,1,2
 389 658 389 658 365 665 c 128,-1,3
 341 672 341 672 306 672 c 2,4,-1
 296 672 l 1,5,-1
 296 730 l 1,6,-1
 576 730 l 1,7,-1
 576 672 l 1,8,-1
 566 672 l 2,9,10
 531 672 531 672 507 665 c 128,-1,11
 483 658 483 658 483 636 c 2,12,-1
 483 74 l 2,13,14
 483 52 483 52 507 45 c 128,-1,15
 531 38 531 38 566 38 c 2,16,-1
 576 38 l 1,17,-1
 576 -20 l 1,18,-1
 296 -20 l 1,19,-1
 296 38 l 1,20,-1
 306 38 l 2,21,22
 341 38 341 38 365 45 c 128,-1,23
 389 52 389 52 389 74 c 2,0,-1
405 620 m 1,24,-1
 405 550 l 1,25,26
 314 550 314 550 255.5 528.5 c 128,-1,27
 197 507 197 507 170 464.5 c 128,-1,28
 143 422 143 422 143 360 c 256,29,30
 143 298 143 298 170 255.5 c 128,-1,31
 197 213 197 213 255.5 191.5 c 128,-1,32
 314 170 314 170 405 170 c 1,33,-1
 405 100 l 1,34,35
 285 100 285 100 202.5 131.5 c 128,-1,36
 120 163 120 163 77.5 221.5 c 128,-1,37
 35 280 35 280 35 360 c 256,38,39
 35 440 35 440 77.5 498.5 c 128,-1,40
 120 557 120 557 202.5 588.5 c 128,-1,41
 285 620 285 620 405 620 c 1,24,-1
466 100 m 1,42,-1
 466 170 l 1,43,44
 558 170 558 170 616 191.5 c 128,-1,45
 674 213 674 213 701.5 255.5 c 128,-1,46
 729 298 729 298 729 360 c 256,47,48
 729 422 729 422 701.5 464.5 c 128,-1,49
 674 507 674 507 616 528.5 c 128,-1,50
 558 550 558 550 466 550 c 1,51,-1
 466 620 l 1,52,53
 586 620 586 620 668.5 588.5 c 128,-1,54
 751 557 751 557 793.5 498.5 c 128,-1,55
 836 440 836 440 836 360 c 256,56,57
 836 280 836 280 793.5 221.5 c 128,-1,58
 751 163 751 163 668.5 131.5 c 128,-1,59
 586 100 586 100 466 100 c 1,42,-1
EndSplineSet
EndChar

StartChar: Tsecyr
Encoding: 1062 1062 292
Width: 813
GlyphClass: 2
Flags: W
AnchorPoint: "Anchor-0" 407 741 basechar 0
LayerCount: 2
Fore
SplineSet
182 0 m 1,0,-1
 182 68 l 1,1,-1
 627 68 l 1,2,-1
 627 0 l 1,3,-1
 182 0 l 1,0,-1
43 710 m 1,4,-1
 323 710 l 1,5,-1
 323 652 l 1,6,-1
 314 652 l 2,7,8
 296 652 296 652 276.5 651 c 128,-1,9
 257 650 257 650 243.5 648 c 128,-1,10
 230 646 230 646 230 642 c 2,11,-1
 230 0 l 1,12,-1
 43 0 l 1,13,-1
 43 58 l 1,14,-1
 53 58 l 2,15,16
 83 58 83 58 106 65 c 128,-1,17
 129 72 129 72 129 94 c 2,18,-1
 129 616 l 2,19,20
 129 638 129 638 106 645 c 128,-1,21
 83 652 83 652 53 652 c 2,22,-1
 43 652 l 1,23,-1
 43 710 l 1,4,-1
490 710 m 1,24,-1
 771 710 l 1,25,-1
 771 652 l 1,26,-1
 761 652 l 2,27,28
 731 652 731 652 707.5 645 c 128,-1,29
 684 638 684 638 684 616 c 2,30,-1
 684 0 l 1,31,-1
 584 0 l 1,32,-1
 584 642 l 2,33,34
 584 646 584 646 570.5 648 c 128,-1,35
 557 650 557 650 537.5 651 c 128,-1,36
 518 652 518 652 499 652 c 2,37,-1
 490 652 l 1,38,-1
 490 710 l 1,24,-1
582 0 m 1,39,-1
 582 68 l 1,40,-1
 779 68 l 1,41,-1
 779 -154 l 1,42,-1
 716 -154 l 1,43,-1
 702 -51 l 2,44,45
 700 -30 700 -30 689 -18.5 c 128,-1,46
 678 -7 678 -7 657 -3.5 c 128,-1,47
 636 0 636 0 602 0 c 2,48,-1
 582 0 l 1,39,-1
EndSplineSet
EndChar

StartChar: Checyr
Encoding: 1063 1063 293
Width: 771
GlyphClass: 2
Flags: W
AnchorPoint: "Anchor-0" 379 741 basechar 0
LayerCount: 2
Fore
SplineSet
443 0 m 1,0,-1
 443 58 l 1,1,-1
 457 58 l 2,2,3
 475 58 475 58 494.5 59 c 128,-1,4
 514 60 514 60 527.5 62.5 c 128,-1,5
 541 65 541 65 541 68 c 2,6,-1
 541 642 l 2,7,8
 541 646 541 646 527.5 648 c 128,-1,9
 514 650 514 650 494.5 651 c 128,-1,10
 475 652 475 652 457 652 c 2,11,-1
 448 652 l 1,12,-1
 448 710 l 1,13,-1
 728 710 l 1,14,-1
 728 652 l 1,15,-1
 718 652 l 2,16,17
 688 652 688 652 665 645 c 128,-1,18
 642 638 642 638 642 616 c 2,19,-1
 642 94 l 2,20,21
 642 72 642 72 665 65 c 128,-1,22
 688 58 688 58 718 58 c 2,23,-1
 728 58 l 1,24,-1
 728 0 l 1,25,-1
 443 0 l 1,0,-1
361 273 m 0,26,27
 273 273 273 273 220 294.5 c 128,-1,28
 167 316 167 316 143 366 c 128,-1,29
 119 416 119 416 119 498 c 2,30,-1
 119 616 l 2,31,32
 119 638 119 638 95.5 645 c 128,-1,33
 72 652 72 652 43 652 c 2,34,-1
 33 652 l 1,35,-1
 33 710 l 1,36,-1
 313 710 l 1,37,-1
 313 652 l 1,38,-1
 304 652 l 2,39,40
 286 652 286 652 266.5 651 c 128,-1,41
 247 650 247 650 233 648 c 128,-1,42
 219 646 219 646 219 642 c 2,43,-1
 219 503 l 2,44,45
 219 444 219 444 233 408 c 128,-1,46
 247 372 247 372 278 356 c 128,-1,47
 309 340 309 340 361 340 c 0,48,49
 417 340 417 340 475.5 353 c 128,-1,50
 534 366 534 366 587 400 c 1,51,-1
 587 333 l 1,52,53
 534 302 534 302 475 287.5 c 128,-1,54
 416 273 416 273 361 273 c 0,26,27
EndSplineSet
EndChar

StartChar: Shacyr
Encoding: 1064 1064 294
Width: 1130
GlyphClass: 2
Flags: W
AnchorPoint: "Anchor-0" 556 741 basechar 0
LayerCount: 2
Fore
SplineSet
943 0 m 1,0,-1
 182 0 l 1,1,-1
 182 68 l 1,2,-1
 943 68 l 1,3,-1
 943 0 l 1,0,-1
1087 710 m 1,4,-1
 1087 652 l 1,5,-1
 1077 652 l 2,6,7
 1047 652 1047 652 1023.5 645 c 128,-1,8
 1000 638 1000 638 1000 616 c 2,9,-1
 1000 94 l 2,10,11
 1000 72 1000 72 1023.5 65 c 128,-1,12
 1047 58 1047 58 1077 58 c 2,13,-1
 1087 58 l 1,14,-1
 1087 0 l 1,15,-1
 900 0 l 1,16,-1
 900 642 l 2,17,18
 900 646 900 646 886.5 648 c 128,-1,19
 873 650 873 650 853.5 651 c 128,-1,20
 834 652 834 652 815 652 c 2,21,-1
 806 652 l 1,22,-1
 806 710 l 1,23,-1
 1087 710 l 1,4,-1
323 710 m 1,24,-1
 323 652 l 1,25,-1
 314 652 l 2,26,27
 296 652 296 652 276.5 651 c 128,-1,28
 257 650 257 650 243.5 648 c 128,-1,29
 230 646 230 646 230 642 c 2,30,-1
 230 0 l 1,31,-1
 43 0 l 1,32,-1
 43 58 l 1,33,-1
 53 58 l 2,34,35
 83 58 83 58 106 65 c 128,-1,36
 129 72 129 72 129 94 c 2,37,-1
 129 616 l 2,38,39
 129 638 129 638 106 645 c 128,-1,40
 83 652 83 652 53 652 c 2,41,-1
 43 652 l 1,42,-1
 43 710 l 1,43,-1
 323 710 l 1,24,-1
425 710 m 1,44,-1
 705 710 l 1,45,-1
 705 652 l 1,46,-1
 696 652 l 2,47,48
 678 652 678 652 659.5 651 c 128,-1,49
 641 650 641 650 628 648 c 128,-1,50
 615 646 615 646 615 642 c 2,51,-1
 615 0 l 1,52,-1
 515 0 l 1,53,-1
 515 642 l 2,54,55
 515 646 515 646 502 648 c 128,-1,56
 489 650 489 650 470 651 c 128,-1,57
 451 652 451 652 434 652 c 2,58,-1
 425 652 l 1,59,-1
 425 710 l 1,44,-1
EndSplineSet
EndChar

StartChar: Shchacyr
Encoding: 1065 1065 295
Width: 1129
GlyphClass: 2
Flags: W
AnchorPoint: "Anchor-0" 555 741 basechar 0
LayerCount: 2
Fore
SplineSet
943 0 m 1,0,-1
 182 0 l 1,1,-1
 182 68 l 1,2,-1
 943 68 l 1,3,-1
 943 0 l 1,0,-1
323 710 m 1,4,-1
 323 652 l 1,5,-1
 314 652 l 2,6,7
 296 652 296 652 276.5 651 c 128,-1,8
 257 650 257 650 243.5 648 c 128,-1,9
 230 646 230 646 230 642 c 2,10,-1
 230 0 l 1,11,-1
 43 0 l 1,12,-1
 43 58 l 1,13,-1
 53 58 l 2,14,15
 83 58 83 58 106 65 c 128,-1,16
 129 72 129 72 129 94 c 2,17,-1
 129 616 l 2,18,19
 129 638 129 638 106 645 c 128,-1,20
 83 652 83 652 53 652 c 2,21,-1
 43 652 l 1,22,-1
 43 710 l 1,23,-1
 323 710 l 1,4,-1
806 710 m 1,24,-1
 1087 710 l 1,25,-1
 1087 652 l 1,26,-1
 1077 652 l 2,27,28
 1047 652 1047 652 1023.5 645 c 128,-1,29
 1000 638 1000 638 1000 616 c 2,30,-1
 1000 0 l 1,31,-1
 900 0 l 1,32,-1
 900 642 l 2,33,34
 900 646 900 646 886.5 648 c 128,-1,35
 873 650 873 650 853.5 651 c 128,-1,36
 834 652 834 652 815 652 c 2,37,-1
 806 652 l 1,38,-1
 806 710 l 1,24,-1
918 0 m 2,39,-1
 898 0 l 1,40,-1
 898 68 l 1,41,-1
 1095 68 l 1,42,-1
 1095 -154 l 1,43,-1
 1032 -154 l 1,44,-1
 1018 -51 l 2,45,46
 1016 -30 1016 -30 1005 -18.5 c 128,-1,47
 994 -7 994 -7 973 -3.5 c 128,-1,48
 952 0 952 0 918 0 c 2,39,-1
425 710 m 1,49,-1
 705 710 l 1,50,-1
 705 652 l 1,51,-1
 696 652 l 2,52,53
 678 652 678 652 659.5 651 c 128,-1,54
 641 650 641 650 628 648 c 128,-1,55
 615 646 615 646 615 642 c 2,56,-1
 615 0 l 1,57,-1
 515 0 l 1,58,-1
 515 642 l 2,59,60
 515 646 515 646 502 648 c 128,-1,61
 489 650 489 650 470 651 c 128,-1,62
 451 652 451 652 434 652 c 2,63,-1
 425 652 l 1,64,-1
 425 710 l 1,49,-1
EndSplineSet
EndChar

StartChar: Hardcyr
Encoding: 1066 1066 296
Width: 743
GlyphClass: 2
Flags: W
AnchorPoint: "Anchor-0" 261 741 basechar 0
LayerCount: 2
Fore
SplineSet
439 0 m 2,0,-1
 151 0 l 1,1,-1
 151 58 l 1,2,-1
 161 58 l 2,3,4
 191 58 191 58 214.5 65 c 128,-1,5
 238 72 238 72 238 94 c 2,6,-1
 238 644 l 1,7,-1
 213 644 l 2,8,9
 174 644 174 644 152.5 639.5 c 128,-1,10
 131 635 131 635 122.5 624.5 c 128,-1,11
 114 614 114 614 110 594 c 2,12,-1
 99 516 l 1,13,-1
 38 516 l 1,14,-1
 38 710 l 1,15,-1
 437 710 l 1,16,-1
 437 652 l 1,17,-1
 414 652 l 2,18,19
 397 652 397 652 379.5 651 c 128,-1,20
 362 650 362 650 350 648 c 128,-1,21
 338 646 338 646 338 642 c 2,22,-1
 338 68 l 1,23,-1
 437 68 l 2,24,25
 494 68 494 68 529.5 86.5 c 128,-1,26
 565 105 565 105 582 138.5 c 128,-1,27
 599 172 599 172 599 217 c 0,28,29
 599 264 599 264 582.5 297 c 128,-1,30
 566 330 566 330 531.5 347.5 c 128,-1,31
 497 365 497 365 442 365 c 2,32,-1
 289 365 l 1,33,-1
 289 433 l 1,34,-1
 444 433 l 2,35,36
 526 433 526 433 584.5 407.5 c 128,-1,37
 643 382 643 382 674 334 c 128,-1,38
 705 286 705 286 705 218 c 0,39,40
 705 154 705 154 672.5 105 c 128,-1,41
 640 56 640 56 580.5 28 c 128,-1,42
 521 0 521 0 439 0 c 2,0,-1
EndSplineSet
EndChar

StartChar: Ylongcyr
Encoding: 1067 1067 297
Width: 952
GlyphClass: 2
Flags: W
AnchorPoint: "Anchor-1" 468 0 basechar 0
AnchorPoint: "Anchor-0" 468 741 basechar 0
LayerCount: 2
Fore
SplineSet
722 68 m 2,0,-1
 722 642 l 2,1,2
 722 646 722 646 708.5 648 c 128,-1,3
 695 650 695 650 675.5 651 c 128,-1,4
 656 652 656 652 637 652 c 2,5,-1
 628 652 l 1,6,-1
 628 710 l 1,7,-1
 909 710 l 1,8,-1
 909 652 l 1,9,-1
 899 652 l 2,10,11
 863 652 863 652 843 645 c 128,-1,12
 823 638 823 638 823 616 c 2,13,-1
 823 94 l 2,14,15
 823 72 823 72 843 65 c 128,-1,16
 863 58 863 58 899 58 c 2,17,-1
 909 58 l 1,18,-1
 909 0 l 1,19,-1
 628 0 l 1,20,-1
 628 58 l 1,21,-1
 637 58 l 2,22,23
 656 58 656 58 675.5 59 c 128,-1,24
 695 60 695 60 708.5 62.5 c 128,-1,25
 722 65 722 65 722 68 c 2,0,-1
331 0 m 2,26,-1
 43 0 l 1,27,-1
 43 58 l 1,28,-1
 53 58 l 2,29,30
 83 58 83 58 106 65 c 128,-1,31
 129 72 129 72 129 94 c 2,32,-1
 129 616 l 2,33,34
 129 638 129 638 106 645 c 128,-1,35
 83 652 83 652 53 652 c 2,36,-1
 43 652 l 1,37,-1
 43 710 l 1,38,-1
 329 710 l 1,39,-1
 329 652 l 1,40,-1
 306 652 l 2,41,42
 289 652 289 652 271 651 c 128,-1,43
 253 650 253 650 241.5 648 c 128,-1,44
 230 646 230 646 230 642 c 2,45,-1
 230 68 l 1,46,-1
 330 68 l 2,47,48
 387 68 387 68 422.5 86.5 c 128,-1,49
 458 105 458 105 474.5 138.5 c 128,-1,50
 491 172 491 172 491 217 c 0,51,52
 491 264 491 264 474.5 297 c 128,-1,53
 458 330 458 330 424 347.5 c 128,-1,54
 390 365 390 365 335 365 c 2,55,-1
 197 365 l 1,56,-1
 197 433 l 1,57,-1
 337 433 l 2,58,59
 418 433 418 433 477 407.5 c 128,-1,60
 536 382 536 382 567 334 c 128,-1,61
 598 286 598 286 598 218 c 0,62,63
 598 154 598 154 565.5 105 c 128,-1,64
 533 56 533 56 473 28 c 128,-1,65
 413 0 413 0 331 0 c 2,26,-1
EndSplineSet
EndChar

StartChar: Softcyr
Encoding: 1068 1068 298
Width: 636
GlyphClass: 2
Flags: W
AnchorPoint: "Anchor-0" 185 741 basechar 0
LayerCount: 2
Fore
SplineSet
331 0 m 2,0,-1
 43 0 l 1,1,-1
 43 58 l 1,2,-1
 53 58 l 2,3,4
 83 58 83 58 106 65 c 128,-1,5
 129 72 129 72 129 94 c 2,6,-1
 129 616 l 2,7,8
 129 638 129 638 106 645 c 128,-1,9
 83 652 83 652 53 652 c 2,10,-1
 43 652 l 1,11,-1
 43 710 l 1,12,-1
 329 710 l 1,13,-1
 329 652 l 1,14,-1
 306 652 l 2,15,16
 289 652 289 652 271 651 c 128,-1,17
 253 650 253 650 241.5 648 c 128,-1,18
 230 646 230 646 230 642 c 2,19,-1
 230 68 l 1,20,-1
 330 68 l 2,21,22
 387 68 387 68 422.5 86.5 c 128,-1,23
 458 105 458 105 474.5 138.5 c 128,-1,24
 491 172 491 172 491 217 c 0,25,26
 491 264 491 264 474.5 297 c 128,-1,27
 458 330 458 330 424 347.5 c 128,-1,28
 390 365 390 365 335 365 c 2,29,-1
 197 365 l 1,30,-1
 197 433 l 1,31,-1
 337 433 l 2,32,33
 418 433 418 433 477 407.5 c 128,-1,34
 536 382 536 382 567 334 c 128,-1,35
 598 286 598 286 598 218 c 0,36,37
 598 154 598 154 565.5 105 c 128,-1,38
 533 56 533 56 473 28 c 128,-1,39
 413 0 413 0 331 0 c 2,0,-1
EndSplineSet
EndChar

StartChar: Ereversedcyr
Encoding: 1069 1069 299
Width: 744
GlyphClass: 2
Flags: W
AnchorPoint: "Anchor-1" 359 0 basechar 0
AnchorPoint: "Anchor-0" 359 741 basechar 0
LayerCount: 2
Fore
SplineSet
634 395 m 1,0,-1
 634 332 l 1,1,2
 588 331 588 331 543 330 c 128,-1,3
 498 329 498 329 454.5 328 c 128,-1,4
 411 327 411 327 367.5 325.5 c 128,-1,5
 324 324 324 324 282 320 c 1,6,-1
 282 406 l 1,7,8
 324 403 324 403 367.5 401.5 c 128,-1,9
 411 400 411 400 454.5 398.5 c 128,-1,10
 498 397 498 397 543 396.5 c 128,-1,11
 588 396 588 396 634 395 c 1,0,-1
364 -10 m 0,12,13
 299 -10 299 -10 250.5 10.5 c 128,-1,14
 202 31 202 31 171 67.5 c 128,-1,15
 140 104 140 104 126 155 c 1,16,-1
 158 152 l 1,17,-1
 141 0 l 1,18,-1
 78 0 l 1,19,-1
 78 212 l 1,20,-1
 150 212 l 1,21,22
 166 170 166 170 192.5 135 c 128,-1,23
 219 100 219 100 260.5 80 c 128,-1,24
 302 60 302 60 364 60 c 0,25,26
 413 60 413 60 455 81 c 128,-1,27
 497 102 497 102 527.5 141 c 128,-1,28
 558 180 558 180 574 234 c 128,-1,29
 590 288 590 288 590 355 c 256,30,31
 590 422 590 422 574 476 c 128,-1,32
 558 530 558 530 528 569 c 128,-1,33
 498 608 498 608 456.5 629 c 128,-1,34
 415 650 415 650 365 650 c 0,35,36
 303 650 303 650 261.5 630.5 c 128,-1,37
 220 611 220 611 194 577 c 128,-1,38
 168 543 168 543 152 498 c 1,39,-1
 80 498 l 1,40,-1
 80 710 l 1,41,-1
 143 710 l 1,42,-1
 160 558 l 1,43,-1
 129 555 l 1,44,45
 143 606 143 606 173.5 642.5 c 128,-1,46
 204 679 204 679 252.5 699.5 c 128,-1,47
 301 720 301 720 366 720 c 0,48,49
 438 720 438 720 499 694 c 128,-1,50
 560 668 560 668 604.5 619 c 128,-1,51
 649 570 649 570 673.5 503.5 c 128,-1,52
 698 437 698 437 698 355 c 0,53,54
 698 277 698 277 672.5 210 c 128,-1,55
 647 143 647 143 601 94 c 128,-1,56
 555 45 555 45 494.5 17.5 c 128,-1,57
 434 -10 434 -10 364 -10 c 0,12,13
EndSplineSet
Substitution2: "'ss01' Style Set 1 lookup 61 subtable" Ecyr.alt1
EndChar

StartChar: Yucyr
Encoding: 1070 1070 300
Width: 1098
GlyphClass: 2
Flags: W
AnchorPoint: "Anchor-1" 572 0 basechar 0
AnchorPoint: "Anchor-0" 572 741 basechar 0
LayerCount: 2
Fore
SplineSet
198 400 m 1,0,-1
 426 400 l 1,1,-1
 426 332 l 1,2,-1
 198 332 l 1,3,-1
 198 400 l 1,0,-1
43 0 m 1,4,-1
 43 58 l 1,5,-1
 53 58 l 2,6,7
 83 58 83 58 106 65 c 128,-1,8
 129 72 129 72 129 94 c 2,9,-1
 129 616 l 2,10,11
 129 638 129 638 106 645 c 128,-1,12
 83 652 83 652 53 652 c 2,13,-1
 43 652 l 1,14,-1
 43 710 l 1,15,-1
 323 710 l 1,16,-1
 323 652 l 1,17,-1
 314 652 l 2,18,19
 301 652 301 652 286 651.5 c 128,-1,20
 271 651 271 651 258 649.5 c 128,-1,21
 245 648 245 648 237.5 646.5 c 128,-1,22
 230 645 230 645 230 642 c 2,23,-1
 230 68 l 2,24,25
 230 65 230 65 237.5 63.5 c 128,-1,26
 245 62 245 62 258 60.5 c 128,-1,27
 271 59 271 59 286 58.5 c 128,-1,28
 301 58 301 58 315 58 c 2,29,-1
 323 58 l 1,30,-1
 323 0 l 1,31,-1
 43 0 l 1,4,-1
712 -10 m 256,32,33
 640 -10 640 -10 578.5 16.5 c 128,-1,34
 517 43 517 43 470.5 91.5 c 128,-1,35
 424 140 424 140 398 207 c 128,-1,36
 372 274 372 274 372 355 c 256,37,38
 372 436 372 436 398 503 c 128,-1,39
 424 570 424 570 470.5 618.5 c 128,-1,40
 517 667 517 667 578.5 693.5 c 128,-1,41
 640 720 640 720 712 720 c 256,42,43
 784 720 784 720 845.5 693.5 c 128,-1,44
 907 667 907 667 953.5 618.5 c 128,-1,45
 1000 570 1000 570 1026 503 c 128,-1,46
 1052 436 1052 436 1052 355 c 256,47,48
 1052 274 1052 274 1026 207 c 128,-1,49
 1000 140 1000 140 953.5 91.5 c 128,-1,50
 907 43 907 43 845.5 16.5 c 128,-1,51
 784 -10 784 -10 712 -10 c 256,32,33
712 60 m 0,52,53
 763 60 763 60 805.5 80.5 c 128,-1,54
 848 101 848 101 879 140 c 128,-1,55
 910 179 910 179 927.5 233.5 c 128,-1,56
 945 288 945 288 945 355 c 256,57,58
 945 422 945 422 927.5 476.5 c 128,-1,59
 910 531 910 531 879 570 c 128,-1,60
 848 609 848 609 805.5 629.5 c 128,-1,61
 763 650 763 650 712 650 c 256,62,63
 661 650 661 650 618.5 629.5 c 128,-1,64
 576 609 576 609 545 570 c 128,-1,65
 514 531 514 531 497 476.5 c 128,-1,66
 480 422 480 422 480 355 c 256,67,68
 480 288 480 288 497 233.5 c 128,-1,69
 514 179 514 179 545.5 140 c 128,-1,70
 577 101 577 101 619.5 80.5 c 128,-1,71
 662 60 662 60 712 60 c 0,52,53
EndSplineSet
EndChar

StartChar: Yacyr
Encoding: 1071 1071 301
Width: 688
GlyphClass: 2
Flags: W
AnchorPoint: "Anchor-1" 345 0 basechar 0
AnchorPoint: "Anchor-0" 380 741 basechar 0
LayerCount: 2
Fore
SplineSet
331 321 m 1,0,-1
 162 0 l 1,1,-1
 20 0 l 1,2,-1
 20 58 l 1,3,-1
 28 58 l 2,4,5
 45 58 45 58 58.5 60 c 128,-1,6
 72 62 72 62 82 68.5 c 128,-1,7
 92 75 92 75 98 87 c 2,8,-1
 246 351 l 1,9,-1
 331 321 l 1,0,-1
459 68 m 2,10,-1
 459 641 l 1,11,-1
 360 641 l 2,12,13
 307 641 307 641 271.5 624 c 128,-1,14
 236 607 236 607 218 577 c 128,-1,15
 200 547 200 547 200 507 c 0,16,17
 200 463 200 463 217 430 c 128,-1,18
 234 397 234 397 271 379 c 128,-1,19
 308 361 308 361 364 361 c 2,20,-1
 479 361 l 1,21,-1
 479 296 l 1,22,-1
 301 296 l 1,23,-1
 282 304 l 1,24,25
 226 315 226 315 185 342.5 c 128,-1,26
 144 370 144 370 122 411.5 c 128,-1,27
 100 453 100 453 100 507 c 0,28,29
 100 567 100 567 131 613 c 128,-1,30
 162 659 162 659 220 684.5 c 128,-1,31
 278 710 278 710 358 710 c 2,32,-1
 645 710 l 1,33,-1
 645 652 l 1,34,-1
 635 652 l 2,35,36
 606 652 606 652 582.5 645 c 128,-1,37
 559 638 559 638 559 616 c 2,38,-1
 559 94 l 2,39,40
 559 72 559 72 582 65 c 128,-1,41
 605 58 605 58 635 58 c 2,42,-1
 645 58 l 1,43,-1
 645 0 l 1,44,-1
 369 0 l 1,45,-1
 369 58 l 1,46,-1
 381 58 l 2,47,48
 394 58 394 58 408 58.5 c 128,-1,49
 422 59 422 59 433.5 60.5 c 128,-1,50
 445 62 445 62 452 63.5 c 128,-1,51
 459 65 459 65 459 68 c 2,10,-1
EndSplineSet
EndChar

StartChar: Geupcyr
Encoding: 1168 1168 302
Width: 582
GlyphClass: 2
Flags: W
AnchorPoint: "Anchor-0" 274 741 basechar 0
LayerCount: 2
Fore
SplineSet
229 641 m 1,0,-1
 229 94 l 2,1,2
 229 78 229 78 243.5 70 c 128,-1,3
 258 62 258 62 279.5 60 c 128,-1,4
 301 58 301 58 322 58 c 2,5,-1
 339 58 l 1,6,-1
 339 0 l 1,7,-1
 43 0 l 1,8,-1
 43 58 l 1,9,-1
 53 58 l 2,10,11
 83 58 83 58 106 65 c 128,-1,12
 129 72 129 72 129 94 c 2,13,-1
 129 616 l 2,14,15
 129 638 129 638 106 645 c 128,-1,16
 83 652 83 652 53 652 c 2,17,-1
 43 652 l 1,18,-1
 43 710 l 1,19,-1
 363 710 l 2,20,21
 397 710 397 710 418 714 c 128,-1,22
 439 718 439 718 449.5 729 c 128,-1,23
 460 740 460 740 463 761 c 2,24,-1
 476 864 l 1,25,-1
 540 864 l 1,26,-1
 540 641 l 1,27,-1
 229 641 l 1,0,-1
EndSplineSet
EndChar

StartChar: Gestrokecyr
Encoding: 1170 1170 303
Width: 586
GlyphClass: 2
Flags: W
AnchorPoint: "Anchor-0" 299 741 basechar 0
LayerCount: 2
Fore
SplineSet
43 387 m 1,0,-1
 397 387 l 1,1,-1
 397 325 l 1,2,-1
 43 325 l 1,3,-1
 43 387 l 1,0,-1
229 641 m 1,4,-1
 229 94 l 2,5,6
 229 78 229 78 243.5 70 c 128,-1,7
 258 62 258 62 279.5 60 c 128,-1,8
 301 58 301 58 322 58 c 2,9,-1
 339 58 l 1,10,-1
 339 0 l 1,11,-1
 43 0 l 1,12,-1
 43 58 l 1,13,-1
 53 58 l 2,14,15
 83 58 83 58 106 65 c 128,-1,16
 129 72 129 72 129 94 c 2,17,-1
 129 616 l 2,18,19
 129 638 129 638 106 645 c 128,-1,20
 83 652 83 652 53 652 c 2,21,-1
 43 652 l 1,22,-1
 43 710 l 1,23,-1
 545 710 l 1,24,-1
 545 520 l 1,25,-1
 483 520 l 1,26,-1
 472 595 l 2,27,28
 469 614 469 614 455.5 624 c 128,-1,29
 442 634 442 634 415.5 637.5 c 128,-1,30
 389 641 389 641 346 641 c 2,31,-1
 229 641 l 1,4,-1
EndSplineSet
EndChar

StartChar: Zhetailcyr
Encoding: 1174 1174 304
Width: 1037
GlyphClass: 2
Flags: W
AnchorPoint: "Anchor-0" 510 741 basechar 0
LayerCount: 2
Fore
SplineSet
737 0 m 1,0,-1
 737 58 l 1,1,-1
 747 58 l 2,2,3
 764 58 764 58 782.5 59 c 128,-1,4
 801 60 801 60 813.5 62.5 c 128,-1,5
 826 65 826 65 826 68 c 2,6,-1
 598 348 l 1,7,-1
 598 364 l 1,8,-1
 839 641 l 2,9,10
 838 645 838 645 826.5 647 c 128,-1,11
 815 649 815 649 799 650.5 c 128,-1,12
 783 652 783 652 767 652 c 2,13,-1
 757 652 l 1,14,-1
 757 710 l 1,15,-1
 993 710 l 1,16,-1
 993 652 l 1,17,-1
 979 652 l 2,18,19
 965 652 965 652 952.5 649.5 c 128,-1,20
 940 647 940 647 929 640 c 128,-1,21
 918 633 918 633 906 620 c 2,22,-1
 679 361 l 1,23,-1
 674 405 l 1,24,-1
 952 66 l 1,25,-1
 952 0 l 1,26,-1
 737 0 l 1,0,-1
296 0 m 1,27,-1
 15 0 l 1,28,-1
 15 58 l 1,29,-1
 25 58 l 2,30,31
 45 58 45 58 58.5 60 c 128,-1,32
 72 62 72 62 83.5 69 c 128,-1,33
 95 76 95 76 107 90 c 2,34,-1
 364 405 l 1,35,-1
 351 361 l 1,36,-1
 123 620 l 2,37,38
 112 633 112 633 100.5 639.5 c 128,-1,39
 89 646 89 646 77 649 c 128,-1,40
 65 652 65 652 51 652 c 2,41,-1
 37 652 l 1,42,-1
 37 710 l 1,43,-1
 277 710 l 1,44,-1
 277 652 l 1,45,-1
 266 652 l 2,46,47
 251 652 251 652 234.5 650.5 c 128,-1,48
 218 649 218 649 206.5 647 c 128,-1,49
 195 645 195 645 194 641 c 2,50,-1
 435 364 l 1,51,-1
 435 348 l 1,52,-1
 207 68 l 2,53,54
 207 65 207 65 220 62.5 c 128,-1,55
 233 60 233 60 251.5 59 c 128,-1,56
 270 58 270 58 286 58 c 2,57,-1
 296 58 l 1,58,-1
 296 0 l 1,27,-1
856 0 m 2,59,-1
 837 0 l 1,60,-1
 842 68 l 1,61,-1
 1034 68 l 1,62,-1
 1034 -154 l 1,63,-1
 970 -154 l 1,64,-1
 957 -51 l 2,65,66
 954 -30 954 -30 943 -18.5 c 128,-1,67
 932 -7 932 -7 911.5 -3.5 c 128,-1,68
 891 0 891 0 856 0 c 2,59,-1
376 0 m 1,69,-1
 376 58 l 1,70,-1
 385 58 l 2,71,72
 399 58 399 58 413 58.5 c 128,-1,73
 427 59 427 59 439 60.5 c 128,-1,74
 451 62 451 62 458.5 63.5 c 128,-1,75
 466 65 466 65 466 68 c 2,76,-1
 466 642 l 2,77,78
 466 645 466 645 459 646.5 c 128,-1,79
 452 648 452 648 439.5 649.5 c 128,-1,80
 427 651 427 651 413 651.5 c 128,-1,81
 399 652 399 652 385 652 c 2,82,-1
 376 652 l 1,83,-1
 376 710 l 1,84,-1
 657 710 l 1,85,-1
 657 652 l 1,86,-1
 648 652 l 2,87,88
 635 652 635 652 620.5 651.5 c 128,-1,89
 606 651 606 651 594 649.5 c 128,-1,90
 582 648 582 648 574.5 646.5 c 128,-1,91
 567 645 567 645 567 642 c 2,92,-1
 567 68 l 2,93,94
 567 65 567 65 574.5 63.5 c 128,-1,95
 582 62 582 62 594 60.5 c 128,-1,96
 606 59 606 59 620.5 58.5 c 128,-1,97
 635 58 635 58 648 58 c 2,98,-1
 657 58 l 1,99,-1
 657 0 l 1,100,-1
 376 0 l 1,69,-1
EndSplineSet
EndChar

StartChar: Katailcyr
Encoding: 1178 1178 306
Width: 724
GlyphClass: 2
Flags: W
AnchorPoint: "Anchor-0" 370 741 basechar 0
LayerCount: 2
Fore
SplineSet
43 0 m 1,0,-1
 43 58 l 1,1,-1
 53 58 l 2,2,3
 83 58 83 58 106 65 c 128,-1,4
 129 72 129 72 129 94 c 2,5,-1
 129 616 l 2,6,7
 129 638 129 638 106 645 c 128,-1,8
 83 652 83 652 53 652 c 2,9,-1
 43 652 l 1,10,-1
 43 710 l 1,11,-1
 323 710 l 1,12,-1
 323 652 l 1,13,-1
 314 652 l 2,14,15
 301 652 301 652 286 651.5 c 128,-1,16
 271 651 271 651 258 649.5 c 128,-1,17
 245 648 245 648 237.5 646.5 c 128,-1,18
 230 645 230 645 230 642 c 2,19,-1
 230 68 l 2,20,21
 230 65 230 65 237.5 63.5 c 128,-1,22
 245 62 245 62 258 60.5 c 128,-1,23
 271 59 271 59 286 58.5 c 128,-1,24
 301 58 301 58 315 58 c 2,25,-1
 323 58 l 1,26,-1
 323 0 l 1,27,-1
 43 0 l 1,0,-1
422 0 m 1,28,-1
 422 58 l 1,29,-1
 432 58 l 2,30,31
 450 58 450 58 468 59 c 128,-1,32
 486 60 486 60 498.5 62.5 c 128,-1,33
 511 65 511 65 511 68 c 2,34,-1
 262 348 l 1,35,-1
 262 364 l 1,36,-1
 524 641 l 2,37,38
 523 645 523 645 511.5 647 c 128,-1,39
 500 649 500 649 484 650.5 c 128,-1,40
 468 652 468 652 452 652 c 2,41,-1
 442 652 l 1,42,-1
 442 710 l 1,43,-1
 678 710 l 1,44,-1
 678 652 l 1,45,-1
 664 652 l 2,46,47
 650 652 650 652 638 649 c 128,-1,48
 626 646 626 646 615.5 639 c 128,-1,49
 605 632 605 632 593 620 c 2,50,-1
 345 361 l 1,51,-1
 338 405 l 1,52,-1
 641 66 l 1,53,-1
 641 0 l 1,54,-1
 422 0 l 1,28,-1
543 0 m 2,55,-1
 524 0 l 1,56,-1
 529 68 l 1,57,-1
 720 68 l 1,58,-1
 720 -154 l 1,59,-1
 657 -154 l 1,60,-1
 643 -51 l 2,61,62
 641 -30 641 -30 630 -18.5 c 128,-1,63
 619 -7 619 -7 598.5 -3.5 c 128,-1,64
 578 0 578 0 543 0 c 2,55,-1
EndSplineSet
EndChar

StartChar: Kaverticalstrokecyr
Encoding: 1180 1180 307
Width: 807
GlyphClass: 2
Flags: W
AnchorPoint: "Anchor-0" 421 741 basechar 0
LayerCount: 2
Fore
SplineSet
312 171 m 1,0,-1
 312 544 l 1,1,-1
 379 544 l 1,2,-1
 379 171 l 1,3,-1
 312 171 l 1,0,-1
43 0 m 1,4,-1
 43 58 l 1,5,-1
 53 58 l 2,6,7
 83 58 83 58 106 65 c 128,-1,8
 129 72 129 72 129 94 c 2,9,-1
 129 616 l 2,10,11
 129 638 129 638 106 645 c 128,-1,12
 83 652 83 652 53 652 c 2,13,-1
 43 652 l 1,14,-1
 43 710 l 1,15,-1
 323 710 l 1,16,-1
 323 652 l 1,17,-1
 314 652 l 2,18,19
 301 652 301 652 286 651.5 c 128,-1,20
 271 651 271 651 258 649.5 c 128,-1,21
 245 648 245 648 237.5 646.5 c 128,-1,22
 230 645 230 645 230 642 c 2,23,-1
 230 68 l 2,24,25
 230 65 230 65 237.5 63.5 c 128,-1,26
 245 62 245 62 258 60.5 c 128,-1,27
 271 59 271 59 286 58.5 c 128,-1,28
 301 58 301 58 315 58 c 2,29,-1
 323 58 l 1,30,-1
 323 0 l 1,31,-1
 43 0 l 1,4,-1
513 0 m 1,32,-1
 513 58 l 1,33,-1
 523 58 l 2,34,35
 542 58 542 58 561 59 c 128,-1,36
 580 60 580 60 592 62.5 c 128,-1,37
 604 65 604 65 604 68 c 2,38,-1
 411 348 l 1,39,-1
 411 364 l 1,40,-1
 620 641 l 2,41,42
 620 645 620 645 608.5 647 c 128,-1,43
 597 649 597 649 579 650.5 c 128,-1,44
 561 652 561 652 544 652 c 2,45,-1
 533 652 l 1,46,-1
 533 710 l 1,47,-1
 766 710 l 1,48,-1
 766 652 l 1,49,-1
 752 652 l 2,50,51
 732 652 732 652 715 646 c 128,-1,52
 698 640 698 640 684 620 c 2,53,-1
 488 361 l 1,54,-1
 485 405 l 1,55,-1
 703 92 l 2,56,57
 714 76 714 76 725.5 69 c 128,-1,58
 737 62 737 62 751 60 c 128,-1,59
 765 58 765 58 782 58 c 2,60,-1
 792 58 l 1,61,-1
 792 0 l 1,62,-1
 513 0 l 1,32,-1
EndSplineSet
EndChar

StartChar: Kabashkcyr
Encoding: 1184 1184 308
Width: 847
GlyphClass: 2
Flags: W
AnchorPoint: "Anchor-0" 500 741 basechar 0
LayerCount: 2
Fore
SplineSet
545 0 m 1,0,-1
 545 58 l 1,1,-1
 555 58 l 2,2,3
 573 58 573 58 591 59 c 128,-1,4
 609 60 609 60 621.5 62.5 c 128,-1,5
 634 65 634 65 634 68 c 2,6,-1
 385 348 l 1,7,-1
 385 364 l 1,8,-1
 647 641 l 2,9,10
 647 645 647 645 635 647 c 128,-1,11
 623 649 623 649 607 650.5 c 128,-1,12
 591 652 591 652 576 652 c 2,13,-1
 565 652 l 1,14,-1
 565 710 l 1,15,-1
 801 710 l 1,16,-1
 801 652 l 1,17,-1
 788 652 l 2,18,19
 774 652 774 652 761.5 649 c 128,-1,20
 749 646 749 646 738.5 639 c 128,-1,21
 728 632 728 632 716 620 c 2,22,-1
 468 361 l 1,23,-1
 461 405 l 1,24,-1
 741 92 l 2,25,26
 754 78 754 78 765 70.5 c 128,-1,27
 776 63 776 63 790 60.5 c 128,-1,28
 804 58 804 58 822 58 c 2,29,-1
 832 58 l 1,30,-1
 832 0 l 1,31,-1
 545 0 l 1,0,-1
166 0 m 1,32,-1
 166 58 l 1,33,-1
 176 58 l 2,34,35
 206 58 206 58 229.5 65 c 128,-1,36
 253 72 253 72 253 94 c 2,37,-1
 253 644 l 1,38,-1
 213 644 l 2,39,40
 174 644 174 644 152.5 639.5 c 128,-1,41
 131 635 131 635 122.5 624.5 c 128,-1,42
 114 614 114 614 110 594 c 2,43,-1
 99 516 l 1,44,-1
 38 516 l 1,45,-1
 38 710 l 1,46,-1
 447 710 l 1,47,-1
 447 652 l 1,48,-1
 438 652 l 2,49,50
 419 652 419 652 400 651 c 128,-1,51
 381 650 381 650 367.5 648 c 128,-1,52
 354 646 354 646 354 642 c 2,53,-1
 354 68 l 2,54,55
 354 65 354 65 367.5 62.5 c 128,-1,56
 381 60 381 60 400 59 c 128,-1,57
 419 58 419 58 438 58 c 2,58,-1
 447 58 l 1,59,-1
 447 0 l 1,60,-1
 166 0 l 1,32,-1
EndSplineSet
EndChar

StartChar: Entailcyr
Encoding: 1186 1186 309
Width: 823
GlyphClass: 2
Flags: W
AnchorPoint: "Anchor-0" 412 741 basechar 0
LayerCount: 2
Fore
SplineSet
198 400 m 1,0,-1
 626 400 l 1,1,-1
 626 332 l 1,2,-1
 198 332 l 1,3,-1
 198 400 l 1,0,-1
43 0 m 1,4,-1
 43 58 l 1,5,-1
 53 58 l 2,6,7
 83 58 83 58 106 65 c 128,-1,8
 129 72 129 72 129 94 c 2,9,-1
 129 616 l 2,10,11
 129 638 129 638 106 645 c 128,-1,12
 83 652 83 652 53 652 c 2,13,-1
 43 652 l 1,14,-1
 43 710 l 1,15,-1
 323 710 l 1,16,-1
 323 652 l 1,17,-1
 314 652 l 2,18,19
 301 652 301 652 286 651.5 c 128,-1,20
 271 651 271 651 258 649.5 c 128,-1,21
 245 648 245 648 237.5 646.5 c 128,-1,22
 230 645 230 645 230 642 c 2,23,-1
 230 68 l 2,24,25
 230 65 230 65 237.5 63.5 c 128,-1,26
 245 62 245 62 258 60.5 c 128,-1,27
 271 59 271 59 286 58.5 c 128,-1,28
 301 58 301 58 315 58 c 2,29,-1
 323 58 l 1,30,-1
 323 0 l 1,31,-1
 43 0 l 1,4,-1
500 0 m 1,32,-1
 500 58 l 1,33,-1
 509 58 l 2,34,35
 523 58 523 58 538 58.5 c 128,-1,36
 553 59 553 59 565.5 60.5 c 128,-1,37
 578 62 578 62 586 63.5 c 128,-1,38
 594 65 594 65 594 68 c 2,39,-1
 594 642 l 2,40,41
 594 645 594 645 586 646.5 c 128,-1,42
 578 648 578 648 565.5 649.5 c 128,-1,43
 553 651 553 651 538 651.5 c 128,-1,44
 523 652 523 652 509 652 c 2,45,-1
 500 652 l 1,46,-1
 500 710 l 1,47,-1
 781 710 l 1,48,-1
 781 652 l 1,49,-1
 771 652 l 2,50,51
 741 652 741 652 717.5 645 c 128,-1,52
 694 638 694 638 694 616 c 2,53,-1
 694 0 l 1,54,-1
 500 0 l 1,32,-1
612 0 m 2,55,-1
 592 0 l 1,56,-1
 594 68 l 1,57,-1
 789 68 l 1,58,-1
 789 -154 l 1,59,-1
 726 -154 l 1,60,-1
 712 -51 l 2,61,62
 710 -30 710 -30 699 -18.5 c 128,-1,63
 688 -7 688 -7 667 -3.5 c 128,-1,64
 646 0 646 0 612 0 c 2,55,-1
EndSplineSet
EndChar

StartChar: Tetailcyr
Encoding: 1196 1196 311
Width: 660
GlyphClass: 2
Flags: W
AnchorPoint: "Anchor-0" 324 741 basechar 0
LayerCount: 2
Fore
SplineSet
280 94 m 2,0,-1
 280 644 l 1,1,-1
 213 644 l 2,2,3
 174 644 174 644 152.5 639.5 c 128,-1,4
 131 635 131 635 122.5 624.5 c 128,-1,5
 114 614 114 614 110 594 c 2,6,-1
 99 516 l 1,7,-1
 38 516 l 1,8,-1
 38 710 l 1,9,-1
 622 710 l 1,10,-1
 622 516 l 1,11,-1
 561 516 l 1,12,-1
 549 594 l 2,13,14
 547 614 547 614 537.5 624.5 c 128,-1,15
 528 635 528 635 507 639.5 c 128,-1,16
 486 644 486 644 446 644 c 2,17,-1
 380 644 l 1,18,-1
 380 0 l 1,19,-1
 183 0 l 1,20,-1
 183 58 l 1,21,-1
 199 58 l 2,22,23
 232 58 232 58 256 65 c 128,-1,24
 280 72 280 72 280 94 c 2,0,-1
310 0 m 2,25,-1
 290 0 l 1,26,-1
 290 68 l 1,27,-1
 488 68 l 1,28,-1
 488 -154 l 1,29,-1
 424 -154 l 1,30,-1
 411 -51 l 2,31,32
 408 -30 408 -30 397 -18.5 c 128,-1,33
 386 -7 386 -7 365.5 -3.5 c 128,-1,34
 345 0 345 0 310 0 c 2,25,-1
EndSplineSet
EndChar

StartChar: Ustraightstrokecyr
Encoding: 1200 1200 313
Width: 668
GlyphClass: 2
Flags: W
AnchorPoint: "Anchor-1" 335 0 basechar 0
AnchorPoint: "Anchor-0" 335 741 basechar 0
LayerCount: 2
Fore
SplineSet
148 298 m 1,0,-1
 526 298 l 1,1,-1
 526 235 l 1,2,-1
 148 235 l 1,3,-1
 148 298 l 1,0,-1
287 322 m 1,4,-1
 297 281 l 1,5,-1
 83 625 l 2,6,7
 75 638 75 638 64.5 643.5 c 128,-1,8
 54 649 54 649 42.5 650.5 c 128,-1,9
 31 652 31 652 18 652 c 2,10,-1
 13 652 l 1,11,-1
 13 710 l 1,12,-1
 271 710 l 1,13,-1
 271 652 l 1,14,-1
 254 652 l 2,15,16
 236 652 236 652 219 651 c 128,-1,17
 202 650 202 650 190 647.5 c 128,-1,18
 178 645 178 645 178 641 c 2,19,-1
 373 326 l 1,20,-1
 331 328 l 1,21,-1
 508 632 l 2,22,23
 508 638 508 638 498 642.5 c 128,-1,24
 488 647 488 647 472.5 649.5 c 128,-1,25
 457 652 457 652 440 652 c 2,26,-1
 423 652 l 1,27,-1
 423 710 l 1,28,-1
 655 710 l 1,29,-1
 655 652 l 1,30,-1
 649 652 l 2,31,32
 636 652 636 652 622.5 648.5 c 128,-1,33
 609 645 609 645 595.5 635 c 128,-1,34
 582 625 582 625 570 605 c 2,35,-1
 377 280 l 1,36,-1
 387 322 l 1,37,-1
 387 94 l 2,38,39
 387 72 387 72 411 65 c 128,-1,40
 435 58 435 58 468 58 c 2,41,-1
 484 58 l 1,42,-1
 484 0 l 1,43,-1
 191 0 l 1,44,-1
 191 58 l 1,45,-1
 207 58 l 2,46,47
 240 58 240 58 263.5 65 c 128,-1,48
 287 72 287 72 287 94 c 2,49,-1
 287 322 l 1,4,-1
EndSplineSet
EndChar

StartChar: Xatailcyr
Encoding: 1202 1202 314
Width: 727
GlyphClass: 2
Flags: W
AnchorPoint: "Anchor-0" 371 741 basechar 0
LayerCount: 2
Fore
SplineSet
43 652 m 1,0,-1
 43 710 l 1,1,-1
 310 710 l 1,2,-1
 310 652 l 1,3,-1
 294 652 l 2,4,5
 276 652 276 652 259.5 651 c 128,-1,6
 243 650 243 650 232.5 647.5 c 128,-1,7
 222 645 222 645 222 641 c 2,8,-1
 400 390 l 1,9,-1
 407 388 l 1,10,-1
 638 66 l 1,11,-1
 638 0 l 1,12,-1
 430 0 l 1,13,-1
 430 58 l 1,14,-1
 446 58 l 2,15,16
 464 58 464 58 481 59 c 128,-1,17
 498 60 498 60 508.5 63 c 128,-1,18
 519 66 519 66 519 69 c 2,19,-1
 326 336 l 1,20,-1
 319 340 l 1,21,-1
 121 620 l 2,22,23
 106 642 106 642 88 647 c 128,-1,24
 70 652 70 652 48 652 c 2,25,-1
 43 652 l 1,0,-1
25 0 m 1,26,-1
 25 58 l 1,27,-1
 35 58 l 2,28,29
 59 58 59 58 77 69 c 128,-1,30
 95 80 95 80 117 108 c 2,31,-1
 320 380 l 1,32,-1
 374 339 l 1,33,-1
 179 77 l 2,34,35
 179 72 179 72 190 67.5 c 128,-1,36
 201 63 201 63 217.5 60.5 c 128,-1,37
 234 58 234 58 251 58 c 2,38,-1
 266 58 l 1,39,-1
 266 0 l 1,40,-1
 25 0 l 1,26,-1
405 355 m 1,41,-1
 350 394 l 1,42,-1
 526 632 l 2,43,44
 526 638 526 638 515.5 642.5 c 128,-1,45
 505 647 505 647 489 649.5 c 128,-1,46
 473 652 473 652 455 652 c 2,47,-1
 440 652 l 1,48,-1
 440 710 l 1,49,-1
 678 710 l 1,50,-1
 678 652 l 1,51,-1
 672 652 l 2,52,53
 649 652 649 652 630.5 642.5 c 128,-1,54
 612 633 612 633 591 606 c 2,55,-1
 405 355 l 1,41,-1
542 0 m 2,56,-1
 524 0 l 1,57,-1
 529 68 l 1,58,-1
 720 68 l 1,59,-1
 720 -154 l 1,60,-1
 657 -154 l 1,61,-1
 643 -51 l 2,62,63
 640 -30 640 -30 629.5 -18.5 c 128,-1,64
 619 -7 619 -7 598 -3.5 c 128,-1,65
 577 0 577 0 542 0 c 2,56,-1
EndSplineSet
EndChar

StartChar: Chetailcyr
Encoding: 1206 1206 315
Width: 771
GlyphClass: 2
Flags: W
AnchorPoint: "Anchor-0" 379 741 basechar 0
LayerCount: 2
Fore
SplineSet
361 273 m 0,0,1
 273 273 273 273 220 294.5 c 128,-1,2
 167 316 167 316 143 366 c 128,-1,3
 119 416 119 416 119 498 c 2,4,-1
 119 616 l 2,5,6
 119 638 119 638 95.5 645 c 128,-1,7
 72 652 72 652 43 652 c 2,8,-1
 33 652 l 1,9,-1
 33 710 l 1,10,-1
 313 710 l 1,11,-1
 313 652 l 1,12,-1
 304 652 l 2,13,14
 286 652 286 652 266.5 651 c 128,-1,15
 247 650 247 650 233 648 c 128,-1,16
 219 646 219 646 219 642 c 2,17,-1
 219 503 l 2,18,19
 219 445 219 445 233 408.5 c 128,-1,20
 247 372 247 372 278 356 c 128,-1,21
 309 340 309 340 361 340 c 0,22,23
 417 340 417 340 475.5 353 c 128,-1,24
 534 366 534 366 587 400 c 1,25,-1
 587 333 l 1,26,27
 534 302 534 302 475 287.5 c 128,-1,28
 416 273 416 273 361 273 c 0,0,1
443 0 m 1,29,-1
 443 58 l 1,30,-1
 457 58 l 2,31,32
 475 58 475 58 494.5 59 c 128,-1,33
 514 60 514 60 527.5 62.5 c 128,-1,34
 541 65 541 65 541 68 c 2,35,-1
 541 642 l 2,36,37
 541 646 541 646 527.5 648 c 128,-1,38
 514 650 514 650 494.5 651 c 128,-1,39
 475 652 475 652 457 652 c 2,40,-1
 448 652 l 1,41,-1
 448 710 l 1,42,-1
 728 710 l 1,43,-1
 728 652 l 1,44,-1
 718 652 l 2,45,46
 688 652 688 652 665 645 c 128,-1,47
 642 638 642 638 642 616 c 2,48,-1
 642 0 l 1,49,-1
 443 0 l 1,29,-1
559 0 m 2,50,-1
 540 0 l 1,51,-1
 541 68 l 1,52,-1
 737 68 l 1,53,-1
 737 -154 l 1,54,-1
 673 -154 l 1,55,-1
 660 -51 l 2,56,57
 657 -30 657 -30 646 -18.5 c 128,-1,58
 635 -7 635 -7 614.5 -3.5 c 128,-1,59
 594 0 594 0 559 0 c 2,50,-1
EndSplineSet
EndChar

StartChar: Chevertcyr
Encoding: 1208 1208 316
Width: 791
GlyphClass: 2
Flags: W
AnchorPoint: "Anchor-0" 388 741 basechar 0
LayerCount: 2
Fore
SplineSet
463 0 m 1,0,-1
 463 58 l 1,1,-1
 477 58 l 2,2,3
 495 58 495 58 514.5 59 c 128,-1,4
 534 60 534 60 548 62.5 c 128,-1,5
 562 65 562 65 562 68 c 2,6,-1
 562 642 l 2,7,8
 562 646 562 646 548 648 c 128,-1,9
 534 650 534 650 514.5 651 c 128,-1,10
 495 652 495 652 477 652 c 2,11,-1
 468 652 l 1,12,-1
 468 710 l 1,13,-1
 748 710 l 1,14,-1
 748 652 l 1,15,-1
 738 652 l 2,16,17
 709 652 709 652 685.5 645 c 128,-1,18
 662 638 662 638 662 616 c 2,19,-1
 662 94 l 2,20,21
 662 72 662 72 685 65 c 128,-1,22
 708 58 708 58 738 58 c 2,23,-1
 748 58 l 1,24,-1
 748 0 l 1,25,-1
 463 0 l 1,0,-1
371 273 m 0,26,27
 280 273 280 273 224.5 294.5 c 128,-1,28
 169 316 169 316 144 366 c 128,-1,29
 119 416 119 416 119 498 c 2,30,-1
 119 616 l 2,31,32
 119 638 119 638 95.5 645 c 128,-1,33
 72 652 72 652 43 652 c 2,34,-1
 33 652 l 1,35,-1
 33 710 l 1,36,-1
 313 710 l 1,37,-1
 313 652 l 1,38,-1
 304 652 l 2,39,40
 286 652 286 652 266.5 651 c 128,-1,41
 247 650 247 650 233 648 c 128,-1,42
 219 646 219 646 219 642 c 2,43,-1
 219 503 l 2,44,45
 219 445 219 445 234 408.5 c 128,-1,46
 249 372 249 372 282 356 c 128,-1,47
 315 340 315 340 371 340 c 0,48,49
 429 340 429 340 490.5 353 c 128,-1,50
 552 366 552 366 607 400 c 1,51,-1
 607 333 l 1,52,53
 553 301 553 301 490.5 287 c 128,-1,54
 428 273 428 273 371 273 c 0,26,27
357 153 m 1,55,-1
 357 526 l 1,56,-1
 424 526 l 1,57,-1
 424 153 l 1,58,-1
 357 153 l 1,55,-1
EndSplineSet
EndChar

StartChar: Shhacyr
Encoding: 1210 1210 317
Width: 766
GlyphClass: 1
Flags: W
LayerCount: 2
Fore
SplineSet
328 710 m 1,0,-1
 328 652 l 1,1,-1
 314 652 l 2,2,3
 296 652 296 652 276.5 651 c 128,-1,4
 257 650 257 650 243.5 648 c 128,-1,5
 230 646 230 646 230 642 c 2,6,-1
 230 68 l 2,7,8
 230 65 230 65 243.5 62.5 c 128,-1,9
 257 60 257 60 276.5 59 c 128,-1,10
 296 58 296 58 314 58 c 2,11,-1
 323 58 l 1,12,-1
 323 0 l 1,13,-1
 43 0 l 1,14,-1
 43 58 l 1,15,-1
 53 58 l 2,16,17
 83 58 83 58 106 65 c 128,-1,18
 129 72 129 72 129 94 c 2,19,-1
 129 616 l 2,20,21
 129 638 129 638 106 645 c 128,-1,22
 83 652 83 652 53 652 c 2,23,-1
 43 652 l 1,24,-1
 43 710 l 1,25,-1
 328 710 l 1,0,-1
410 438 m 0,26,27
 498 438 498 438 551.5 416 c 128,-1,28
 605 394 605 394 628.5 344.5 c 128,-1,29
 652 295 652 295 652 212 c 2,30,-1
 652 94 l 2,31,32
 652 72 652 72 675.5 65 c 128,-1,33
 699 58 699 58 728 58 c 2,34,-1
 738 58 l 1,35,-1
 738 0 l 1,36,-1
 458 0 l 1,37,-1
 458 58 l 1,38,-1
 467 58 l 2,39,40
 485 58 485 58 504.5 59 c 128,-1,41
 524 60 524 60 538 62.5 c 128,-1,42
 552 65 552 65 552 68 c 2,43,-1
 552 207 l 2,44,45
 552 266 552 266 538 302 c 128,-1,46
 524 338 524 338 493 354 c 128,-1,47
 462 370 462 370 410 370 c 0,48,49
 354 370 354 370 295.5 357 c 128,-1,50
 237 344 237 344 184 310 c 1,51,-1
 184 378 l 1,52,53
 237 409 237 409 296 423.5 c 128,-1,54
 355 438 355 438 410 438 c 0,26,27
EndSplineSet
EndChar

StartChar: Obarcyr
Encoding: 1256 1256 320
Width: 792
GlyphClass: 2
Flags: W
AnchorPoint: "Anchor-1" 389 0 basechar 0
AnchorPoint: "Anchor-0" 389 741 basechar 0
LayerCount: 2
Fore
SplineSet
95 400 m 1,0,-1
 698 400 l 1,1,-1
 698 332 l 1,2,-1
 95 332 l 1,3,-1
 95 400 l 1,0,-1
396 -10 m 0,4,5
 322 -10 322 -10 258.5 16.5 c 128,-1,6
 195 43 195 43 147 91.5 c 128,-1,7
 99 140 99 140 72.5 207 c 128,-1,8
 46 274 46 274 46 355 c 256,9,10
 46 436 46 436 72.5 503 c 128,-1,11
 99 570 99 570 147 618.5 c 128,-1,12
 195 667 195 667 258.5 693.5 c 128,-1,13
 322 720 322 720 396 720 c 0,14,15
 469 720 469 720 532.5 693.5 c 128,-1,16
 596 667 596 667 644 618.5 c 128,-1,17
 692 570 692 570 719 503 c 128,-1,18
 746 436 746 436 746 355 c 256,19,20
 746 274 746 274 719 207 c 128,-1,21
 692 140 692 140 644 91.5 c 128,-1,22
 596 43 596 43 532.5 16.5 c 128,-1,23
 469 -10 469 -10 396 -10 c 0,4,5
396 60 m 256,24,25
 449 60 449 60 493 80.5 c 128,-1,26
 537 101 537 101 570 140 c 128,-1,27
 603 179 603 179 620.5 233.5 c 128,-1,28
 638 288 638 288 638 355 c 256,29,30
 638 422 638 422 620.5 476.5 c 128,-1,31
 603 531 603 531 570 570 c 128,-1,32
 537 609 537 609 493 629.5 c 128,-1,33
 449 650 449 650 396 650 c 256,34,35
 343 650 343 650 298.5 629.5 c 128,-1,36
 254 609 254 609 221.5 570 c 128,-1,37
 189 531 189 531 171 476.5 c 128,-1,38
 153 422 153 422 153 355 c 256,39,40
 153 288 153 288 171 233.5 c 128,-1,41
 189 179 189 179 221.5 140 c 128,-1,42
 254 101 254 101 298.5 80.5 c 128,-1,43
 343 60 343 60 396 60 c 256,24,25
EndSplineSet
EndChar

StartChar: Hastrokecyr
Encoding: 1278 1278 321
Width: 728
GlyphClass: 2
Flags: W
AnchorPoint: "Anchor-1" 344 0 basechar 0
AnchorPoint: "Anchor-0" 371 741 basechar 0
LayerCount: 2
Fore
SplineSet
170 399 m 1,0,-1
 553 399 l 1,1,-1
 553 337 l 1,2,-1
 170 337 l 1,3,-1
 170 399 l 1,0,-1
43 652 m 1,4,-1
 43 710 l 1,5,-1
 310 710 l 1,6,-1
 310 652 l 1,7,-1
 294 652 l 2,8,9
 276 652 276 652 259.5 651 c 128,-1,10
 243 650 243 650 232.5 647.5 c 128,-1,11
 222 645 222 645 222 641 c 2,12,-1
 400 390 l 1,13,-1
 406 388 l 1,14,-1
 620 91 l 2,15,16
 636 70 636 70 654 64 c 128,-1,17
 672 58 672 58 693 58 c 2,18,-1
 703 58 l 1,19,-1
 703 0 l 1,20,-1
 430 0 l 1,21,-1
 430 58 l 1,22,-1
 446 58 l 2,23,24
 464 58 464 58 481 59 c 128,-1,25
 498 60 498 60 508.5 63 c 128,-1,26
 519 66 519 66 519 69 c 2,27,-1
 326 336 l 1,28,-1
 320 340 l 1,29,-1
 121 620 l 2,30,31
 106 642 106 642 88 647 c 128,-1,32
 70 652 70 652 48 652 c 2,33,-1
 43 652 l 1,4,-1
25 0 m 1,34,-1
 25 58 l 1,35,-1
 35 58 l 2,36,37
 59 58 59 58 77 69 c 128,-1,38
 95 80 95 80 117 108 c 2,39,-1
 321 380 l 1,40,-1
 374 339 l 1,41,-1
 179 77 l 2,42,43
 179 72 179 72 190 67.5 c 128,-1,44
 201 63 201 63 217.5 60.5 c 128,-1,45
 234 58 234 58 251 58 c 2,46,-1
 266 58 l 1,47,-1
 266 0 l 1,48,-1
 25 0 l 1,34,-1
404 355 m 1,49,-1
 350 394 l 1,50,-1
 526 632 l 2,51,52
 526 638 526 638 515.5 642.5 c 128,-1,53
 505 647 505 647 489 649.5 c 128,-1,54
 473 652 473 652 455 652 c 2,55,-1
 440 652 l 1,56,-1
 440 710 l 1,57,-1
 678 710 l 1,58,-1
 678 652 l 1,59,-1
 672 652 l 2,60,61
 650 652 650 652 631 642.5 c 128,-1,62
 612 633 612 633 591 606 c 2,63,-1
 404 355 l 1,49,-1
EndSplineSet
EndChar

StartChar: a
Encoding: 97 97 322
Width: 540
GlyphClass: 2
Flags: W
AnchorPoint: "Anchor-2" 406 -8 basechar 0
AnchorPoint: "Anchor-1" 278 0 basechar 0
AnchorPoint: "Anchor-0" 250 510 basechar 0
LayerCount: 2
Fore
SplineSet
382 308 m 1,0,-1
 382 253 l 1,1,2
 332 248 332 248 294 240.5 c 128,-1,3
 256 233 256 233 228 222.5 c 128,-1,4
 200 212 200 212 182 198 c 128,-1,5
 164 184 164 184 155.5 166 c 128,-1,6
 147 148 147 148 147 125 c 0,7,8
 147 101 147 101 157.5 84.5 c 128,-1,9
 168 68 168 68 186.5 60.5 c 128,-1,10
 205 53 205 53 227 53 c 0,11,12
 263 53 263 53 290.5 68.5 c 128,-1,13
 318 84 318 84 339.5 113 c 128,-1,14
 361 142 361 142 376 182 c 1,15,-1
 381 110 l 1,16,17
 367 73 367 73 341 46 c 128,-1,18
 315 19 315 19 281 4.5 c 128,-1,19
 247 -10 247 -10 204 -10 c 256,20,21
 161 -10 161 -10 125.5 6 c 128,-1,22
 90 22 90 22 68.5 52.5 c 128,-1,23
 47 83 47 83 47 124 c 0,24,25
 47 167 47 167 68 198 c 128,-1,26
 89 229 89 229 131 250 c 128,-1,27
 173 271 173 271 236 285 c 128,-1,28
 299 299 299 299 382 308 c 1,0,-1
368 0 m 1,29,-1
 368 105 l 1,30,-1
 355 107 l 1,31,-1
 355 352 l 2,32,33
 355 390 355 390 344 413 c 128,-1,34
 333 436 333 436 311 446.5 c 128,-1,35
 289 457 289 457 256 457 c 0,36,37
 206 457 206 457 172.5 438 c 128,-1,38
 139 419 139 419 120 391 c 1,39,40
 119 405 119 405 123 417.5 c 128,-1,41
 127 430 127 430 134.5 439.5 c 128,-1,42
 142 449 142 449 152 455.5 c 128,-1,43
 162 462 162 462 172 465 c 1,44,-1
 172 361 l 1,45,-1
 80 361 l 1,46,-1
 80 461 l 1,47,48
 96 474 96 474 122 487.5 c 128,-1,49
 148 501 148 501 184 510.5 c 128,-1,50
 220 520 220 520 263 520 c 0,51,52
 300 520 300 520 333.5 512 c 128,-1,53
 367 504 367 504 393.5 485 c 128,-1,54
 420 466 420 466 435.5 435.5 c 128,-1,55
 451 405 451 405 451 361 c 2,56,-1
 451 93 l 2,57,58
 451 79 451 79 460.5 71 c 128,-1,59
 470 63 470 63 487 60 c 128,-1,60
 504 57 504 57 527 57 c 1,61,-1
 527 57 l 1,62,-1
 527 0 l 1,63,-1
 368 0 l 1,29,-1
EndSplineSet
Substitution2: "'ss06' Style Set 6 lookup 66 subtable" a.alt
EndChar

StartChar: aogonek
Encoding: 261 261 331
Width: 540
GlyphClass: 1
Flags: W
LayerCount: 2
Fore
SplineSet
242 -145 m 0,0,1
 242 -119 242 -119 255 -96.5 c 128,-1,2
 268 -74 268 -74 291.5 -52 c 128,-1,3
 315 -30 315 -30 348 -9 c 128,-1,4
 381 12 381 12 421 33 c 1,5,-1
 454 5 l 1,6,7
 421 -15 421 -15 398 -33.5 c 128,-1,8
 375 -52 375 -52 362 -70 c 128,-1,9
 349 -88 349 -88 343 -104.5 c 128,-1,10
 337 -121 337 -121 337 -136 c 0,11,12
 337 -157 337 -157 347 -169 c 128,-1,13
 357 -181 357 -181 374 -181 c 0,14,15
 390 -181 390 -181 402 -173 c 128,-1,16
 414 -165 414 -165 425 -155 c 1,17,-1
 454 -190 l 1,18,19
 435 -210 435 -210 412 -223 c 128,-1,20
 389 -236 389 -236 350 -236 c 0,21,22
 303 -236 303 -236 272.5 -212 c 128,-1,23
 242 -188 242 -188 242 -145 c 0,0,1
527 0 m 1,24,-1
 368 0 l 1,25,-1
 368 105 l 1,26,-1
 354 107 l 1,27,-1
 354 353 l 2,28,29
 354 391 354 391 343.5 414 c 128,-1,30
 333 437 333 437 311 447.5 c 128,-1,31
 289 458 289 458 256 458 c 0,32,33
 206 458 206 458 172.5 439.5 c 128,-1,34
 139 421 139 421 119 393 c 1,35,36
 118 406 118 406 122 418 c 128,-1,37
 126 430 126 430 134 439.5 c 128,-1,38
 142 449 142 449 152 455.5 c 128,-1,39
 162 462 162 462 172 465 c 1,40,-1
 172 361 l 1,41,-1
 79 361 l 1,42,-1
 79 461 l 1,43,44
 95 474 95 474 121.5 488 c 128,-1,45
 148 502 148 502 184 511 c 128,-1,46
 220 520 220 520 263 520 c 0,47,48
 299 520 299 520 332.5 512 c 128,-1,49
 366 504 366 504 392.5 485 c 128,-1,50
 419 466 419 466 434.5 435.5 c 128,-1,51
 450 405 450 405 450 361 c 2,52,-1
 450 93 l 2,53,54
 450 79 450 79 459.5 71 c 128,-1,55
 469 63 469 63 486 60 c 128,-1,56
 503 57 503 57 527 57 c 1,57,-1
 527 57 l 1,58,-1
 527 0 l 1,24,-1
46 124 m 0,59,60
 46 168 46 168 67 199 c 128,-1,61
 88 230 88 230 130 251 c 128,-1,62
 172 272 172 272 235 285.5 c 128,-1,63
 298 299 298 299 382 308 c 1,64,-1
 381 255 l 1,65,66
 332 250 332 250 293.5 242.5 c 128,-1,67
 255 235 255 235 227 224.5 c 128,-1,68
 199 214 199 214 181 199.5 c 128,-1,69
 163 185 163 185 154.5 166.5 c 128,-1,70
 146 148 146 148 146 125 c 0,71,72
 146 100 146 100 156.5 84 c 128,-1,73
 167 68 167 68 185.5 60 c 128,-1,74
 204 52 204 52 226 52 c 0,75,76
 262 52 262 52 289.5 67.5 c 128,-1,77
 317 83 317 83 338.5 112 c 128,-1,78
 360 141 360 141 376 180 c 1,79,-1
 380 108 l 1,80,81
 366 71 366 71 340.5 44.5 c 128,-1,82
 315 18 315 18 280.5 4 c 128,-1,83
 246 -10 246 -10 203 -10 c 256,84,85
 160 -10 160 -10 124.5 6 c 128,-1,86
 89 22 89 22 67.5 52.5 c 128,-1,87
 46 83 46 83 46 124 c 0,59,60
EndSplineSet
Substitution2: "'ss06' Style Set 6 lookup 66 subtable" aogonek.alt
EndChar

StartChar: acaron
Encoding: 462 462 332
Width: 540
GlyphClass: 1
Flags: W
LayerCount: 2
Fore
SplineSet
233 573 m 1,0,-1
 309 573 l 1,1,-1
 422 730 l 1,2,-1
 422 740 l 1,3,-1
 373 740 l 1,4,-1
 255 631 l 1,5,-1
 292 631 l 1,6,-1
 174 740 l 1,7,-1
 119 740 l 1,8,-1
 119 730 l 1,9,-1
 233 573 l 1,0,-1
382 308 m 1,10,-1
 382 253 l 1,11,12
 332 248 332 248 294 240.5 c 128,-1,13
 256 233 256 233 228 222.5 c 128,-1,14
 200 212 200 212 182 198 c 128,-1,15
 164 184 164 184 155.5 166 c 128,-1,16
 147 148 147 148 147 125 c 0,17,18
 147 101 147 101 157.5 84.5 c 128,-1,19
 168 68 168 68 186.5 60.5 c 128,-1,20
 205 53 205 53 227 53 c 0,21,22
 263 53 263 53 290.5 68.5 c 128,-1,23
 318 84 318 84 339.5 113 c 128,-1,24
 361 142 361 142 376 182 c 1,25,-1
 381 110 l 1,26,27
 367 73 367 73 341 46 c 128,-1,28
 315 19 315 19 281 4.5 c 128,-1,29
 247 -10 247 -10 204 -10 c 256,30,31
 161 -10 161 -10 125.5 6 c 128,-1,32
 90 22 90 22 68.5 52.5 c 128,-1,33
 47 83 47 83 47 124 c 0,34,35
 47 167 47 167 68 198 c 128,-1,36
 89 229 89 229 131 250 c 128,-1,37
 173 271 173 271 236 285 c 128,-1,38
 299 299 299 299 382 308 c 1,10,-1
368 0 m 1,39,-1
 368 105 l 1,40,-1
 355 107 l 1,41,-1
 355 352 l 2,42,43
 355 390 355 390 344 413 c 128,-1,44
 333 436 333 436 311 446.5 c 128,-1,45
 289 457 289 457 256 457 c 0,46,47
 206 457 206 457 172.5 438 c 128,-1,48
 139 419 139 419 120 391 c 1,49,50
 119 405 119 405 123 417.5 c 128,-1,51
 127 430 127 430 134.5 439.5 c 128,-1,52
 142 449 142 449 152 455.5 c 128,-1,53
 162 462 162 462 172 465 c 1,54,-1
 172 361 l 1,55,-1
 80 361 l 1,56,-1
 80 461 l 1,57,58
 96 474 96 474 122 487.5 c 128,-1,59
 148 501 148 501 184 510.5 c 128,-1,60
 220 520 220 520 263 520 c 0,61,62
 300 520 300 520 333.5 512 c 128,-1,63
 367 504 367 504 393.5 485 c 128,-1,64
 420 466 420 466 435.5 435.5 c 128,-1,65
 451 405 451 405 451 361 c 2,66,-1
 451 93 l 2,67,68
 451 79 451 79 460.5 71 c 128,-1,69
 470 63 470 63 487 60 c 128,-1,70
 504 57 504 57 527 57 c 1,71,-1
 527 57 l 1,72,-1
 527 0 l 1,73,-1
 368 0 l 1,39,-1
EndSplineSet
Substitution2: "'ss06' Style Set 6 lookup 66 subtable" acaron.alt
EndChar

StartChar: adblgrave
Encoding: 513 513 334
Width: 540
GlyphClass: 1
Flags: W
LayerCount: 2
Fore
SplineSet
353 710 m 2,0,-1
 377 595 l 1,1,-1
 374 571 l 1,2,-1
 339 571 l 1,3,-1
 279 659 l 2,4,5
 267 676 267 676 261.5 692 c 128,-1,6
 256 708 256 708 256 721 c 0,7,8
 256 741 256 741 267.5 752.5 c 128,-1,9
 279 764 279 764 298 764 c 256,10,11
 317 764 317 764 331.5 751.5 c 128,-1,12
 346 739 346 739 353 710 c 2,0,-1
200 710 m 2,13,-1
 221 595 l 1,14,-1
 221 571 l 1,15,-1
 186 571 l 1,16,-1
 126 659 l 2,17,18
 114 676 114 676 108.5 692 c 128,-1,19
 103 708 103 708 103 721 c 0,20,21
 103 741 103 741 114.5 752.5 c 128,-1,22
 126 764 126 764 145 764 c 256,23,24
 164 764 164 764 179 751.5 c 128,-1,25
 194 739 194 739 200 710 c 2,13,-1
382 308 m 1,26,-1
 382 253 l 1,27,28
 332 248 332 248 294 240.5 c 128,-1,29
 256 233 256 233 228 222.5 c 128,-1,30
 200 212 200 212 182 198 c 128,-1,31
 164 184 164 184 155.5 166 c 128,-1,32
 147 148 147 148 147 125 c 0,33,34
 147 101 147 101 157.5 84.5 c 128,-1,35
 168 68 168 68 186.5 60.5 c 128,-1,36
 205 53 205 53 227 53 c 0,37,38
 263 53 263 53 290.5 68.5 c 128,-1,39
 318 84 318 84 339.5 113 c 128,-1,40
 361 142 361 142 376 182 c 1,41,-1
 381 110 l 1,42,43
 367 73 367 73 341 46 c 128,-1,44
 315 19 315 19 281 4.5 c 128,-1,45
 247 -10 247 -10 204 -10 c 256,46,47
 161 -10 161 -10 125.5 6 c 128,-1,48
 90 22 90 22 68.5 52.5 c 128,-1,49
 47 83 47 83 47 124 c 0,50,51
 47 167 47 167 68 198 c 128,-1,52
 89 229 89 229 131 250 c 128,-1,53
 173 271 173 271 236 285 c 128,-1,54
 299 299 299 299 382 308 c 1,26,-1
368 0 m 1,55,-1
 368 105 l 1,56,-1
 355 107 l 1,57,-1
 355 352 l 2,58,59
 355 390 355 390 344 413 c 128,-1,60
 333 436 333 436 311 446.5 c 128,-1,61
 289 457 289 457 256 457 c 0,62,63
 206 457 206 457 172.5 438 c 128,-1,64
 139 419 139 419 120 391 c 1,65,66
 119 405 119 405 123 417.5 c 128,-1,67
 127 430 127 430 134.5 439.5 c 128,-1,68
 142 449 142 449 152 455.5 c 128,-1,69
 162 462 162 462 172 465 c 1,70,-1
 172 361 l 1,71,-1
 80 361 l 1,72,-1
 80 461 l 1,73,74
 96 474 96 474 122 487.5 c 128,-1,75
 148 501 148 501 184 510.5 c 128,-1,76
 220 520 220 520 263 520 c 0,77,78
 300 520 300 520 333.5 512 c 128,-1,79
 367 504 367 504 393.5 485 c 128,-1,80
 420 466 420 466 435.5 435.5 c 128,-1,81
 451 405 451 405 451 361 c 2,82,-1
 451 93 l 2,83,84
 451 79 451 79 460.5 71 c 128,-1,85
 470 63 470 63 487 60 c 128,-1,86
 504 57 504 57 527 57 c 1,87,-1
 527 57 l 1,88,-1
 527 0 l 1,89,-1
 368 0 l 1,55,-1
EndSplineSet
Substitution2: "'ss06' Style Set 6 lookup 66 subtable" adblgrave.alt
EndChar

StartChar: ainvertedbreve
Encoding: 515 515 335
Width: 540
GlyphClass: 1
Flags: W
LayerCount: 2
Fore
SplineSet
268 741 m 256,0,1
 227 741 227 741 195 724.5 c 128,-1,2
 163 708 163 708 145 673 c 128,-1,3
 127 638 127 638 124 584 c 1,4,-1
 185 584 l 1,5,6
 190 616 190 616 200 634.5 c 128,-1,7
 210 653 210 653 226 661 c 128,-1,8
 242 669 242 669 265 669 c 0,9,10
 287 669 287 669 303.5 661 c 128,-1,11
 320 653 320 653 330.5 634.5 c 128,-1,12
 341 616 341 616 346 584 c 1,13,-1
 411 584 l 1,14,15
 409 638 409 638 390 673 c 128,-1,16
 371 708 371 708 340 724.5 c 128,-1,17
 309 741 309 741 268 741 c 256,0,1
382 308 m 1,18,-1
 382 253 l 1,19,20
 332 248 332 248 294 240.5 c 128,-1,21
 256 233 256 233 228 222.5 c 128,-1,22
 200 212 200 212 182 198 c 128,-1,23
 164 184 164 184 155.5 166 c 128,-1,24
 147 148 147 148 147 125 c 0,25,26
 147 101 147 101 157.5 84.5 c 128,-1,27
 168 68 168 68 186.5 60.5 c 128,-1,28
 205 53 205 53 227 53 c 0,29,30
 263 53 263 53 290.5 68.5 c 128,-1,31
 318 84 318 84 339.5 113 c 128,-1,32
 361 142 361 142 376 182 c 1,33,-1
 381 110 l 1,34,35
 367 73 367 73 341 46 c 128,-1,36
 315 19 315 19 281 4.5 c 128,-1,37
 247 -10 247 -10 204 -10 c 256,38,39
 161 -10 161 -10 125.5 6 c 128,-1,40
 90 22 90 22 68.5 52.5 c 128,-1,41
 47 83 47 83 47 124 c 0,42,43
 47 167 47 167 68 198 c 128,-1,44
 89 229 89 229 131 250 c 128,-1,45
 173 271 173 271 236 285 c 128,-1,46
 299 299 299 299 382 308 c 1,18,-1
368 0 m 1,47,-1
 368 105 l 1,48,-1
 355 107 l 1,49,-1
 355 352 l 2,50,51
 355 390 355 390 344 413 c 128,-1,52
 333 436 333 436 311 446.5 c 128,-1,53
 289 457 289 457 256 457 c 0,54,55
 206 457 206 457 172.5 438 c 128,-1,56
 139 419 139 419 120 391 c 1,57,58
 119 405 119 405 123 417.5 c 128,-1,59
 127 430 127 430 134.5 439.5 c 128,-1,60
 142 449 142 449 152 455.5 c 128,-1,61
 162 462 162 462 172 465 c 1,62,-1
 172 361 l 1,63,-1
 80 361 l 1,64,-1
 80 461 l 1,65,66
 96 474 96 474 122 487.5 c 128,-1,67
 148 501 148 501 184 510.5 c 128,-1,68
 220 520 220 520 263 520 c 0,69,70
 300 520 300 520 333.5 512 c 128,-1,71
 367 504 367 504 393.5 485 c 128,-1,72
 420 466 420 466 435.5 435.5 c 128,-1,73
 451 405 451 405 451 361 c 2,74,-1
 451 93 l 2,75,76
 451 79 451 79 460.5 71 c 128,-1,77
 470 63 470 63 487 60 c 128,-1,78
 504 57 504 57 527 57 c 1,79,-1
 527 57 l 1,80,-1
 527 0 l 1,81,-1
 368 0 l 1,47,-1
EndSplineSet
Substitution2: "'ss06' Style Set 6 lookup 66 subtable" ainvertedbreve.alt
EndChar

StartChar: b
Encoding: 98 98 348
Width: 641
GlyphClass: 2
Flags: W
AnchorPoint: "Anchor-1" 349 0 basechar 0
AnchorPoint: "Anchor-0" 329 755 basechar 0
LayerCount: 2
Fore
SplineSet
357 -10 m 0,0,1
 316 -10 316 -10 282.5 3 c 128,-1,2
 249 16 249 16 221.5 42.5 c 128,-1,3
 194 69 194 69 168 112 c 1,4,-1
 173 197 l 1,5,6
 196 150 196 150 223 119 c 128,-1,7
 250 88 250 88 282.5 72.5 c 128,-1,8
 315 57 315 57 353 57 c 0,9,10
 387 57 387 57 413.5 72 c 128,-1,11
 440 87 440 87 458 113.5 c 128,-1,12
 476 140 476 140 486 177 c 128,-1,13
 496 214 496 214 496 258 c 256,14,15
 496 302 496 302 486.5 338 c 128,-1,16
 477 374 477 374 459 399.5 c 128,-1,17
 441 425 441 425 415.5 439 c 128,-1,18
 390 453 390 453 358 453 c 0,19,20
 317 453 317 453 283.5 436 c 128,-1,21
 250 419 250 419 223.5 386 c 128,-1,22
 197 353 197 353 173 304 c 1,23,-1
 169 386 l 1,24,25
 197 431 197 431 225 461 c 128,-1,26
 253 491 253 491 287 505.5 c 128,-1,27
 321 520 321 520 366 520 c 0,28,29
 434 520 434 520 486.5 487.5 c 128,-1,30
 539 455 539 455 568 396.5 c 128,-1,31
 597 338 597 338 597 258 c 0,32,33
 597 179 597 179 567 118.5 c 128,-1,34
 537 58 537 58 483 24 c 128,-1,35
 429 -10 429 -10 357 -10 c 0,0,1
97 634 m 2,36,37
 97 649 97 649 89.5 657.5 c 128,-1,38
 82 666 82 666 67.5 671 c 128,-1,39
 53 676 53 676 31 679 c 2,40,-1
 20 681 l 1,41,-1
 20 738 l 1,42,-1
 193 738 l 1,43,-1
 193 116 l 1,44,-1
 184 105 l 1,45,-1
 159 -4 l 1,46,-1
 97 -4 l 1,47,-1
 97 634 l 2,36,37
EndSplineSet
EndChar

StartChar: c
Encoding: 99 99 349
Width: 552
GlyphClass: 2
Flags: W
AnchorPoint: "Anchor-1" 305 0 basechar 0
AnchorPoint: "Anchor-0" 295 510 basechar 0
LayerCount: 2
Fore
SplineSet
311 56 m 0,0,1
 355 56 355 56 385 70.5 c 128,-1,2
 415 85 415 85 435.5 107.5 c 128,-1,3
 456 130 456 130 472 155 c 1,4,-1
 520 110 l 1,5,6
 499 77 499 77 469.5 49.5 c 128,-1,7
 440 22 440 22 400 6 c 128,-1,8
 360 -10 360 -10 307 -10 c 0,9,10
 229 -10 229 -10 169.5 24 c 128,-1,11
 110 58 110 58 77 118 c 128,-1,12
 44 178 44 178 44 255 c 0,13,14
 44 334 44 334 78.5 393.5 c 128,-1,15
 113 453 113 453 174.5 486.5 c 128,-1,16
 236 520 236 520 317 520 c 0,17,18
 365 520 365 520 403.5 509.5 c 128,-1,19
 442 499 442 499 469 484.5 c 128,-1,20
 496 470 496 470 510 456 c 1,21,-1
 510 337 l 1,22,-1
 412 337 l 1,23,-1
 412 451 l 1,24,25
 423 449 423 449 433.5 442 c 128,-1,26
 444 435 444 435 453 423.5 c 128,-1,27
 462 412 462 412 466.5 399.5 c 128,-1,28
 471 387 471 387 468 375 c 1,29,30
 451 407 451 407 409 430.5 c 128,-1,31
 367 454 367 454 317 454 c 0,32,33
 261 454 261 454 222.5 428 c 128,-1,34
 184 402 184 402 165 357 c 128,-1,35
 146 312 146 312 146 255 c 0,36,37
 146 212 146 212 157 176 c 128,-1,38
 168 140 168 140 189 113 c 128,-1,39
 210 86 210 86 240.5 71 c 128,-1,40
 271 56 271 56 311 56 c 0,0,1
EndSplineSet
EndChar

StartChar: ccaron
Encoding: 269 269 354
Width: 552
GlyphClass: 1
Flags: W
LayerCount: 2
Fore
SplineSet
264 576 m 1,0,-1
 340 576 l 1,1,-1
 453 733 l 1,2,-1
 453 743 l 1,3,-1
 404 743 l 1,4,-1
 286 634 l 1,5,-1
 323 634 l 1,6,-1
 206 743 l 1,7,-1
 151 743 l 1,8,-1
 151 733 l 1,9,-1
 264 576 l 1,0,-1
311 56 m 0,10,11
 355 56 355 56 385 70.5 c 128,-1,12
 415 85 415 85 435.5 107.5 c 128,-1,13
 456 130 456 130 472 155 c 1,14,-1
 520 110 l 1,15,16
 499 77 499 77 469.5 49.5 c 128,-1,17
 440 22 440 22 400 6 c 128,-1,18
 360 -10 360 -10 307 -10 c 0,19,20
 229 -10 229 -10 169.5 24 c 128,-1,21
 110 58 110 58 77 118 c 128,-1,22
 44 178 44 178 44 255 c 0,23,24
 44 334 44 334 78.5 393.5 c 128,-1,25
 113 453 113 453 174.5 486.5 c 128,-1,26
 236 520 236 520 317 520 c 0,27,28
 365 520 365 520 403.5 509.5 c 128,-1,29
 442 499 442 499 469 484.5 c 128,-1,30
 496 470 496 470 510 456 c 1,31,-1
 510 337 l 1,32,-1
 412 337 l 1,33,-1
 412 451 l 1,34,35
 423 449 423 449 433.5 442 c 128,-1,36
 444 435 444 435 453 423.5 c 128,-1,37
 462 412 462 412 466.5 399.5 c 128,-1,38
 471 387 471 387 468 375 c 1,39,40
 451 407 451 407 409 430.5 c 128,-1,41
 367 454 367 454 317 454 c 0,42,43
 261 454 261 454 222.5 428 c 128,-1,44
 184 402 184 402 165 357 c 128,-1,45
 146 312 146 312 146 255 c 0,46,47
 146 212 146 212 157 176 c 128,-1,48
 168 140 168 140 189 113 c 128,-1,49
 210 86 210 86 240.5 71 c 128,-1,50
 271 56 271 56 311 56 c 0,10,11
EndSplineSet
EndChar

StartChar: d
Encoding: 100 100 356
Width: 640
GlyphClass: 2
Flags: W
AnchorPoint: "Anchor-2" 606 735 basechar 0
AnchorPoint: "Anchor-1" 298 0 basechar 0
LayerCount: 2
Fore
SplineSet
545 93 m 2,0,1
 545 71 545 71 567 64 c 128,-1,2
 589 57 589 57 619 57 c 2,3,-1
 620 57 l 1,4,-1
 620 0 l 1,5,-1
 461 0 l 1,6,-1
 461 121 l 1,7,-1
 448 114 l 1,8,-1
 448 634 l 2,9,10
 448 649 448 649 440 657 c 128,-1,11
 432 665 432 665 415.5 670 c 128,-1,12
 399 675 399 675 373 679 c 2,13,-1
 362 681 l 1,14,-1
 362 738 l 1,15,-1
 545 738 l 1,16,-1
 545 93 l 2,0,1
285 520 m 0,17,18
 328 520 328 520 360.5 507.5 c 128,-1,19
 393 495 393 495 420.5 468.5 c 128,-1,20
 448 442 448 442 474 399 c 1,21,-1
 468 312 l 1,22,23
 447 360 447 360 420 391.5 c 128,-1,24
 393 423 393 423 361 438 c 128,-1,25
 329 453 329 453 290 453 c 0,26,27
 256 453 256 453 229 438.5 c 128,-1,28
 202 424 202 424 183.5 397 c 128,-1,29
 165 370 165 370 155.5 333 c 128,-1,30
 146 296 146 296 146 251 c 0,31,32
 146 208 146 208 155.5 172.5 c 128,-1,33
 165 137 165 137 183 111 c 128,-1,34
 201 85 201 85 227 71 c 128,-1,35
 253 57 253 57 286 57 c 0,36,37
 328 57 328 57 360 74.5 c 128,-1,38
 392 92 392 92 419 125 c 128,-1,39
 446 158 446 158 468 206 c 1,40,-1
 473 123 l 1,41,42
 446 78 446 78 418 48.5 c 128,-1,43
 390 19 390 19 356 4.5 c 128,-1,44
 322 -10 322 -10 278 -10 c 0,45,46
 209 -10 209 -10 156.5 22.5 c 128,-1,47
 104 55 104 55 74 114 c 128,-1,48
 44 173 44 173 44 251 c 0,49,50
 44 331 44 331 74.5 391.5 c 128,-1,51
 105 452 105 452 159.5 486 c 128,-1,52
 214 520 214 520 285 520 c 0,17,18
EndSplineSet
EndChar

StartChar: e
Encoding: 101 101 360
Width: 547
GlyphClass: 2
Flags: W
AnchorPoint: "Anchor-2" 433 1 basechar 0
AnchorPoint: "Anchor-1" 300 0 basechar 0
AnchorPoint: "Anchor-0" 279 510 basechar 0
LayerCount: 2
Fore
SplineSet
142 251 m 256,0,1
 142 205 142 205 155 169 c 128,-1,2
 168 133 168 133 190.5 107.5 c 128,-1,3
 213 82 213 82 243 69 c 128,-1,4
 273 56 273 56 308 56 c 0,5,6
 349 56 349 56 376.5 70 c 128,-1,7
 404 84 404 84 423 105.5 c 128,-1,8
 442 127 442 127 456 152 c 1,9,-1
 507 107 l 1,10,11
 488 74 488 74 459.5 47 c 128,-1,12
 431 20 431 20 392 5 c 128,-1,13
 353 -10 353 -10 302 -10 c 0,14,15
 230 -10 230 -10 171.5 22 c 128,-1,16
 113 54 113 54 78.5 113.5 c 128,-1,17
 44 173 44 173 44 253 c 0,18,19
 44 332 44 332 76.5 392 c 128,-1,20
 109 452 109 452 164 486 c 128,-1,21
 219 520 219 520 286 520 c 0,22,23
 340 520 340 520 381.5 502.5 c 128,-1,24
 423 485 423 485 451.5 449.5 c 128,-1,25
 480 414 480 414 495 360.5 c 128,-1,26
 510 307 510 307 510 235 c 1,27,-1
 121 235 l 1,28,-1
 121 298 l 1,29,-1
 437 298 l 1,30,-1
 409 271 l 1,31,32
 408 317 408 317 400 351.5 c 128,-1,33
 392 386 392 386 377 408.5 c 128,-1,34
 362 431 362 431 339 442.5 c 128,-1,35
 316 454 316 454 286 454 c 0,36,37
 257 454 257 454 231 440 c 128,-1,38
 205 426 205 426 185 399 c 128,-1,39
 165 372 165 372 153.5 334.5 c 128,-1,40
 142 297 142 297 142 251 c 256,0,1
EndSplineSet
EndChar

StartChar: eogonek
Encoding: 281 281 368
Width: 547
GlyphClass: 1
Flags: W
LayerCount: 2
Fore
SplineSet
399 42 m 1,0,-1
 408 15 l 1,1,2
 386 4 386 4 360.5 -3 c 128,-1,3
 335 -10 335 -10 304 -10 c 0,4,5
 231 -10 231 -10 172 22 c 128,-1,6
 113 54 113 54 78.5 113.5 c 128,-1,7
 44 173 44 173 44 253 c 0,8,9
 44 332 44 332 76.5 392 c 128,-1,10
 109 452 109 452 164 486 c 128,-1,11
 219 520 219 520 286 520 c 0,12,13
 340 520 340 520 381.5 502.5 c 128,-1,14
 423 485 423 485 451.5 449.5 c 128,-1,15
 480 414 480 414 495 360.5 c 128,-1,16
 510 307 510 307 510 235 c 1,17,-1
 106 235 l 1,18,-1
 105 298 l 1,19,-1
 437 298 l 1,20,-1
 409 271 l 1,21,22
 408 316 408 316 400 350.5 c 128,-1,23
 392 385 392 385 377 408 c 128,-1,24
 362 431 362 431 339 442.5 c 128,-1,25
 316 454 316 454 286 454 c 0,26,27
 257 454 257 454 231 440 c 128,-1,28
 205 426 205 426 185 399 c 128,-1,29
 165 372 165 372 153.5 334.5 c 128,-1,30
 142 297 142 297 142 251 c 0,31,32
 142 206 142 206 155 169.5 c 128,-1,33
 168 133 168 133 190.5 108 c 128,-1,34
 213 83 213 83 242.5 69.5 c 128,-1,35
 272 56 272 56 307 56 c 0,36,37
 349 56 349 56 377 70 c 128,-1,38
 405 84 405 84 423.5 105.5 c 128,-1,39
 442 127 442 127 457 152 c 1,40,-1
 507 107 l 1,41,42
 495 85 495 85 479 66.5 c 128,-1,43
 463 48 463 48 436 28 c 0,44,45
 403 4 403 4 379 -19.5 c 128,-1,46
 355 -43 355 -43 340 -63.5 c 128,-1,47
 325 -84 325 -84 318 -102 c 128,-1,48
 311 -120 311 -120 311 -136 c 0,49,50
 311 -157 311 -157 321 -169 c 128,-1,51
 331 -181 331 -181 348 -181 c 0,52,53
 364 -181 364 -181 376 -173 c 128,-1,54
 388 -165 388 -165 399 -155 c 1,55,-1
 429 -190 l 1,56,57
 410 -210 410 -210 387 -223 c 128,-1,58
 364 -236 364 -236 325 -236 c 0,59,60
 294 -236 294 -236 269.5 -225 c 128,-1,61
 245 -214 245 -214 231 -193.5 c 128,-1,62
 217 -173 217 -173 217 -145 c 0,63,64
 217 -119 217 -119 230.5 -95 c 128,-1,65
 244 -71 244 -71 268 -47.5 c 128,-1,66
 292 -24 292 -24 325.5 -1.5 c 128,-1,67
 359 21 359 21 399 42 c 1,0,-1
EndSplineSet
EndChar

